<svg width="1099" height="198" viewBox="0 0 1099 198" fill="none" xmlns="http://www.w3.org/2000/svg">
<path d="M162.642 8.54544V154H255.753V128.645H193.395V8.54544H162.642Z" fill="white"/>
<path fill-rule="evenodd" clip-rule="evenodd" d="M296.289 149.312C304.386 153.858 314.045 156.131 325.266 156.131C334.263 156.131 342.193 154.758 349.059 152.011C355.972 149.218 361.606 145.335 365.962 140.364C370.366 135.345 373.278 129.473 374.698 122.75L346.715 120.903C345.674 123.65 344.158 125.97 342.17 127.864C340.181 129.758 337.79 131.178 334.996 132.125C332.203 133.072 329.125 133.545 325.763 133.545C320.697 133.545 316.317 132.48 312.624 130.349C308.931 128.219 306.067 125.188 304.031 121.259C302.042 117.329 301.048 112.665 301.048 107.267V107.196H375.337V98.8864C375.337 89.606 374.035 81.5095 371.431 74.5966C368.827 67.6364 365.181 61.8598 360.494 57.267C355.853 52.6742 350.408 49.2415 344.158 46.9687C337.956 44.6487 331.256 43.4886 324.059 43.4886C313.358 43.4886 304.031 45.8561 296.076 50.5909C288.169 55.3257 282.037 61.9309 277.681 70.4062C273.325 78.8816 271.147 88.7301 271.147 99.9517C271.147 111.457 273.325 121.424 277.681 129.852C282.037 138.233 288.24 144.72 296.289 149.312ZM301.076 88.446C301.259 84.5287 302.267 80.9539 304.102 77.7216C306.09 74.1704 308.836 71.3532 312.34 69.2699C315.891 67.1392 319.963 66.0739 324.556 66.0739C328.96 66.0739 332.818 67.0445 336.133 68.9858C339.495 70.8797 342.122 73.5076 344.016 76.8693C345.91 80.2311 346.857 84.09 346.857 88.446H301.076Z" fill="white"/>
<path fill-rule="evenodd" clip-rule="evenodd" d="M415.749 149.099C423.799 153.787 433.339 156.131 444.371 156.131C455.404 156.131 464.921 153.787 472.923 149.099C480.972 144.365 487.174 137.783 491.531 129.355C495.887 120.88 498.065 111.055 498.065 99.8807C498.065 88.6117 495.887 78.7632 491.531 70.3352C487.174 61.8598 480.972 55.2784 472.923 50.5909C464.921 45.8561 455.404 43.4886 444.371 43.4886C433.339 43.4886 423.799 45.8561 415.749 50.5909C407.747 55.2784 401.568 61.8598 397.212 70.3352C392.856 78.7632 390.678 88.6117 390.678 99.8807C390.678 111.055 392.856 120.88 397.212 129.355C401.568 137.783 407.747 144.365 415.749 149.099ZM457.085 128.432C453.723 131.273 449.532 132.693 444.513 132.693C439.447 132.693 435.186 131.273 431.729 128.432C428.32 125.544 425.74 121.614 423.988 116.642C422.283 111.67 421.431 106.012 421.431 99.6676C421.431 93.3229 422.283 87.6648 423.988 82.6932C425.74 77.7216 428.32 73.7917 431.729 70.9034C435.186 68.0151 439.447 66.571 444.513 66.571C449.532 66.571 453.723 68.0151 457.085 70.9034C460.446 73.7917 462.979 77.7216 464.684 82.6932C466.436 87.6648 467.312 93.3229 467.312 99.6676C467.312 106.012 466.436 111.67 464.684 116.642C462.979 121.614 460.446 125.544 457.085 128.432Z" fill="white"/>
<path d="M547.994 154V90.9318C548.041 86.2443 548.917 82.2434 550.621 78.929C552.373 75.5672 554.788 73.0104 557.866 71.2585C560.991 69.5066 564.589 68.6307 568.661 68.6307C574.722 68.6307 579.48 70.5246 582.937 74.3125C586.393 78.053 588.098 83.2614 588.05 89.9375V154H618.306V84.5398C618.306 76.0644 616.744 68.7727 613.619 62.6648C610.494 56.5095 606.114 51.7746 600.479 48.4602C594.845 45.1458 588.24 43.4886 580.664 43.4886C572.567 43.4886 565.678 45.3589 559.996 49.0994C554.315 52.7926 550.266 57.8115 547.852 64.1562H546.573V44.9091H517.738V154H547.994Z" fill="white"/>
<path d="M672.408 154V8.54544H642.152V154H672.408Z" fill="white"/>
<path fill-rule="evenodd" clip-rule="evenodd" d="M717.312 149.099C725.361 153.787 734.902 156.131 745.934 156.131C756.966 156.131 766.483 153.787 774.485 149.099C782.534 144.365 788.737 137.783 793.093 129.355C797.449 120.88 799.627 111.055 799.627 99.8807C799.627 88.6117 797.449 78.7632 793.093 70.3352C788.737 61.8598 782.534 55.2784 774.485 50.5909C766.483 45.8561 756.966 43.4886 745.934 43.4886C734.902 43.4886 725.361 45.8561 717.312 50.5909C709.31 55.2784 703.131 61.8598 698.775 70.3352C694.419 78.7632 692.241 88.6117 692.241 99.8807C692.241 111.055 694.419 120.88 698.775 129.355C703.131 137.783 709.31 144.365 717.312 149.099ZM758.647 128.432C755.285 131.273 751.095 132.693 746.076 132.693C741.01 132.693 736.748 131.273 733.292 128.432C729.883 125.544 727.302 121.614 725.55 116.642C723.846 111.67 722.994 106.012 722.994 99.6676C722.994 93.3229 723.846 87.6648 725.55 82.6932C727.302 77.7216 729.883 73.7917 733.292 70.9034C736.748 68.0151 741.01 66.571 746.076 66.571C751.095 66.571 755.285 68.0151 758.647 70.9034C762.009 73.7917 764.542 77.7216 766.246 82.6932C767.998 87.6648 768.874 93.3229 768.874 99.6676C768.874 106.012 767.998 111.67 766.246 116.642C764.542 121.614 762.009 125.544 758.647 128.432Z" fill="white"/>
<path fill-rule="evenodd" clip-rule="evenodd" d="M843.235 193.134C850.243 195.832 858.647 197.182 868.448 197.182C878.865 197.182 888.074 195.596 896.076 192.423C904.125 189.298 910.423 184.611 914.968 178.361C919.513 172.111 921.786 164.346 921.786 155.065V44.9091H891.744V63.2329H890.607C889.234 60.2973 887.269 57.3144 884.712 54.2841C882.203 51.2064 878.888 48.6496 874.769 46.6136C870.65 44.5303 865.536 43.4886 859.428 43.4886C851.426 43.4886 844.064 45.5483 837.34 49.6676C830.664 53.7869 825.314 59.9896 821.289 68.2756C817.264 76.5615 815.252 86.8835 815.252 99.2415C815.252 111.315 817.217 121.306 821.147 129.213C825.124 137.073 830.451 142.92 837.127 146.756C843.851 150.544 851.308 152.437 859.499 152.437C865.276 152.437 870.247 151.585 874.414 149.881C878.581 148.176 881.99 145.974 884.641 143.276C887.293 140.577 889.281 137.712 890.607 134.682H891.886V154.639C891.886 162.12 889.731 167.447 885.423 170.619C881.161 173.839 875.74 175.449 869.158 175.449C864.755 175.449 861.014 174.857 857.937 173.673C854.906 172.537 852.468 171.022 850.621 169.128C848.775 167.234 847.425 165.198 846.573 163.02L818.59 166.784C819.821 172.513 822.496 177.674 826.616 182.267C830.735 186.86 836.275 190.482 843.235 193.134ZM881.445 126.088C878.084 128.503 873.964 129.71 869.087 129.71C864.116 129.71 859.925 128.479 856.516 126.017C853.155 123.508 850.574 119.98 848.775 115.435C847.023 110.842 846.147 105.397 846.147 99.0994C846.147 92.8968 847.023 87.428 848.775 82.6932C850.527 77.9583 853.107 74.2651 856.516 71.6136C859.925 68.9148 864.116 67.5653 869.087 67.5653C873.964 67.5653 878.107 68.8674 881.516 71.4716C884.925 74.0757 887.53 77.7453 889.329 82.4801C891.128 87.1676 892.028 92.7074 892.028 99.0994C892.028 105.491 891.104 110.984 889.258 115.577C887.459 120.122 884.854 123.626 881.445 126.088Z" fill="white"/>
<path d="M945.863 44.9091V154H976.119V44.9091H945.863Z" fill="white"/>
<path d="M949.485 26.3721C952.705 29.3551 956.564 30.8466 961.062 30.8466C965.56 30.8466 969.395 29.3551 972.567 26.3721C975.787 23.3418 977.397 19.7197 977.397 15.5057C977.397 11.339 975.787 7.76419 972.567 4.78124C969.395 1.75093 965.56 0.235779 961.062 0.235779C956.564 0.235779 952.705 1.75093 949.485 4.78124C946.313 7.76419 944.727 11.339 944.727 15.5057C944.727 19.7197 946.313 23.3418 949.485 26.3721Z" fill="white"/>
<path d="M1020.81 149.028C1028.86 153.763 1038.47 156.131 1049.64 156.131C1059.35 156.131 1067.76 154.355 1074.86 150.804C1081.96 147.253 1087.52 142.329 1091.55 136.031C1095.62 129.687 1097.89 122.348 1098.37 114.014H1069.82C1069.25 117.849 1068.04 121.14 1066.19 123.886C1064.39 126.585 1062.1 128.645 1059.3 130.065C1056.56 131.486 1053.46 132.196 1050 132.196C1045.31 132.196 1041.22 130.918 1037.71 128.361C1034.21 125.804 1031.49 122.087 1029.55 117.21C1027.65 112.333 1026.7 106.415 1026.7 99.4545C1026.7 92.589 1027.68 86.7415 1029.62 81.9119C1031.56 77.0824 1034.26 73.4129 1037.71 70.9034C1041.22 68.3466 1045.31 67.0682 1050 67.0682C1055.54 67.0682 1060.01 68.749 1063.42 72.1108C1066.88 75.4252 1069.01 79.8049 1069.82 85.25H1098.37C1097.94 76.822 1095.64 69.4829 1091.48 63.2329C1087.31 56.9829 1081.65 52.1297 1074.5 48.6733C1067.35 45.2168 1059.02 43.4886 1049.5 43.4886C1038.47 43.4886 1028.95 45.8797 1020.95 50.6619C1012.95 55.3968 1006.77 62.0019 1002.41 70.4773C998.106 78.9053 995.952 88.7064 995.952 99.8807C995.952 110.913 998.082 120.667 1002.34 129.142C1006.65 137.617 1012.81 144.246 1020.81 149.028Z" fill="white"/>
<path d="M50 3.99999L0 54V154H100L150 104H50V3.99999Z" fill="white"/>
<path d="M75 29H125V79H75V29Z" fill="white"/>
</svg>
