<svg width="528" height="528" viewBox="0 0 528 528" fill="none" xmlns="http://www.w3.org/2000/svg">
<path d="M200.025 119.445C197.314 114.109 189.861 113.657 186.021 117.949C184.722 119.417 186.84 121.591 188.195 120.123C190.933 117.13 195.225 117.695 197.427 120.942C198.5 122.551 200.9 121.168 200.025 119.445Z" fill="white"/>
<path d="M239.295 127.153C237.432 119.953 227.691 117.073 222.214 122.212C221.028 123.341 222.581 125.459 223.993 124.527C226.195 123.059 228.651 122.24 231.277 123.031C233.677 123.765 235.455 125.684 236.415 127.943C237.121 129.665 239.775 129.072 239.295 127.153Z" fill="white"/>
<path d="M336.306 445.315C334.273 431.678 332.24 418.013 330.207 404.376C329.191 397.459 328.146 390.542 327.13 383.597L325.634 373.517C325.21 370.751 325.069 367.786 324.024 365.16C323.064 362.704 321.286 360.784 318.575 359.994C315.582 359.118 312.279 359.683 309.23 359.937C302.172 360.53 295.142 361.236 288.111 361.97C273.882 363.495 259.709 365.358 245.564 367.532C229.527 369.988 213.575 372.868 197.708 376.143C196.41 376.397 196.155 377.611 196.607 378.486C196.607 378.515 196.607 378.515 196.607 378.543C196.805 379.898 197.031 381.282 197.285 382.665C200.701 407.736 204.202 432.779 207.703 457.85C207.816 458.726 208.437 459.601 209.482 459.544C242.345 458.048 275.152 455.253 307.79 451.159C316.881 450.03 325.972 448.787 335.035 447.432C336.08 447.263 336.419 446.134 336.306 445.315Z" fill="#07D673"/>
<path d="M168.402 445.23C165.664 443.932 162.953 442.633 160.186 441.391C157.73 440.261 155.02 439.132 152.281 439.922C149.429 440.769 147.312 443.31 145.42 445.456C143.303 447.828 141.355 450.369 139.632 453.051C139.378 453.418 139.322 453.785 139.407 454.124C138.814 454.66 138.531 455.507 139.152 456.298C140.762 458.415 143.331 459.912 145.618 461.21C147.905 462.509 150.361 463.582 152.874 464.401C155.5 465.248 158.436 465.699 160.977 464.316C163.235 463.074 164.619 460.674 166.002 458.585C167.64 456.128 169.644 453.644 170.943 450.99C172.242 448.364 170.746 446.331 168.402 445.23Z" fill="#07D673"/>
<path d="M346.074 74.865C342.262 76.3049 338.62 77.3778 334.498 77.2649C330.376 77.1519 326.705 75.9379 323.035 74.131C321.285 73.2557 319.845 75.6838 321.511 76.7567C325.237 79.1565 329.896 80.2576 334.272 80.427C338.592 80.5964 343.476 79.8623 347.259 77.6884C348.727 76.8131 347.739 74.2157 346.074 74.865Z" fill="#07D673"/>
<path d="M344.521 84.8317C340.766 86.3846 337.181 87.4574 333.087 87.288C329.078 87.1186 325.295 85.8764 321.85 83.8153C320.184 82.7989 318.744 85.3399 320.325 86.4128C327.44 91.1278 338.169 92.0595 345.707 87.6551C347.147 86.7798 346.159 84.1259 344.521 84.8317Z" fill="#07D673"/>
<path d="M342.064 96.6608C338.479 98.383 335.034 99.7382 330.997 99.9359C329.105 100.021 327.185 99.9076 325.322 99.5688C323.374 99.2018 321.595 98.4395 319.704 97.8748C318.122 97.3949 317.247 99.6535 318.602 100.501C322.132 102.731 327.129 103.324 331.223 103.098C335.429 102.872 340.116 101.771 343.561 99.2865C345.142 98.1289 343.815 95.8138 342.064 96.6608Z" fill="#07D673"/>
<path d="M323.571 51.0929C320.239 51.234 317.049 51.0646 313.887 49.9918C312.334 49.4553 310.838 48.7495 309.426 47.8743C308.014 46.999 306.857 45.8697 305.53 44.938C304.372 44.1192 302.622 45.785 303.525 46.9426C305.727 49.8224 309.483 51.7705 312.842 52.9563C316.371 54.1985 320.296 54.7067 323.966 54.0291C325.604 53.7186 325.237 51.0082 323.571 51.0929Z" fill="#07D673"/>
<path d="M322.613 60.8895C317.616 62.1318 312.505 62.1883 307.677 60.2684C303.414 58.5744 299.941 55.5534 297.344 51.8266C296.243 50.2456 293.645 51.6855 294.69 53.3795C300.478 62.6965 312.957 67.5526 323.403 63.7129C325.154 63.0917 324.476 60.4378 322.613 60.8895Z" fill="#07D673"/>
<path d="M228.397 47.7323C226.223 49.0028 223.993 49.9909 221.48 50.358C218.911 50.7532 216.624 50.245 214.111 49.8215C212.615 49.5674 211.372 51.7132 212.982 52.4755C218.092 54.8753 225.489 53.6613 229.922 50.3297C231.418 49.2004 230.119 46.7441 228.397 47.7323Z" fill="#07D673"/>
<path d="M234.694 56.5695C231.419 58.3765 228.116 59.8446 224.417 60.5787C220.718 61.3127 217.076 61.1433 213.35 60.5787C211.486 60.2963 210.611 63.0067 212.559 63.4867C220.239 65.4066 229.725 63.769 236.219 59.167C237.771 58.0659 236.416 55.6096 234.694 56.5695Z" fill="#07D673"/>
<path d="M212.39 74.3006C210.527 75.7123 208.579 76.9828 206.348 77.7168C204.033 78.4791 201.859 78.3662 199.459 78.5638C197.906 78.705 197.426 80.9354 199.064 81.3872C201.577 82.093 204.711 81.5001 207.167 80.7096C209.764 79.8908 212.221 78.5356 214.169 76.6157C215.326 75.4864 213.745 73.256 212.39 74.3006Z" fill="#07D673"/>
<path d="M216.766 85.6787C214.055 87.5138 211.176 89.0667 208.013 90.0548C204.795 91.043 201.661 91.2124 198.329 91.41C196.805 91.523 196.24 94.0075 197.934 94.2616C205.021 95.2498 213.039 92.37 218.516 87.9938C219.843 86.9492 218.121 84.747 216.766 85.6787Z" fill="#07D673"/>
<path d="M218.517 98.9201C215.919 100.953 213.18 102.562 209.962 103.409C206.687 104.284 203.609 104.002 200.306 103.579C198.725 103.381 197.765 105.809 199.431 106.374C206.433 108.745 215.383 106.204 220.493 101.038C221.679 99.88 219.815 97.8755 218.517 98.9201Z" fill="#07D673"/>
<path d="M96.6045 111.145C91.0143 111.145 86.4688 106.599 86.4688 101.009C86.4688 95.4186 91.0143 90.873 96.6045 90.873C102.195 90.873 106.74 95.4186 106.74 101.009C106.74 106.599 102.195 111.145 96.6045 111.145ZM96.6045 95.3904C93.4988 95.3904 90.9861 97.9032 90.9861 101.009C90.9861 104.114 93.4988 106.627 96.6045 106.627C99.7102 106.627 102.223 104.114 102.223 101.009C102.223 97.9032 99.6819 95.3904 96.6045 95.3904Z" fill="#07D673"/>
<path d="M346.413 262.249C340.823 262.249 336.277 257.704 336.277 252.113C336.277 246.523 340.823 241.978 346.413 241.978C352.003 241.978 356.549 246.523 356.549 252.113C356.549 257.704 352.003 262.249 346.413 262.249ZM346.413 246.495C343.307 246.495 340.795 249.008 340.795 252.113C340.795 255.219 343.307 257.732 346.413 257.732C349.519 257.732 352.032 255.219 352.032 252.113C352.032 249.008 349.519 246.495 346.413 246.495Z" fill="#07D673"/>
<path d="M459.347 346.695C458.585 344.013 456.411 341.642 453.531 341.388C446.247 340.738 445.174 349.801 444.694 354.968C443.875 363.494 444.412 372.077 446.106 380.463C446.134 380.66 446.19 380.83 446.275 380.971C444.214 385.799 441.899 390.542 439.301 395.116C437.946 397.515 441.616 399.633 442.972 397.261C450.058 384.81 455.31 371.315 458.415 357.339C459.178 353.98 460.335 350.14 459.347 346.695Z" fill="#07D673"/>
<path d="M88.5016 409.119C82.4879 402.202 77.0953 394.862 72.5215 387.041C75.0343 378.712 75.5143 369.847 73.9614 361.264C73.1991 357.029 72.0698 352.37 69.8111 348.644C67.8913 345.482 64.2209 342.94 60.3812 344.07C52.0524 346.498 56.965 358.892 58.7154 364.172C61.3694 372.247 64.8421 380.039 69.0206 387.436C69.0206 387.436 69.6417 388.566 70.0935 389.3C74.6955 397.148 80.0881 404.687 86.3841 411.237C87.7393 412.649 89.7721 410.559 88.5016 409.119Z" fill="#07D673"/>
<path d="M212.56 299.772C208.523 274.87 204.175 249.262 191.159 227.212C188.279 222.3 184.976 217.641 181.249 213.321C177.579 209.086 173.4 204.682 168.572 201.774C164.224 199.148 158.295 198.301 154.258 202.028C149.656 206.235 152.028 212.898 155.726 216.766C160.215 221.453 166.229 225.095 172.13 227.72C177.974 230.318 184.157 231.955 190.51 232.605C193.869 238.844 196.58 245.394 198.838 252.086C192.881 246.185 183.875 243.023 175.687 244.519C170.887 245.394 165.975 249.545 167.33 254.937C168.855 260.979 176.337 261.459 181.39 261.855C188.11 262.363 194.858 261.911 201.436 260.499C201.464 260.584 201.492 260.64 201.492 260.725C205.135 273.797 207.365 287.236 209.624 300.619C209.906 302.539 212.87 301.72 212.56 299.772Z" fill="#07D673"/>
<path d="M299.29 82.8834C298.499 77.8578 297.144 72.9452 295.14 68.2867C291.667 60.2402 285.766 52.7302 277.917 48.5799C269.814 44.3166 259.509 43.6673 251.406 48.3258C243.049 53.1255 238.673 62.4142 236.753 71.5054C234.212 83.4763 233.873 96.3224 235.398 108.435C235.511 109.366 236.301 109.874 237.064 109.903C237.798 109.931 238.532 110.1 239.238 110.326C240.903 110.863 242.484 111.625 243.981 112.67C244.997 113.404 245.929 114.251 246.748 115.211C247.623 116.199 248.188 117.441 249.119 118.373C249.769 119.05 250.729 118.881 251.265 118.344C252.084 117.554 253.044 116.933 254.06 116.396C255.302 115.775 256.545 115.182 257.872 114.702C260.469 113.771 263.18 113.093 265.918 112.782C271.395 112.161 276.76 112.839 282.011 114.476C282.971 114.787 283.677 114.279 283.959 113.545C284.044 113.432 284.1 113.319 284.157 113.178C286.077 108.322 289.578 104.312 294.095 101.913C295.62 101.094 297.314 100.755 299.008 100.557C299.77 100.473 300.448 99.9363 300.476 98.9199C300.645 93.5838 300.109 88.1348 299.29 82.8834ZM249.712 65.5481C252.394 66.141 253.354 69.5008 251.547 71.5054C249.91 73.3123 246.748 72.917 245.703 70.6584C245.647 70.5172 245.59 70.3478 245.562 70.1784C245.534 70.1219 245.505 70.0372 245.477 69.9807C244.687 67.4397 247.199 64.9834 249.712 65.5481ZM240.452 91.6357C239.605 90.224 241.694 88.5301 242.767 89.8288C244.658 92.1439 247.651 92.2851 249.26 89.5747C250.277 87.8525 252.761 89.3488 251.914 91.1275C249.769 95.7296 242.993 95.9554 240.452 91.6357ZM258.549 104.736C257.222 109.62 249.91 110.665 247.284 106.374C246.381 104.905 248.385 103.522 249.571 104.595C250.559 105.47 251.576 106.204 252.987 105.978C254.427 105.752 255.105 104.736 255.782 103.578C256.658 102.082 258.973 103.098 258.549 104.736ZM275.405 95.052C274.529 101.659 265.579 103.042 262.022 97.7906C261.062 96.3789 263.292 94.6567 264.394 95.9554C265.551 97.3671 267.189 98.2988 269.052 97.9317C271 97.5365 271.932 95.9837 272.666 94.3179C273.202 93.0191 275.574 93.6403 275.405 95.052ZM276.336 67.0727C276.28 66.9315 276.223 66.7621 276.195 66.5927C276.167 66.5363 276.139 66.4516 276.11 66.3951C275.292 63.8541 277.804 61.3978 280.317 61.9625C282.999 62.5554 283.959 65.9151 282.152 67.9197C280.543 69.7266 277.353 69.3314 276.336 67.0727ZM278.821 104.764C277.296 103.607 278.567 101.433 280.317 102.195C282.435 103.127 284.044 102.082 284.439 99.9081C284.75 98.1858 287.488 98.6376 287.432 100.303C287.291 104.397 282.265 107.418 278.821 104.764ZM288.194 89.6311C286.359 90.9299 283.253 91.0146 281.672 89.2641C280.797 88.3042 281.644 86.2714 283.084 86.8643C284.157 87.316 285.23 87.8807 286.359 87.1466C287.488 86.4126 287.376 85.255 287.376 84.0974C287.347 82.6857 289.493 81.9799 290.142 83.3351C291.131 85.5091 290.114 88.2759 288.194 89.6311Z" fill="white"/>
<path d="M399.436 349.999C399.436 349.971 399.436 349.971 399.436 349.999C400.086 349.349 400.086 348.333 399.436 347.74C396.246 344.691 391.475 340.541 389.385 338.734C388.792 338.226 387.889 338.226 387.324 338.79L387.296 338.818C386.647 339.44 386.647 340.512 387.324 341.105C390.515 343.929 393.084 346.244 393.112 346.244C394.496 347.486 395.879 348.785 397.206 350.084C397.855 350.648 398.815 350.592 399.436 349.999Z" fill="white"/>
<path d="M451.498 419.565C447.122 411.942 441.447 405.223 435.857 398.503C430.153 391.643 424.083 385.205 417.787 378.909C417.448 378.57 417.11 378.232 416.771 377.893C416.122 377.244 415.02 377.328 414.484 378.091L414.456 378.119C413.976 378.74 414.061 379.587 414.597 380.152C425.382 390.654 435.348 402.004 444.27 414.201C449.042 420.723 453.22 428.007 454.095 436.195C454.942 444.044 451.413 451.638 446.726 457.567C436.28 470.809 417.081 474.959 402.4 477.557C384.783 480.662 371.061 482.836 354.121 485.829C352.032 486.196 349.463 486.563 347.091 487.071C345.171 487.495 345.595 490.318 347.345 490.064C353.641 489.217 359.57 488.003 365.781 487.043C365.781 487.071 365.781 487.071 365.781 487.099C366.741 486.958 367.673 486.789 368.633 486.619C368.633 486.591 368.633 486.591 368.605 486.563C379.192 484.671 386.364 483.598 397.488 481.65C413.609 478.799 432.723 475.806 445.512 463.496C451.159 458.076 455.733 451.017 456.947 443.084C458.217 434.698 455.648 426.765 451.498 419.565Z" fill="white"/>
<path d="M353.5 406.861C353.951 407.369 354.798 408.273 355.476 409.035C356.153 409.797 357.452 409.6 357.819 408.64C357.876 408.499 357.904 408.329 357.932 408.132C358.017 407.482 357.763 406.833 357.339 406.353C356.464 405.393 355.589 404.433 354.714 403.473C354.629 400.255 356.831 395.229 358.638 392.406C358.836 392.095 358.92 391.728 358.892 391.361V391.305C358.779 389.724 356.69 389.215 355.843 390.571C353.471 394.354 350.987 400.509 351.721 404.913C352.088 405.591 352.794 406.24 353.5 406.861Z" fill="white"/>
<path d="M366.853 416.77C365.949 415.782 365.046 414.822 364.142 413.834C363.606 413.241 362.618 413.495 362.448 414.286C362.363 414.681 362.251 415.076 362.166 415.471C362.053 415.923 362.166 416.375 362.476 416.714C363.211 417.504 363.973 418.323 364.707 419.114C365.441 419.904 366.796 419.593 367.078 418.521C367.107 418.379 367.163 418.238 367.191 418.097C367.304 417.617 367.191 417.109 366.853 416.77Z" fill="white"/>
<path d="M398.955 433.428C393.901 433.343 388.706 433.823 383.652 434.416C383.596 434.331 383.539 434.247 383.455 434.19C380.095 430.689 376.735 427.217 373.404 423.716C372.867 423.151 371.936 423.349 371.681 424.054V424.083C371.314 425.014 371.512 426.031 372.19 426.765C374.053 428.798 377.61 432.637 379.897 435.009C374.561 435.941 369.366 437.211 364.2 438.792C363.183 439.103 361.517 439.639 361.179 439.809C360.614 440.006 359.936 440.232 359.343 440.458C353.104 442.801 346.441 445.822 340.851 449.041C335.345 452.203 331.759 453.812 326.875 458.047C321.341 462.819 316.231 469.792 317.417 477.726C317.699 479.618 320.381 479.279 320.268 477.359C319.873 470.385 323.967 464.513 328.936 460.391C333.651 456.466 336.616 455.026 342.008 451.977C352.906 445.822 365.329 440.994 377.836 438.623C384.923 437.268 392.151 436.703 399.322 436.308C401.27 436.167 400.79 433.456 398.955 433.428Z" fill="white"/>
<path d="M151.997 338.819C152.618 339.27 153.465 339.242 154.03 338.734C156.373 336.701 158.66 334.81 160.213 333.624C161.681 332.494 163.177 331.45 164.702 330.433C165.69 329.784 165.718 328.316 164.73 327.666C164.73 327.666 164.702 327.666 164.702 327.638C164.137 327.243 163.375 327.243 162.81 327.638C158.942 330.264 155.3 333.144 151.828 336.306C151.094 336.983 151.15 338.169 151.997 338.819C151.997 338.79 151.997 338.79 151.997 338.819Z" fill="white"/>
<path d="M190.254 488.286C187.882 487.778 185.313 487.411 183.224 487.044C171.705 485.011 161.653 483.373 150.868 481.538C151.433 479.195 151.969 476.851 152.732 474.536C153.183 473.209 153.663 471.911 154.228 470.612C154.736 469.398 155.47 468.24 155.837 466.97C155.95 466.603 155.866 466.236 155.696 465.925C155.724 465.925 155.724 465.925 155.753 465.925C158.209 466.377 161.964 465.389 161.766 462.198C161.653 460.758 159.451 459.77 158.717 461.38C157.87 463.271 156.007 462.424 154.397 461.972C152.647 461.464 150.897 460.9 149.174 460.278C147.424 459.657 145.673 459.008 143.979 458.217C143.528 457.992 139.998 456.58 140.789 455.931C142.116 454.858 140.394 452.599 138.954 453.559C136.836 454.942 137.26 457.681 139.067 459.149C139.264 459.319 139.49 459.46 139.716 459.601C137.655 462.34 136.131 465.558 134.945 468.748C133.787 471.798 132.912 475.073 132.601 478.348C118.287 475.722 100.556 471.318 90.6748 458.782C85.9881 452.853 82.4589 445.23 83.3059 437.409C84.1812 429.222 88.3597 421.938 93.1311 415.416C99.4554 406.776 106.288 398.589 113.572 390.796C114.334 389.977 113.939 388.622 112.866 388.312H112.838C112.302 388.171 111.709 388.312 111.313 388.735C107.982 392.321 104.707 395.963 101.573 399.746C95.9827 406.466 90.3078 413.185 85.9316 420.808C81.7813 428.036 79.2121 435.941 80.4826 444.327C81.6966 452.232 86.2704 459.319 91.9171 464.739C104.735 477.049 123.849 480.042 139.942 482.893C151.038 484.87 158.237 485.914 168.825 487.806C169.051 487.862 171.309 488.229 171.676 488.286C177.888 489.246 183.817 490.46 190.113 491.307C191.75 491.533 192.174 488.709 190.254 488.286ZM147.791 481.002C143.866 480.324 139.857 479.647 135.594 478.884C136.131 475.779 136.752 472.758 137.853 469.793C139.039 466.659 140.704 463.864 142.483 461.041C142.596 461.097 142.709 461.154 142.822 461.21C144.205 461.888 145.617 462.509 147.029 463.13C149.061 464.005 151.235 464.824 153.438 465.445C153.409 465.473 153.381 465.502 153.353 465.53C151.631 467.732 150.671 470.838 149.767 473.463C148.948 475.92 148.214 478.433 147.791 481.002Z" fill="white"/>
<path d="M166.962 423.773C167.583 424.507 168.684 424.535 169.334 423.829C172.27 420.724 175.178 417.618 178.03 414.456C178.199 414.286 178.397 414.061 178.622 413.835C178.848 413.609 178.961 413.298 178.961 412.988C178.961 412.705 178.99 412.423 178.99 412.141C179.046 410.898 177.55 410.277 176.703 411.181L176.674 411.209C173.484 414.738 170.237 418.211 166.962 421.684C166.454 422.248 166.426 423.152 166.962 423.773Z" fill="white"/>
<path d="M210.469 459.233C205.585 455.027 201.999 453.417 196.494 450.227C190.903 447.008 184.24 443.987 178.001 441.644C177.408 441.418 176.758 441.192 176.166 440.995C175.827 440.853 173.85 440.176 173.286 440.035L172.608 439.837C167.611 438.341 162.585 437.127 157.447 436.223C158.802 434.84 160.129 433.428 161.484 432.045C161.964 431.565 162.049 430.831 161.738 430.209C161.738 430.209 161.738 430.181 161.71 430.181C161.202 429.249 159.931 429.08 159.197 429.842C157.419 431.706 155.64 433.541 153.833 435.404C153.748 435.489 153.692 435.546 153.635 435.63C148.582 435.037 143.358 434.557 138.333 434.642C136.498 434.67 136.046 437.381 137.966 437.494C143.556 437.804 149.203 438.228 154.793 439.018C154.228 439.526 153.72 440.063 153.353 440.656C152.619 441.813 154.144 443.536 155.329 442.632C156.148 442.039 156.826 441.305 157.701 440.769C158.294 440.402 158.943 440.091 159.593 439.809C162.811 440.43 166.03 441.22 169.22 442.124C168.091 442.858 167.074 443.874 166.51 444.975C165.747 446.444 167.526 447.827 168.768 446.726C169.361 446.218 169.841 445.597 170.434 445.088C170.999 444.608 171.62 444.241 172.241 443.846C172.467 443.677 172.665 443.479 172.806 443.225C180.683 445.794 188.306 449.182 195.279 453.135C200.672 456.184 203.637 457.596 208.352 461.548C213.321 465.699 217.414 471.571 217.019 478.517C216.906 480.437 219.588 480.775 219.871 478.884C221.113 470.978 216.031 464.005 210.469 459.233Z" fill="white"/>
<path d="M139.661 367.023C149.175 369.819 158.295 374.477 166.031 380.745C169.87 383.85 173.371 387.38 176.42 391.276C176.562 391.473 176.731 391.671 176.872 391.869C177.804 393.083 179.724 392.405 179.696 390.881C179.667 390.316 179.47 389.751 179.131 389.3C178.651 388.707 178.171 388.114 177.691 387.521C170.153 378.373 160.356 371.23 149.458 366.6C146.719 365.442 143.924 364.398 141.072 363.551C140.903 363.494 140.705 363.438 140.508 363.381C140.423 363.353 140.31 363.325 140.225 363.297C137.289 362.421 134.212 361.631 131.191 362.111C130.682 362.196 130.203 362.308 129.694 362.45C129.666 362.45 129.666 362.45 129.666 362.421C130.174 361.744 130.739 361.066 131.275 360.473C132.998 358.525 134.776 356.634 136.583 354.77C137.063 354.29 137.176 353.528 136.866 352.935V352.907C136.386 351.947 135.087 351.721 134.325 352.511C131.897 355.024 129.384 357.565 127.238 360.36C126.589 361.207 126.024 362.111 125.572 363.071C125.572 363.071 125.572 363.071 125.572 363.099C127.266 366.6 129.384 369.903 131.897 372.896H131.925C133.195 371.964 134.438 370.948 135.708 370.016C137.007 368.972 138.362 368.04 139.661 367.023C139.632 367.023 139.632 367.023 139.661 367.023Z" fill="white"/>
<path d="M398.108 365.471C388.594 368.266 380.688 370.44 372.952 376.707C371.851 377.611 370.327 379.107 367.277 382.975C367.136 383.173 366.967 383.371 366.826 383.568C365.894 384.782 363.974 384.105 364.002 382.58C364.03 382.015 364.228 381.451 364.567 380.999C365.047 380.406 365.527 379.813 366.007 379.22C373.545 370.073 377.413 369.649 388.283 365.019C391.022 363.861 393.817 362.817 396.668 361.97C396.838 361.913 397.035 361.857 397.233 361.8C397.318 361.772 397.431 361.744 397.515 361.716C400.452 360.84 403.529 360.05 406.55 360.53C407.058 360.614 407.538 360.727 408.046 360.869C408.074 360.869 408.075 360.869 408.075 360.84C407.566 360.163 407.002 359.485 406.465 358.892C404.743 356.944 402.964 355.052 401.157 353.189C400.677 352.709 400.564 351.947 400.875 351.354V351.326C401.355 350.366 402.654 350.14 403.416 350.93C405.844 353.443 408.357 355.984 410.503 358.779C411.152 359.626 411.717 360.53 412.168 361.49C412.168 361.49 412.168 361.49 412.168 361.518C410.474 365.019 408.357 368.322 405.844 371.315H405.816C404.545 370.383 403.303 369.367 402.033 368.435C400.762 367.447 399.379 366.515 398.108 365.471Z" fill="white"/>
<path d="M294.322 206.799C293.136 204.766 290.171 204.908 289.014 206.884C288.986 206.912 288.986 206.969 288.957 206.997C288.844 207.082 288.76 207.194 288.675 207.307C288.026 208.352 288.393 209.707 289.155 210.582C289.889 211.458 291.018 211.825 292.148 211.599C294.378 211.175 295.451 208.691 294.322 206.799Z" fill="white"/>
<path d="M250.673 208.437C250.617 207.166 249.77 206.094 248.612 205.614C247.285 205.077 245.789 205.444 244.885 206.545C244.038 207.562 243.897 209.002 244.462 210.074C244.518 210.357 244.631 210.611 244.885 210.865C246.41 212.503 249.036 212.079 250.08 210.413C250.476 209.82 250.701 209.143 250.673 208.437Z" fill="white"/>
<path d="M275.745 228.906C273.458 229.894 271.03 230.317 269.223 228.143C267.388 225.941 268.094 222.44 268.263 219.843C268.687 213.236 269.308 206.63 269.477 200.023C269.534 198.047 266.654 198.131 266.456 200.023C266.033 204.117 265.835 208.211 265.581 212.304C265.327 216.229 264.819 220.21 264.847 224.162C264.875 227.353 266.061 230.402 268.941 232.068C271.538 233.564 275.406 233.536 277.58 231.305C278.879 229.978 277.241 228.228 275.745 228.906Z" fill="white"/>
<path d="M289.495 239.804C281.957 237.827 273.148 241.921 271.031 249.77C270.607 251.351 273.092 252.537 273.769 250.928C274.955 248.104 276.536 245.676 279.218 244.095C282.07 242.401 285.458 242.034 288.648 242.881C290.625 243.389 291.472 240.34 289.495 239.804Z" fill="white"/>
<path d="M297.372 191.017C296.215 189.69 294.718 188.617 293.109 187.911C290.879 186.923 284.809 185.427 284.724 189.549C284.696 190.537 285.147 191.243 285.769 191.808C285.881 192.005 286.023 192.175 286.249 192.316C287.943 193.502 289.919 194.377 291.895 194.885C293.392 195.28 295.678 195.873 297.203 195.309C299.405 194.462 298.502 192.288 297.372 191.017Z" fill="white"/>
<path d="M251.239 188.561C249.799 184.636 243.955 187.77 241.725 190.001C240.313 191.045 238.647 192.429 238.958 194.179C239.268 196.043 241.245 196.325 242.769 195.958C244.858 195.421 246.948 194.32 248.726 193.135C250.223 192.118 252.001 190.594 251.239 188.561Z" fill="white"/>
<path d="M338.735 463.751C329.982 467.026 323.404 476.964 324.138 486.338C324.279 488.201 327.018 488.229 327.074 486.31C327.357 477.529 332.043 470.358 339.892 466.462C341.417 465.727 340.344 463.158 338.735 463.751Z" fill="white"/>
<path d="M351.523 471.882C346.808 473.266 342.488 475.863 338.846 479.138C335.684 481.99 330.913 486.761 332.522 491.476C333.143 493.311 335.769 492.549 335.402 490.657C334.978 488.568 336.192 486.705 337.463 485.123C338.733 483.514 340.201 482.046 341.782 480.719C344.916 478.065 348.53 476.174 352.342 474.734C354.092 474.112 353.386 471.346 351.523 471.882Z" fill="white"/>
<path d="M302.593 295.649C300.56 296.891 298.668 298.331 296.579 299.517C294.546 300.675 292.457 301.691 290.283 302.538C285.907 304.26 281.277 305.446 276.618 305.926C267.471 306.858 258.154 305.333 249.825 301.465C245.025 299.235 240.79 296.298 236.781 292.91C235.285 291.64 233.167 293.673 234.607 295.084C248.808 308.975 271.169 312.956 289.634 306.321C294.8 304.458 300.447 301.889 304.513 298.105C305.811 296.891 304.117 294.717 302.593 295.649Z" fill="white"/>
<path d="M359.202 317.672C341.105 309.117 322.527 303.103 307.592 290.173C300.054 283.651 295.367 275.463 293.955 265.638C299.235 261.036 303.357 255.756 306.66 249.658C309.145 245.112 310.839 240.425 312.533 235.541C318.066 236.416 322.33 233.734 323.826 228.313C327.75 226.845 330.659 224.107 332.437 220.38C334.555 215.947 335.345 211.458 335.938 206.687C336.305 203.807 336.22 201.04 336.108 198.16C340.314 193.982 341.754 188.42 340.343 182.66C339.157 177.747 335.91 174.642 331.76 172.101C333.115 168.43 333.821 164.619 332.889 160.751C331.618 155.471 328.597 151.519 323.967 148.893C322.979 148.328 322.301 148.921 321.821 149.627C297.202 157.928 271.227 159.932 245.507 156.008C238.392 154.907 231.672 152.93 224.671 151.095C224.219 150.559 223.767 150.276 223.033 150.53C212.813 153.947 205.613 163.038 205.754 174.021C203.467 174.755 201.293 175.94 199.91 177.917C197.651 181.135 196.917 184.608 197.397 188.448C198.301 195.647 202.027 201.605 207.702 206.009C206.996 208.889 206.517 211.882 206.742 214.846C207.081 219.194 208.069 222.977 210.384 226.676C212.333 229.753 214.987 231.701 218.431 232.718C219.25 235.71 219.701 238.28 222.412 240.284C224.416 241.781 227.663 242.43 229.978 241.018C233.169 249.291 237.15 257.027 243.276 263.549C242.599 273.543 238.477 282.521 231.531 289.721C221.283 299.913 208.069 305.955 194.828 311.602C194.404 311.799 194.066 312.166 193.953 312.618V312.646C193.642 313.86 194.884 314.877 196.014 314.369C201.66 311.856 207.307 309.315 212.728 306.491C223.146 301.099 229.894 296.638 235.315 290.314C241.244 283.594 245.253 275.322 246.241 266.315C249.375 268.687 252.255 270.917 255.953 272.499C265.609 276.621 275.886 275.971 285.316 271.426C287.377 270.438 289.24 269.195 291.104 267.896C293.503 285.938 309.484 297.485 324.504 305.277C338.649 312.618 354.064 318.011 367.842 326.227C368.011 324.984 368.181 323.742 368.265 322.5C365.386 320.777 362.336 319.168 359.202 317.672ZM317.332 214.733C317.474 214.677 317.615 214.62 317.756 214.507C321.821 211.232 325.238 207.562 328.089 203.157C329.388 201.125 330.376 198.951 331.364 196.777C331.76 197.2 332.155 197.595 332.635 197.934C332.804 204.146 332.522 210.131 330.517 216.117C329.36 219.505 327.609 222.61 324.25 224.445C321.426 225.97 318.151 225.546 315.977 223.062C315.921 223.005 315.864 222.921 315.808 222.864C316.344 220.154 316.852 217.444 317.332 214.733ZM309.653 186.867C309.681 188.053 309.681 189.238 309.653 190.396C309.596 192.316 306.801 192.288 306.688 190.396C306.632 189.21 306.604 188.053 306.604 186.867C306.604 184.89 309.625 184.919 309.653 186.867ZM297.202 174.105C299.15 177.296 302.228 179.357 305.841 180.26C307.733 180.74 306.914 183.479 305.051 183.168C300.646 182.378 296.835 179.47 294.576 175.658C293.588 173.964 296.186 172.44 297.202 174.105ZM229.075 181.39C232.237 180.684 235.173 179.667 237.771 177.634C240.312 175.63 242.147 173.004 243.502 170.096C244.208 168.572 246.749 169.673 246.184 171.226C243.756 178.086 236.811 183.761 229.47 184.298C227.804 184.411 227.466 181.728 229.075 181.39ZM225.376 226.873C223.682 228.963 221.424 230.007 218.77 229.302C215.636 228.455 213.688 226.111 212.248 223.401C210.61 220.267 210.017 216.907 209.933 213.463C209.876 210.837 210.582 208.606 211.203 206.15C211.457 206.489 211.655 206.771 211.937 207.11C213.772 209.312 215.834 211.147 218.431 212.418C218.657 213.039 218.826 213.604 219.109 214.225C220.294 216.879 221.763 219.166 224.134 220.944C224.614 222.836 225.094 224.728 225.602 226.619C225.518 226.676 225.461 226.761 225.376 226.873ZM287.772 266.315C279.556 271.736 269.674 273.713 260.16 270.72C254.852 269.054 250.504 265.61 246.354 261.996C245.874 261.572 245.479 261.205 245.111 260.697C243.079 258.41 241.102 256.038 239.493 253.469C233.112 243.249 230.12 231.617 227.07 220.069C227.07 220.041 227.042 219.985 227.042 219.956C227.014 219.73 226.957 219.533 226.816 219.335C225.998 218.291 224.953 217.472 224.106 216.399C223.287 215.354 222.581 214.14 222.073 212.926C221.565 211.712 221.254 210.526 221.057 209.256C220.972 208.663 220.972 208.127 220.944 207.534C224.049 204.964 226.308 202.028 227.946 198.301C229.018 195.817 229.611 193.135 229.922 190.452C237.743 190.029 244.377 185.06 247.427 177.889C252.142 178.82 256.659 178.143 260.922 176.025C263.915 174.557 265.976 172.44 268.037 169.955C269.59 172.27 271.51 174.049 274.361 174.557C278.935 175.376 282.944 174.077 287.01 171.988C288.111 176.279 289.89 179.808 293.475 182.604C296.581 185.032 300.195 185.992 304.091 186.246C304.43 195.704 308.157 204.456 314.904 211.091C314.791 211.289 314.735 211.458 314.678 211.684C310.923 231.955 306.124 254.203 287.772 266.315Z" fill="white"/>
<path d="M349.914 74.4983C346.837 67.1294 339.75 62.1603 331.562 63.6002C327.214 64.3625 323.346 67.1576 321.059 70.9409C320.043 72.6349 322.612 74.103 323.685 72.4655C326.085 68.7951 330.122 66.4518 334.555 66.5082C338.903 66.5647 342.799 68.8798 345.171 72.4655C347.486 75.9664 348.474 80.1449 348.474 84.3235C348.502 89.716 346.921 94.7416 345.905 99.9647C345.538 101.969 348.333 102.76 348.954 100.812C351.664 92.6241 353.358 82.7424 349.914 74.4983Z" fill="white"/>
<path d="M329.388 61.0302C328.174 52.052 324.25 40.5045 313.832 39.1776C303.47 37.8506 296.016 46.3771 290.624 53.9436C289.466 55.5811 292.12 57.0775 293.278 55.4964C297.993 49.1157 304.289 41.4362 313.182 42.3115C317.163 42.7067 320.297 45.3889 322.273 48.7204C324.617 52.6449 325.125 57.1057 326.198 61.4537C326.65 63.2041 329.642 62.8936 329.388 61.0302Z" fill="white"/>
<path d="M239.718 53.1253C237.374 48.8903 234.579 44.5989 230.514 41.832C226.702 39.2345 222.015 38.5287 217.724 40.3639C208.463 44.3165 206.148 55.751 208.322 64.701C208.718 66.3103 211.456 65.9997 211.259 64.3057C210.75 60.0143 210.355 55.8075 211.71 51.6007C212.84 48.0716 215.352 44.9377 218.769 43.3566C222.326 41.7473 226.137 42.5661 229.243 44.853C232.688 47.3657 234.692 51.2055 236.894 54.7346C237.995 56.5416 240.734 54.9605 239.718 53.1253Z" fill="white"/>
<path d="M215.411 70.686C212.87 67.8345 208.41 67.1569 204.824 67.9192C201.041 68.738 197.879 71.3637 195.761 74.5258C190.453 82.4311 192.062 93.0469 193.022 101.94C193.22 103.888 196.185 104.001 196.128 101.94C195.959 93.9221 193.615 85.3109 197.512 77.7726C198.98 74.9211 201.351 72.3518 204.457 71.279C207.788 70.1496 210.838 70.9684 213.605 72.973C215.044 73.9894 216.456 71.8436 215.411 70.686Z" fill="white"/>
<path d="M256.659 42.8202C254.993 40.2792 252.085 37.9076 249.431 36.4959C248.02 35.7618 246.298 37.6817 247.653 38.811C248.782 39.7427 249.996 40.618 251.097 41.5779C252.227 42.5378 253.186 43.6672 254.344 44.5989C255.53 45.587 257.647 44.3448 256.659 42.8202Z" fill="white"/>
<path d="M260.444 34.9994C259.428 37.371 258.778 40.0814 259.202 42.6788C259.512 44.4293 261.856 43.7517 262.053 42.2836C262.336 40.1661 262.477 38.1897 263.098 36.1287C263.606 34.5759 261.093 33.4465 260.444 34.9994Z" fill="white"/>
<path d="M281.138 64.9552C280.997 64.4188 280.574 64.0235 280.065 63.8824C280.065 63.8824 280.065 63.8824 280.037 63.8824C279.981 63.8541 279.896 63.8259 279.811 63.7977C279.67 63.7694 279.529 63.7694 279.416 63.7412C279.134 63.7412 278.88 63.8259 278.654 63.9388C278.654 63.9388 278.625 63.9388 278.625 63.9671C278.597 63.9953 278.343 64.1929 278.315 64.2212L278.287 64.2494C278.202 64.3623 278.117 64.447 278.032 64.56C277.863 64.8423 277.807 65.0964 277.807 65.4352C277.807 65.5764 277.835 65.7458 277.863 65.8869V65.9152C277.863 65.9152 277.863 65.9152 277.863 65.9434L278.032 66.3104C278.089 66.4516 278.202 66.5645 278.287 66.6775C278.287 66.6775 278.287 66.6775 278.315 66.7057C278.371 66.7622 278.428 66.7904 278.484 66.8186C278.541 66.8751 278.597 66.9033 278.654 66.9598H278.682L279.049 67.1292C279.049 67.1292 279.049 67.1292 279.077 67.1292C279.162 67.1574 279.218 67.1574 279.303 67.1574C279.388 67.1574 279.444 67.1857 279.529 67.1857H279.557C279.726 67.1857 279.868 67.1574 280.009 67.1292C280.348 67.0163 280.348 66.988 280.573 66.8186C280.658 66.7622 280.715 66.7057 280.771 66.6492C280.856 66.5363 280.941 66.4516 281.025 66.3387C281.025 66.3387 281.025 66.3387 281.025 66.3104C281.053 66.254 281.11 66.1128 281.11 66.1128C281.138 66.0563 281.166 65.9716 281.195 65.8869C281.195 65.8869 281.195 65.8869 281.195 65.8587C281.223 65.7175 281.223 65.5764 281.251 65.4352C281.195 65.2658 281.166 65.1246 281.138 64.9552Z" fill="white"/>
<path d="M250.645 68.456C250.617 68.2866 250.532 68.1454 250.476 68.0325C250.447 67.976 250.391 67.9195 250.334 67.8631C250.306 67.8066 250.25 67.7501 250.221 67.6937L250.193 67.6654C250.137 67.609 250.08 67.5807 250.024 67.5243C249.967 67.4678 249.911 67.4396 249.854 67.4113C249.854 67.4113 249.826 67.4113 249.826 67.3831C249.685 67.2984 249.544 67.2419 249.403 67.2137C249.262 67.1855 249.092 67.1572 248.923 67.1572C248.81 67.1572 248.612 67.1855 248.499 67.2137C248.358 67.2419 248.33 67.2419 248.104 67.3831C248.019 67.4396 247.85 67.5525 247.765 67.6372C247.568 67.8348 247.539 67.9195 247.455 68.1454C247.342 68.4277 247.342 68.3995 247.313 68.7665C247.313 68.823 247.313 68.8512 247.313 68.9077C247.285 69.1053 247.285 69.2747 247.342 69.4724C247.398 69.5853 247.455 69.7265 247.483 69.8394C247.624 70.0653 247.793 70.2629 248.048 70.4041C248.16 70.4888 248.33 70.5452 248.471 70.5735C248.556 70.6017 248.64 70.6017 248.697 70.6017C248.782 70.6017 248.866 70.6299 248.923 70.6299C249.064 70.6299 249.233 70.6017 249.403 70.5735C249.516 70.5452 249.685 70.4605 249.798 70.4041C249.826 70.4041 249.826 70.4041 249.826 70.3758C249.911 70.3194 250.08 70.2064 250.137 70.1217L250.165 70.0935C250.165 70.0935 250.165 70.0935 250.193 70.0653C250.278 69.9523 250.363 69.8676 250.447 69.7547C250.447 69.7547 250.447 69.7265 250.476 69.7265C250.645 69.4441 250.645 69.3877 250.673 69.1053C250.701 68.9924 250.701 68.9642 250.701 68.8795C250.673 68.7383 250.673 68.5971 250.645 68.456Z" fill="white"/>
<path d="M317.755 84.6899C315.892 85.7063 313.605 86.0734 311.601 85.791C309.85 85.5652 310.415 82.9112 311.996 82.8548C313.577 82.7983 314.763 82.516 316.033 81.9795C318.49 80.3985 319.986 77.2081 319.224 74.2154C318.772 72.4367 317.643 71.0532 316.231 70.1498C315.017 71.872 313.351 73.3119 311.459 74.1024C309.822 74.78 309.031 72.2673 310.33 71.392C312.391 70.0086 313.831 68.4275 314.706 66.2536C315.045 64.5031 314.763 62.6679 313.662 61.1151C311.657 58.32 308.043 58.2071 304.966 58.9129C301.691 59.6752 298.642 61.5104 296.439 64.0514C295.79 64.4184 295.395 65.2089 295.875 66.0842C298.331 70.6862 299.997 75.4012 300.928 80.5396C301.408 83.25 301.691 85.9604 301.917 88.6991C302.142 91.5224 302.03 94.4304 302.481 97.2538C302.538 97.5926 302.679 97.8467 302.848 98.0161C303.018 98.3831 303.328 98.6654 303.808 98.7219C306.914 99.1736 309.991 99.1454 313.012 98.2137C315.61 97.3949 318.574 96.1244 319.817 93.527C321.341 90.2237 320.071 87.0615 317.755 84.6899Z" fill="white"/>
<path d="M233.001 90.1951C233.029 89.461 233.029 88.6987 233.057 87.9647C233.029 86.6095 233.142 85.226 233.226 83.8708C233.255 83.5603 233.283 83.2497 233.311 82.9391C233.565 79.2688 233.96 75.5702 234.723 71.9846C232.238 70.0083 229.133 68.7378 225.942 68.5119C222.808 68.2578 219.223 68.9072 217.67 71.9846C216.315 74.6385 217.077 77.7442 219.025 79.8617C218.997 79.8617 218.969 79.8899 218.94 79.8899C219.674 80.3417 220.437 80.4546 221.34 80.5958C222.78 80.7934 222.752 83.2215 221.34 83.4756C219.561 83.7861 217.642 83.0521 216.428 81.7251C216.371 81.6404 216.315 81.5839 216.258 81.4992C215.101 82.5721 214.31 84.0402 214.141 85.7625C213.802 89.2069 216.258 92.482 219.449 93.329C220.041 93.1596 220.606 92.962 221.227 92.6796C221.933 92.3408 222.695 92.4538 223.175 93.0749C223.599 93.6113 223.655 94.5995 223.062 95.0512C221.368 96.3782 219.053 96.9711 216.936 96.6041C216.879 96.6041 216.823 96.5758 216.766 96.5476C215.129 99.1168 214.592 102.166 216.484 104.961C218.093 107.361 221.199 108.18 223.909 108.603C227.043 109.083 230.064 108.66 233.085 107.756C233.368 107.672 233.593 107.53 233.735 107.333C232.831 101.658 232.859 95.7853 233.001 90.1951Z" fill="white"/>
<path d="M239.493 423.377C237.997 423.151 236.472 422.953 234.976 422.784C234.778 419.029 234.553 415.246 234.298 411.491C234.157 409.543 231.136 409.486 231.221 411.491C231.362 415.161 231.56 418.831 231.757 422.502C224.191 421.993 216.624 422.445 209.143 423.857C208.973 402.992 208.973 407.51 208.578 386.645C208.55 384.669 205.5 384.669 205.5 386.645C205.444 408.159 205.783 404.291 205.952 425.805C205.952 426.878 206.969 427.555 207.985 427.358C215.834 425.692 223.937 425.212 231.955 425.918C232.068 428.007 232.181 430.096 232.294 432.186C232.463 435.545 232.661 438.905 232.83 442.265C233.028 445.738 232.943 449.323 233.48 452.74C233.762 454.575 236.501 454.01 236.557 452.316C236.698 449.013 236.247 445.568 236.049 442.265C235.851 438.821 235.654 435.376 235.456 431.932C235.343 430.04 235.258 428.177 235.145 426.285C236.275 426.426 237.404 426.596 238.533 426.793C240.792 427.188 241.724 423.744 239.493 423.377Z" fill="white"/>
<path d="M328.515 411.942C327.018 411.716 325.494 411.519 323.998 411.349C323.8 407.594 323.574 403.811 323.32 400.056C323.179 398.108 320.158 398.052 320.242 400.056C320.384 403.726 320.581 407.397 320.779 411.067C313.212 410.559 305.646 411.011 298.164 412.422C297.995 391.558 297.995 396.075 297.599 375.211C297.571 373.234 294.522 373.234 294.522 375.211C294.465 396.725 294.804 392.857 294.974 414.37C294.974 415.443 295.99 416.121 297.006 415.923C304.855 414.257 312.958 413.778 320.977 414.483C321.089 416.573 321.202 418.662 321.315 420.751C321.485 424.111 321.682 427.471 321.852 430.83C322.049 434.303 321.965 437.889 322.501 441.305C322.783 443.14 325.522 442.576 325.579 440.882C325.72 437.578 325.268 434.134 325.07 430.83C324.873 427.386 324.675 423.942 324.477 420.497C324.365 418.605 324.28 416.742 324.167 414.85C325.296 414.992 326.426 415.161 327.555 415.359C329.785 415.726 330.717 412.281 328.515 411.942Z" fill="white"/>
<path d="M280.516 399.605C271.622 394.466 259.821 395.652 252.621 403.162C244.97 411.124 245.478 424.676 251.746 432.61C258.014 440.543 264.394 443.762 272.554 442.774C282.52 441.56 290.68 433.88 292.232 423.914C293.757 414.145 289.07 404.517 280.516 399.605ZM275.264 438.99C267.133 441.334 259.454 437.72 254.484 431.254C254.428 431.142 253.383 430.153 252.056 427.471C248.697 421.175 248.838 413.524 253.157 407.454C258.437 400.057 268.488 397.657 276.732 401.214C284.355 404.489 289.55 412.056 289.409 420.413C289.24 429.024 283.593 436.619 275.264 438.99Z" fill="white"/>
<path d="M198.556 464.965C207.308 468.24 213.886 478.178 213.152 487.552C213.011 489.415 210.272 489.443 210.216 487.523C209.934 478.743 205.247 471.572 197.398 467.675C195.902 466.941 196.975 464.372 198.556 464.965Z" fill="white"/>
<path d="M185.794 473.096C190.509 474.479 194.829 477.077 198.471 480.352C201.633 483.203 206.404 487.975 204.795 492.69C204.174 494.525 201.548 493.763 201.915 491.871C202.339 489.782 201.125 487.918 199.854 486.337C198.584 484.728 197.116 483.26 195.535 481.933C192.401 479.279 188.787 477.387 184.975 475.947C183.225 475.326 183.931 472.56 185.794 473.096Z" fill="white"/>
<path d="M154.454 455.253C151.772 454.886 149.259 454.236 146.634 453.644C145.109 453.305 143.98 455.507 145.533 456.297C148.102 457.568 151.208 458.161 154.059 458.189C155.697 458.217 156.177 455.479 154.454 455.253Z" fill="white"/>
<path d="M476.821 190.847C473.094 191.299 469.395 192.174 465.725 192.965C464.765 193.162 463.805 193.388 462.845 193.586C462.591 192.231 462.365 190.875 462.111 189.492C461.631 186.725 461.151 183.958 460.671 181.22C461.151 181.135 461.631 181.05 462.111 180.965C463.975 180.627 465.866 180.316 467.73 180.034C469.678 179.751 471.711 179.61 473.602 179.13C475.212 178.707 474.873 176.222 473.207 176.222C469.537 176.25 465.669 177.182 462.055 177.803C461.405 177.916 460.756 178.029 460.107 178.142C459.627 175.46 459.119 172.778 458.526 170.096C458.102 168.176 455.392 169.051 455.646 170.886C456.013 173.512 456.436 176.138 456.888 178.735C454.771 179.158 452.681 179.582 450.592 180.062C447.769 180.683 444.945 181.361 442.122 182.067C441.755 177.86 441.388 173.653 441.021 169.418C440.852 167.47 437.774 167.442 437.944 169.418C438.311 173.907 438.706 178.368 439.073 182.857C435.459 183.845 431.902 184.918 428.401 186.16C426.594 186.81 427.3 189.633 429.191 189.068C432.579 188.08 435.939 187.092 439.327 186.132C439.468 187.883 439.638 189.633 439.779 191.412C440.005 194.066 440.23 196.748 440.456 199.402C437.802 200.164 435.148 200.955 432.636 201.999C430.942 202.705 431.506 205.274 433.426 204.823C435.882 204.23 438.311 203.467 440.739 202.677L441.19 207.844C441.332 209.622 441.36 211.514 441.783 213.264C442.179 214.958 444.635 214.507 444.72 212.869C444.804 211.034 444.494 209.142 444.324 207.307C444.183 205.557 444.014 203.778 443.873 202.027C443.873 201.943 443.844 201.858 443.844 201.745C444.014 201.689 444.211 201.632 444.381 201.576C447.938 200.559 451.552 199.571 455.138 198.668C456.832 198.244 458.554 197.821 460.276 197.425C460.389 198.131 460.53 198.809 460.643 199.515C461.208 202.733 461.631 206.037 462.422 209.227C462.845 210.865 465.612 210.582 465.443 208.832C465.104 205.613 464.37 202.423 463.805 199.232C463.664 198.414 463.495 197.567 463.354 196.748C464.229 196.55 465.104 196.353 465.979 196.155C469.706 195.364 473.489 194.8 477.16 193.896C478.854 193.473 478.571 190.621 476.821 190.847ZM454.601 195.562C450.987 196.466 447.402 197.454 443.844 198.47C443.76 198.498 443.675 198.527 443.59 198.527C443.364 196.07 443.167 193.586 442.941 191.129C442.771 189.181 442.602 187.233 442.433 185.285C445.341 184.495 448.249 183.761 451.213 183.111C453.302 182.631 455.392 182.208 457.509 181.784C458.017 184.523 458.526 187.29 459.006 190.028C459.26 191.44 459.514 192.852 459.768 194.263C458.046 194.715 456.323 195.139 454.601 195.562Z" fill="white"/>
<path d="M101.235 230.402C97.6776 229.188 93.979 228.369 90.3369 227.494C89.377 227.268 88.417 227.042 87.4853 226.816C87.8524 225.489 88.2194 224.162 88.6147 222.807C89.377 220.125 90.1393 217.415 90.9298 214.732C91.4098 214.874 91.8615 214.986 92.3415 215.128C94.1766 215.636 95.9836 216.172 97.8187 216.737C99.7104 217.302 101.602 218.064 103.522 218.459C105.159 218.798 105.95 216.37 104.425 215.664C101.094 214.083 97.2258 213.264 93.6967 212.248C93.0755 212.078 92.4262 211.881 91.805 211.711C92.5391 209.086 93.2449 206.432 93.8943 203.778C94.346 201.858 91.5227 201.491 90.958 203.241C90.1393 205.754 89.4052 208.295 88.6711 210.864C86.5819 210.328 84.5208 209.792 82.4033 209.312C79.58 208.662 76.7284 208.013 73.8769 207.448C75.3732 203.496 76.8696 199.543 78.366 195.59C79.0436 193.755 76.3049 192.4 75.5991 194.263C73.9898 198.47 72.3805 202.677 70.7712 206.855C67.1009 206.178 63.4305 205.585 59.732 205.19C57.8121 204.992 57.2474 207.843 59.1955 208.154C62.6682 208.747 66.1409 209.312 69.6136 209.904C68.9925 211.542 68.3714 213.208 67.722 214.845C66.7621 217.33 65.8304 219.843 64.8704 222.327C62.16 221.847 59.4214 221.424 56.711 221.283C54.8758 221.198 54.2829 223.739 56.1746 224.162C58.6309 224.699 61.1719 225.038 63.6846 225.405L61.8495 230.261C61.2001 231.926 60.4096 233.62 60.0143 235.399C59.619 237.093 62.0471 237.743 62.8376 236.303C63.7129 234.693 64.2493 232.83 64.8987 231.108C65.5198 229.442 66.1409 227.804 66.7903 226.139C66.8185 226.054 66.8468 225.969 66.875 225.885C67.0726 225.913 67.242 225.941 67.4397 225.969C71.11 226.59 74.7521 227.268 78.3942 228.03C80.1164 228.397 81.8387 228.764 83.5609 229.131C83.3633 229.809 83.1939 230.487 82.9962 231.164C82.121 234.326 81.0481 237.46 80.3988 240.679C80.06 242.316 82.6857 243.276 83.2786 241.611C84.3797 238.561 85.1137 235.371 85.9607 232.265C86.1866 231.447 86.4125 230.628 86.6383 229.837C87.5136 230.035 88.3888 230.261 89.264 230.458C92.9626 231.362 96.6047 232.491 100.331 233.253C101.941 233.677 102.901 230.967 101.235 230.402ZM79.1565 225.009C75.5144 224.275 71.8723 223.598 68.202 222.977C68.1173 222.977 68.0326 222.948 67.9479 222.92C68.8231 220.605 69.6983 218.29 70.5736 215.975C71.2794 214.139 71.957 212.333 72.6346 210.497C75.5991 211.062 78.5354 211.655 81.4716 212.333C83.5609 212.813 85.6502 213.349 87.7112 213.885C86.9771 216.596 86.2431 219.278 85.4808 221.96C85.0855 223.344 84.7185 224.727 84.3232 226.11C82.6292 225.743 80.907 225.376 79.1565 225.009Z" fill="white"/>
<path d="M281.334 352.483C277.692 353.387 274.135 354.714 270.577 355.956C269.646 356.267 268.714 356.605 267.81 356.944C267.387 355.617 266.992 354.29 266.568 352.992C265.749 350.309 264.931 347.627 264.112 344.945C264.564 344.804 265.044 344.663 265.495 344.522C267.302 343.957 269.137 343.421 270.944 342.912C272.836 342.376 274.841 341.981 276.676 341.275C278.229 340.654 277.579 338.226 275.913 338.423C272.271 338.903 268.573 340.287 265.044 341.36C264.422 341.557 263.773 341.755 263.152 341.952C262.333 339.355 261.514 336.729 260.611 334.16C259.962 332.297 257.392 333.511 257.872 335.289C258.55 337.859 259.312 340.4 260.103 342.941C258.07 343.618 256.037 344.296 254.004 345.03C251.266 346.018 248.555 347.006 245.845 348.079C244.97 343.957 244.066 339.807 243.163 335.685C242.739 333.765 239.69 334.132 240.114 336.08C241.045 340.484 241.977 344.889 242.909 349.293C239.464 350.705 236.048 352.229 232.745 353.895C231.022 354.77 232.095 357.481 233.902 356.69C237.149 355.279 240.368 353.895 243.614 352.54C243.981 354.262 244.349 355.984 244.716 357.707C245.28 360.332 245.817 362.93 246.381 365.555C243.84 366.628 241.299 367.729 238.956 369.085C237.375 369.988 238.25 372.473 240.085 371.795C242.457 370.92 244.772 369.819 247.087 368.774L248.16 373.856C248.527 375.607 248.781 377.47 249.402 379.164C249.995 380.801 252.395 380.039 252.254 378.402C252.113 376.566 251.576 374.731 251.181 372.924C250.814 371.202 250.447 369.452 250.08 367.729C250.052 367.645 250.052 367.56 250.023 367.475C250.193 367.391 250.362 367.334 250.532 367.249C253.948 365.781 257.392 364.37 260.865 363.043C262.503 362.393 264.14 361.772 265.806 361.179C266.003 361.857 266.229 362.535 266.427 363.184C267.387 366.318 268.206 369.536 269.391 372.586C270.013 374.167 272.723 373.517 272.328 371.795C271.594 368.661 270.493 365.555 269.533 362.478C269.279 361.659 269.024 360.869 268.77 360.05C269.617 359.739 270.464 359.457 271.311 359.147C274.897 357.904 278.596 356.86 282.125 355.504C283.706 354.827 283.056 352.06 281.334 352.483ZM259.877 359.909C256.404 361.264 252.988 362.676 249.572 364.144C249.487 364.172 249.402 364.2 249.346 364.257C248.838 361.829 248.301 359.429 247.793 357.001C247.398 355.081 246.974 353.189 246.579 351.269C249.374 350.14 252.169 349.039 255.021 348.023C257.025 347.289 259.058 346.611 261.091 345.933C261.938 348.615 262.785 351.269 263.604 353.923C264.027 355.279 264.451 356.662 264.874 358.017C263.18 358.638 261.543 359.259 259.877 359.909Z" fill="white"/>
<path d="M374.761 131.389C371.571 128.311 367.534 126.024 363.214 124.838C363.75 123.935 364.202 123.003 364.569 121.987C365.868 118.401 365.416 114.872 363.863 111.851C364.851 111.653 365.868 111.399 366.828 111.202C368.889 110.806 370.95 110.411 372.983 109.875C374.874 109.395 374.027 106.797 372.192 107.051C370.216 107.334 368.239 107.729 366.263 108.124C364.908 108.407 363.468 108.604 362.085 108.915C362.932 107.56 363.948 106.346 365.19 105.188C366.404 104.059 364.795 101.885 363.412 102.873C361.915 103.918 360.645 105.273 359.657 106.797C357.172 104.821 354.123 103.466 350.961 103.155C344.665 102.478 339.074 104.877 334.303 108.604C336.477 111.061 338.284 113.884 339.329 116.933C339.893 118.542 337.437 119.502 336.646 118.062C334.783 114.674 332.863 111.625 330.237 108.943C329.221 108.209 328.148 107.56 327.075 107.023C322.756 104.877 318.069 103.494 313.269 102.929C304.602 101.885 295.567 104.285 289.44 110.694C287.266 112.952 285.516 115.663 284.471 118.655C283.907 121.027 283.737 123.37 283.511 125.798C283.342 127.718 280.773 127.69 280.575 125.798C280.264 123.06 280.773 120.152 281.507 117.47C277.695 116.143 273.63 115.493 269.62 115.578C265.216 115.691 260.896 116.679 256.887 118.429C254.854 119.305 252.935 120.378 251.128 121.62C250.281 122.213 249.321 122.862 248.417 123.596C247.344 120.688 245.029 118.119 242.686 116.312C239.298 113.715 235.148 112.275 230.997 111.541C224.024 110.298 216.542 111.004 209.935 113.686C210.867 115.493 211.573 117.413 211.94 119.361C212.307 121.281 209.653 122.015 209.032 120.18C208.439 118.401 207.733 116.707 206.914 115.098H206.886C203.159 107.39 192.91 104.454 185.824 109.875C182.521 112.388 180.347 116.227 180.093 120.378C175.801 119.728 171.312 120.039 167.246 121.479C165.439 122.128 166.145 124.867 168.037 124.387C172.159 123.314 176.225 123.003 180.29 123.653C180.742 126.307 181.871 128.791 183.396 131.022C179.584 133.704 176.14 136.894 173.26 140.593C172.102 142.089 174.107 144.207 175.378 142.71C178.342 139.209 181.645 136.104 185.344 133.45C185.767 133.901 186.191 134.325 186.643 134.72C190.624 138.306 195.564 140.508 200.505 142.4C205.615 144.348 210.81 146.07 216.062 147.538C226.395 150.446 237.011 152.422 247.711 153.524C269.197 155.726 291.078 154.201 312.055 149.119C322.586 146.578 332.863 143.077 342.773 138.729C345.963 137.318 349.549 135.821 352.937 133.93C354.885 136.132 356.127 138.87 356.72 141.807C357.031 143.416 359.826 143.077 359.6 141.411C359.177 137.995 357.765 134.89 355.591 132.32C357.68 130.965 359.628 129.384 361.209 127.577C365.416 128.622 369.284 130.598 372.7 133.45C374.112 134.664 376.145 132.716 374.761 131.389ZM199.122 122.495C197.513 119.728 194.294 119.7 192.741 122.552C191.922 124.048 189.353 123.003 189.974 121.394C192.063 116.001 199.856 115.86 201.945 121.309C202.566 122.975 199.969 123.935 199.122 122.495ZM216.514 140.649C215.864 138.701 215.384 135.765 213.041 135.144C210.613 134.494 209.314 137.685 208.524 139.379C207.789 140.931 205.192 139.802 205.785 138.221C206.971 135.059 209.342 131.445 213.238 132.01C217.022 132.574 218.8 136.499 219.393 139.859C219.76 141.75 217.135 142.513 216.514 140.649ZM232.24 126.843C231.59 125.685 231.025 124.556 229.614 124.246C228.146 123.907 226.847 124.782 226.056 125.94C225.209 127.182 222.781 126.42 223.431 124.838C224.475 122.241 227.101 120.66 229.896 121.055C232.409 121.394 234.865 123.483 235.006 126.109C235.119 127.605 232.974 128.085 232.24 126.843ZM255.758 144.037C253.979 142.145 251.721 140.875 249.038 140.931C246.441 140.988 244.013 142.4 242.488 144.461C241.359 145.985 238.818 144.602 239.891 142.936C244.013 136.584 253.499 136.075 258.073 142.202C259.146 143.614 256.887 145.251 255.758 144.037ZM271.54 129.017C269.592 127.125 266.91 125.968 264.171 126.476C261.292 126.984 259.485 128.989 258.101 131.417C257.282 132.857 254.939 131.869 255.419 130.287C257.734 122.608 268.689 120.886 273.601 126.956C274.787 128.396 272.924 130.372 271.54 129.017ZM298.164 143.331C295.934 141.835 293.675 140.339 290.88 140.423C288.283 140.508 286.278 142.061 285.798 144.63C285.488 146.324 282.692 145.901 282.834 144.235C283.144 140.621 286.052 137.967 289.553 137.402C293.365 136.781 297.204 138.447 300.028 140.931C301.326 142.061 299.604 144.263 298.164 143.331ZM313.721 122.41C312.14 119.869 309.26 118.119 306.211 118.599C303.275 119.051 301.072 121.338 300.197 124.076C299.604 125.94 296.922 125.149 297.317 123.286C298.164 119.276 301.75 116.086 305.759 115.493C309.938 114.872 314.427 117.046 316.347 120.858C317.222 122.608 314.766 124.076 313.721 122.41ZM328.233 133.873C324.817 132.49 321.993 134.099 321.231 137.628C320.892 139.266 318.351 138.842 318.379 137.233C318.464 131.784 324.732 128.452 329.39 131.106C330.83 131.953 329.814 134.522 328.233 133.873ZM354.857 119.248C354.603 117.47 353.106 116.651 351.441 117.47C349.803 118.288 349.041 120.236 349.323 121.987C349.634 123.85 346.839 124.697 346.415 122.777C345.681 119.305 347.347 115.578 350.82 114.336C353.953 113.206 357.906 115.239 357.821 118.825C357.765 120.491 355.083 120.999 354.857 119.248Z" fill="#FFC010"/>
<path d="M265.41 76.9266C268.77 76.3337 271.847 75.1761 274.897 73.8491C268.516 68.8236 258.606 69.6988 253.524 76.2207C253.468 76.2772 253.411 76.3619 253.383 76.4466C257.364 77.4348 261.316 77.6606 265.41 76.9266Z" fill="#FFC010"/>
<path d="M254.119 79.8906C256.124 83.928 260.415 86.5537 265.017 86.1019C269.535 85.6784 273.515 82.4598 274.786 78.1684C274.899 77.9143 274.984 77.6319 275.068 77.3496C268.546 80.2012 260.98 81.4999 254.119 79.8906Z" fill="#FFC010"/>
<path d="M326.792 160.045C319.733 155.641 310.332 157.306 304.544 163.009C303.132 164.393 305.306 166.567 306.718 165.183C311.828 160.186 318.999 159.565 325.267 162.642C326.989 163.461 328.458 161.061 326.792 160.045Z" fill="#FFC010"/>
<path d="M317.87 175.687C314.906 171.621 310.473 169.221 305.532 168.6C303.838 168.374 303.415 171.367 305.137 171.621C309.315 172.242 312.816 174.331 315.555 177.494C316.656 178.708 318.858 177.042 317.87 175.687Z" fill="#FFC010"/>
<path d="M221.199 165.183C219.844 161.513 216.484 158.379 213.266 156.262C209.878 154.031 205.953 152.704 201.888 152.478C199.94 152.394 200.053 155.217 201.888 155.443C205.304 155.838 208.607 157.024 211.487 158.887C212.899 159.819 214.169 160.892 215.355 162.106C216.597 163.405 217.444 164.873 218.517 166.285C219.421 167.499 221.821 166.906 221.199 165.183Z" fill="#FFC010"/>
<path d="M233.199 162.474C230.969 160.413 227.468 160.271 225.181 162.332C223.939 163.462 225.548 165.523 226.96 164.648C228.428 163.744 229.981 163.744 231.392 164.761C232.776 165.749 234.413 163.575 233.199 162.474Z" fill="#FFC010"/>
<path d="M218.375 170.463C215.636 172.524 213.039 174.924 210.554 177.296C209.114 178.679 211.204 180.656 212.7 179.442C215.241 177.381 217.895 175.178 220.182 172.835C221.311 171.649 219.758 169.419 218.375 170.463Z" fill="#FFC010"/>
<path d="M251.381 222.328C250.11 220.973 248.247 220.549 246.496 220.323C244.209 220.013 241.951 220.069 239.664 220.408C237.575 220.747 235.203 221.255 233.594 222.695C232.097 224.022 231.42 226.196 232.323 228.031C234.158 231.729 239.692 231.786 243.193 231.08C243.391 231.052 243.616 230.995 243.842 230.939C244.887 230.854 245.932 230.657 246.948 230.431C248.896 229.951 250.957 229.104 251.974 227.269C252.821 225.659 252.651 223.683 251.381 222.328Z" fill="#FFC010"/>
<path d="M306.888 222.526C306.324 220.917 304.827 219.872 303.303 219.223C299.66 217.698 295.03 217.501 291.275 218.743C289.807 219.223 288.311 220.126 287.69 221.594C286.955 222.328 286.447 223.26 286.419 224.305C286.278 228.173 291.078 229.189 294.014 229.5C296.131 229.726 298.249 229.613 300.338 229.274C302.201 228.963 304.263 228.512 305.674 227.185C306.916 225.971 307.453 224.192 306.888 222.526Z" fill="#FFC010"/>
<path d="M414.512 256.208C410.926 255.643 407.792 257.563 405.421 260.104C402.738 263.012 400.395 266.343 398.136 269.59C395.793 272.893 393.591 276.281 391.53 279.726C387.775 285.965 384.415 292.403 381.422 298.981C381.479 296.101 381.309 293.221 380.886 290.342C380.236 285.909 379.079 279.698 374.364 277.75C369.254 275.632 365.132 280.629 364.567 285.26C364.2 288.224 364.708 291.273 365.103 294.21C365.527 297.372 366.007 300.506 366.628 303.64C367.927 310.303 369.536 317.135 372.133 323.431C366.995 339.778 363.579 356.746 361.377 373.715C358.751 393.986 357.621 414.512 357.367 434.953C357.339 436.901 360.332 436.901 360.388 434.953C361.292 408.668 362.562 382.326 367.249 356.464C367.362 356.408 367.447 356.323 367.56 356.238C372.839 351.693 377.695 346.554 382.467 341.472C387.182 336.418 392.038 331.28 396.132 325.718C397.854 323.403 399.012 320.608 398.334 317.7C397.685 314.961 395.313 313.013 392.461 313.126C389.328 313.239 386.984 315.356 384.951 317.559C382.721 319.987 380.632 322.556 378.655 325.21C376.143 328.598 373.827 332.155 371.795 335.882C371.851 335.656 371.908 335.402 371.992 335.176C375.634 321.511 380.406 308.157 386.617 295.452C390.146 293.589 401.553 286.812 407.171 281.392C410.023 278.625 412.705 275.689 415.189 272.583C417.391 269.844 419.65 266.823 419.932 263.181C420.187 259.708 417.928 256.744 414.512 256.208Z" fill="#FFC010"/>
<path d="M452.346 309.766C451.217 306.745 448.196 305.136 445.062 305.108C441.533 305.051 438.512 306.999 435.942 309.23C433.26 311.573 430.748 314.171 428.235 316.712C408.274 337.124 391.955 361.094 380.238 387.125C373.66 401.75 368.437 417.025 364.964 432.666C364.54 434.586 367.448 435.404 367.9 433.485C371.119 419.876 375.438 406.578 380.859 393.732C381.057 393.704 381.283 393.647 381.48 393.534C388.313 389.779 395.145 386.024 401.978 382.269C407.54 379.192 414.033 376.34 417.817 370.976C419.595 368.491 420.245 364.962 417.732 362.704C415.276 360.53 411.831 361.094 409.064 362.224C403.502 364.511 398.364 367.786 393.818 371.71C392.181 373.122 390.6 374.646 389.075 376.256C392.011 370.637 395.145 365.103 398.533 359.711C402.768 352.935 407.342 346.385 412.226 340.061C412.537 340.569 427.896 336.334 434.107 332.635C437.157 330.8 440.065 328.739 442.831 326.509C445.542 324.306 448.309 321.935 450.398 319.14C452.402 316.514 453.588 313.013 452.346 309.766Z" fill="#FFC010"/>
<path d="M345.426 367.504C345.228 361.97 345.228 356.351 344.607 350.846C344.07 345.99 342.913 341.077 339.948 337.096C337.351 333.595 332.212 330.885 328.373 334.301C324.364 337.859 326.368 343.731 327.723 348.023C331.394 359.768 336.447 371.061 342.687 381.648L342.715 381.677C342.913 388.481 343.054 395.285 343.195 402.118C343.421 414.512 343.478 426.906 343.534 439.273C343.534 441.221 346.555 441.249 346.583 439.273C346.753 415.359 346.273 391.417 345.426 367.504Z" fill="#FFC010"/>
<path d="M190.537 285.853C187.121 283.989 183.648 285.966 181.841 289.043C179.695 292.713 178.933 297.344 178.03 301.438C176.957 306.181 176.166 310.952 175.602 315.78C174.981 321.116 174.642 326.537 174.642 331.93C174.331 330.715 173.992 329.501 173.682 328.287C171.254 319.394 168.459 310.613 165.24 301.974C162.36 294.266 158.944 286.643 153.777 280.178C149.486 274.813 141.693 267.925 134.325 271.68C130.993 273.374 129.327 277.129 129.214 280.714C129.073 284.921 131.021 288.958 132.885 292.6C140.028 306.435 151.377 318.152 164.929 325.746C166.595 326.678 168.289 327.553 170.011 328.344C170.096 328.372 170.153 328.4 170.237 328.429C172.298 335.854 175.093 348.361 175.969 352.794C176.9 357.565 177.719 362.337 178.425 367.137C174.755 361.998 170.633 357.198 166.2 352.738C163.235 349.773 160.13 346.978 156.855 344.324C153.834 341.896 150.53 339.016 146.606 338.254C143.077 337.576 139.124 338.677 137.345 342.037C135.539 345.453 136.329 349.491 138.305 352.653C140.395 356.013 143.444 358.921 146.408 361.518C149.345 364.116 152.507 366.459 155.838 368.52C163.151 373.037 171.338 376.171 179.78 377.668C179.865 378.543 179.978 379.39 180.063 380.265C182.095 399.859 182.293 419.622 180.74 439.273C180.571 441.277 183.676 441.249 183.846 439.273C185.455 420.695 185.37 401.976 183.676 383.427C182.688 372.557 181.135 361.772 179.046 351.072C182.575 342.602 185.624 333.962 188.165 325.154C190.848 315.808 193.135 306.181 194.405 296.525C194.913 292.6 194.405 287.942 190.537 285.853Z" fill="#FFC010"/>
<path d="M168.064 434.445C162.191 413.185 150.22 393.535 134.466 378.176C134.184 377.894 133.901 377.611 133.591 377.357C129.582 372.84 125.883 368.153 122.749 362.902C119.502 357.481 116.792 351.75 114.703 345.792C118.147 337.464 119.982 328.542 119.869 319.535C119.813 315.554 119.728 310.755 116.086 308.242C112.642 305.87 108.548 307.96 107.136 311.574C106.317 313.635 106.374 315.922 106.402 318.095C106.459 320.157 106.571 322.218 106.769 324.25C107.164 328.429 107.814 332.551 108.745 336.645C109.451 339.722 110.298 342.771 111.315 345.764C111.258 346.301 111.456 346.809 111.795 347.176C113.376 351.637 115.296 355.956 117.498 360.135C118.796 362.563 120.208 364.963 121.705 367.334C117.131 363.918 112.105 360.53 106.261 360.022C101.602 359.627 96.4639 361.857 94.1206 366.036C91.5513 370.61 93.5559 375.72 97.2827 378.938C101.998 383.004 108.548 385.008 114.59 385.884C121.394 386.872 128.311 386.335 134.861 384.274C135.144 384.19 135.369 384.049 135.539 383.879C141.524 390.175 146.832 397.064 151.378 404.433C157.335 414.089 161.852 424.45 165.099 435.32C165.664 437.127 168.572 436.337 168.064 434.445Z" fill="#FFC010"/>
<path d="M429.815 72.0137C424.225 72.0137 419.68 67.4682 419.68 61.878C419.68 56.2878 424.225 51.7422 429.815 51.7422C435.406 51.7422 439.951 56.2878 439.951 61.878C439.951 67.4682 435.406 72.0137 429.815 72.0137ZM429.815 56.2595C426.71 56.2595 424.197 58.7723 424.197 61.878C424.197 64.9836 426.71 67.4964 429.815 67.4964C432.921 67.4964 435.434 64.9836 435.434 61.878C435.434 58.7723 432.921 56.2595 429.815 56.2595Z" fill="#FFC010"/>
</svg>
