<svg width="528" height="528" viewBox="0 0 528 528" fill="none" xmlns="http://www.w3.org/2000/svg">
<path d="M200.025 119.445C197.314 114.109 189.861 113.658 186.021 117.949C184.722 119.417 186.84 121.591 188.195 120.123C190.933 117.13 195.225 117.695 197.427 120.942C198.5 122.551 200.9 121.168 200.025 119.445Z" fill="white"/>
<path d="M239.295 127.153C237.432 119.954 227.691 117.074 222.214 122.212C221.028 123.342 222.581 125.459 223.993 124.527C226.195 123.059 228.651 122.24 231.277 123.031C233.677 123.765 235.455 125.685 236.415 127.944C237.121 129.666 239.775 129.073 239.295 127.153Z" fill="white"/>
<path d="M336.306 445.315C334.273 431.678 332.24 418.013 330.207 404.376C329.191 397.459 328.146 390.542 327.13 383.596L325.634 373.517C325.21 370.75 325.069 367.786 324.024 365.16C323.064 362.704 321.286 360.784 318.575 359.993C315.582 359.118 312.279 359.683 309.23 359.937C302.172 360.53 295.142 361.236 288.111 361.97C273.882 363.494 259.709 365.358 245.564 367.532C229.527 369.988 213.575 372.868 197.708 376.143C196.41 376.397 196.155 377.611 196.607 378.486C196.607 378.514 196.607 378.514 196.607 378.543C196.805 379.898 197.031 381.281 197.285 382.665C200.701 407.736 204.202 432.779 207.703 457.85C207.816 458.725 208.437 459.601 209.482 459.544C242.345 458.048 275.152 455.253 307.79 451.159C316.881 450.03 325.972 448.787 335.035 447.432C336.08 447.263 336.419 446.133 336.306 445.315Z" fill="#07D673"/>
<path d="M168.402 445.23C165.664 443.931 162.953 442.632 160.186 441.39C157.73 440.261 155.02 439.131 152.281 439.922C149.429 440.769 147.312 443.31 145.42 445.456C143.303 447.827 141.355 450.368 139.632 453.05C139.378 453.417 139.322 453.784 139.407 454.123C138.814 454.66 138.531 455.507 139.152 456.297C140.762 458.415 143.331 459.911 145.618 461.21C147.905 462.509 150.361 463.581 152.874 464.4C155.5 465.247 158.436 465.699 160.977 464.316C163.235 463.073 164.619 460.673 166.002 458.584C167.64 456.128 169.644 453.643 170.943 450.989C172.242 448.364 170.746 446.331 168.402 445.23Z" fill="#07D673"/>
<path d="M346.074 74.8649C342.262 76.3048 338.62 77.3777 334.498 77.2647C330.376 77.1518 326.705 75.9378 323.035 74.1308C321.285 73.2556 319.845 75.6837 321.511 76.7565C325.237 79.1564 329.896 80.2575 334.272 80.4269C338.592 80.5963 343.476 79.8622 347.259 77.6882C348.727 76.813 347.739 74.2155 346.074 74.8649Z" fill="#07D673"/>
<path d="M344.521 84.8313C340.766 86.3841 337.181 87.457 333.087 87.2876C329.078 87.1182 325.295 85.8759 321.85 83.8149C320.184 82.7985 318.744 85.3395 320.325 86.4123C327.44 91.1273 338.169 92.059 345.707 87.6546C347.147 86.7794 346.159 84.1254 344.521 84.8313Z" fill="#07D673"/>
<path d="M342.064 96.661C338.479 98.3833 335.034 99.7385 330.997 99.9361C329.105 100.021 327.185 99.9079 325.322 99.5691C323.374 99.202 321.595 98.4397 319.704 97.8751C318.122 97.3951 317.247 99.6538 318.602 100.501C322.132 102.731 327.129 103.324 331.223 103.098C335.429 102.872 340.116 101.771 343.561 99.2867C345.142 98.1292 343.815 95.814 342.064 96.661Z" fill="#07D673"/>
<path d="M323.571 51.0924C320.239 51.2336 317.049 51.0642 313.887 49.9913C312.334 49.4549 310.838 48.7491 309.426 47.8738C308.014 46.9986 306.857 45.8693 305.53 44.9376C304.372 44.1188 302.622 45.7846 303.525 46.9421C305.727 49.8219 309.483 51.77 312.842 52.9558C316.371 54.1981 320.296 54.7063 323.966 54.0287C325.604 53.7181 325.237 51.0077 323.571 51.0924Z" fill="#07D673"/>
<path d="M322.613 60.8894C317.616 62.1317 312.505 62.1882 307.677 60.2683C303.414 58.5743 299.941 55.5533 297.344 51.8265C296.243 50.2455 293.645 51.6854 294.69 53.3794C300.478 62.6964 312.957 67.5525 323.403 63.7128C325.154 63.0916 324.476 60.4377 322.613 60.8894Z" fill="#07D673"/>
<path d="M228.397 47.7326C226.223 49.0031 223.993 49.9913 221.48 50.3583C218.911 50.7536 216.624 50.2454 214.111 49.8219C212.615 49.5678 211.372 51.7135 212.982 52.4758C218.092 54.8757 225.489 53.6616 229.922 50.3301C231.418 49.2008 230.119 46.7445 228.397 47.7326Z" fill="#07D673"/>
<path d="M234.694 56.5697C231.419 58.3767 228.116 59.8448 224.417 60.5789C220.718 61.3129 217.076 61.1435 213.35 60.5789C211.486 60.2965 210.611 63.0069 212.559 63.4869C220.239 65.4068 229.725 63.7692 236.219 59.1672C237.771 58.0661 236.416 55.6098 234.694 56.5697Z" fill="#07D673"/>
<path d="M212.39 74.3002C210.527 75.7119 208.579 76.9824 206.348 77.7165C204.033 78.4788 201.859 78.3658 199.459 78.5635C197.906 78.7046 197.426 80.9351 199.064 81.3868C201.577 82.0926 204.711 81.4997 207.167 80.7092C209.764 79.8904 212.221 78.5352 214.169 76.6154C215.326 75.486 213.745 73.2556 212.39 74.3002Z" fill="#07D673"/>
<path d="M216.766 85.6783C214.055 87.5134 211.176 89.0663 208.013 90.0544C204.795 91.0426 201.661 91.212 198.329 91.4096C196.805 91.5226 196.24 94.0071 197.934 94.2612C205.021 95.2494 213.039 92.3696 218.516 87.9934C219.843 86.9488 218.121 84.7466 216.766 85.6783Z" fill="#07D673"/>
<path d="M218.517 98.9197C215.919 100.953 213.18 102.562 209.962 103.409C206.687 104.284 203.609 104.002 200.306 103.578C198.725 103.381 197.765 105.809 199.431 106.373C206.433 108.745 215.383 106.204 220.493 101.037C221.679 99.8796 219.815 97.8751 218.517 98.9197Z" fill="#07D673"/>
<path d="M96.6045 111.145C91.0143 111.145 86.4688 106.599 86.4688 101.009C86.4688 95.4188 91.0143 90.8732 96.6045 90.8732C102.195 90.8732 106.74 95.4188 106.74 101.009C106.74 106.599 102.195 111.145 96.6045 111.145ZM96.6045 95.3905C93.4988 95.3905 90.9861 97.9033 90.9861 101.009C90.9861 104.115 93.4988 106.627 96.6045 106.627C99.7102 106.627 102.223 104.115 102.223 101.009C102.223 97.9033 99.6819 95.3905 96.6045 95.3905Z" fill="#07D673"/>
<path d="M346.413 262.25C340.823 262.25 336.277 257.704 336.277 252.114C336.277 246.524 340.823 241.978 346.413 241.978C352.003 241.978 356.549 246.524 356.549 252.114C356.549 257.704 352.003 262.25 346.413 262.25ZM346.413 246.495C343.307 246.495 340.795 249.008 340.795 252.114C340.795 255.219 343.307 257.732 346.413 257.732C349.519 257.732 352.032 255.219 352.032 252.114C352.032 249.008 349.519 246.495 346.413 246.495Z" fill="#07D673"/>
<path d="M459.347 346.695C458.585 344.013 456.411 341.642 453.531 341.388C446.247 340.738 445.174 349.801 444.694 354.968C443.875 363.494 444.412 372.077 446.106 380.463C446.134 380.66 446.19 380.83 446.275 380.971C444.214 385.799 441.899 390.542 439.301 395.116C437.946 397.515 441.616 399.633 442.972 397.261C450.058 384.81 455.31 371.315 458.415 357.339C459.178 353.98 460.335 350.14 459.347 346.695Z" fill="#07D673"/>
<path d="M88.5016 409.119C82.4879 402.202 77.0953 394.861 72.5215 387.041C75.0343 378.712 75.5143 369.847 73.9614 361.264C73.1991 357.029 72.0698 352.37 69.8111 348.644C67.8913 345.481 64.2209 342.94 60.3812 344.07C52.0524 346.498 56.965 358.892 58.7154 364.172C61.3694 372.247 64.8421 380.039 69.0206 387.436C69.0206 387.436 69.6417 388.565 70.0935 389.3C74.6955 397.148 80.0881 404.687 86.3841 411.237C87.7393 412.648 89.7721 410.559 88.5016 409.119Z" fill="#07D673"/>
<path d="M212.56 299.772C208.523 274.87 204.175 249.262 191.159 227.212C188.279 222.299 184.976 217.641 181.249 213.321C177.579 209.086 173.4 204.682 168.572 201.774C164.224 199.148 158.295 198.301 154.258 202.028C149.656 206.235 152.028 212.898 155.726 216.766C160.215 221.452 166.229 225.095 172.13 227.72C177.974 230.318 184.157 231.955 190.51 232.605C193.869 238.844 196.58 245.394 198.838 252.086C192.881 246.185 183.875 243.023 175.687 244.519C170.887 245.394 165.975 249.545 167.33 254.937C168.855 260.979 176.337 261.459 181.39 261.854C188.11 262.363 194.858 261.911 201.436 260.499C201.464 260.584 201.492 260.64 201.492 260.725C205.135 273.797 207.365 287.236 209.624 300.619C209.906 302.539 212.87 301.72 212.56 299.772Z" fill="#07D673"/>
<path d="M299.29 82.8831C298.499 77.8576 297.144 72.945 295.14 68.2865C291.667 60.24 285.766 52.7299 277.917 48.5796C269.814 44.3164 259.509 43.667 251.406 48.3255C243.049 53.1252 238.673 62.414 236.753 71.5051C234.212 83.476 233.873 96.3222 235.398 108.434C235.511 109.366 236.301 109.874 237.064 109.902C237.798 109.931 238.532 110.1 239.238 110.326C240.903 110.862 242.484 111.625 243.981 112.669C244.997 113.403 245.929 114.25 246.748 115.21C247.623 116.198 248.188 117.441 249.119 118.372C249.769 119.05 250.729 118.881 251.265 118.344C252.084 117.554 253.044 116.933 254.06 116.396C255.302 115.775 256.545 115.182 257.872 114.702C260.469 113.77 263.18 113.093 265.918 112.782C271.395 112.161 276.76 112.839 282.011 114.476C282.971 114.787 283.677 114.279 283.959 113.545C284.044 113.432 284.1 113.319 284.157 113.178C286.077 108.321 289.578 104.312 294.095 101.912C295.62 101.094 297.314 100.755 299.008 100.557C299.77 100.473 300.448 99.9361 300.476 98.9197C300.645 93.5836 300.109 88.1345 299.29 82.8831ZM249.712 65.5479C252.394 66.1408 253.354 69.5005 251.547 71.5051C249.91 73.312 246.748 72.9168 245.703 70.6581C245.647 70.5169 245.59 70.3475 245.562 70.1781C245.534 70.1217 245.505 70.037 245.477 69.9805C244.687 67.4395 247.199 64.9832 249.712 65.5479ZM240.452 91.6355C239.605 90.2238 241.694 88.5298 242.767 89.8285C244.658 92.1437 247.651 92.2848 249.26 89.5744C250.277 87.8522 252.761 89.3486 251.914 91.1273C249.769 95.7293 242.993 95.9552 240.452 91.6355ZM258.549 104.736C257.222 109.62 249.91 110.665 247.284 106.373C246.381 104.905 248.385 103.522 249.571 104.595C250.559 105.47 251.576 106.204 252.987 105.978C254.427 105.752 255.105 104.736 255.782 103.578C256.658 102.082 258.973 103.098 258.549 104.736ZM275.405 95.0517C274.529 101.658 265.579 103.042 262.022 97.7903C261.062 96.3787 263.292 94.6564 264.394 95.9552C265.551 97.3668 267.189 98.2985 269.052 97.9315C271 97.5362 271.932 95.9834 272.666 94.3176C273.202 93.0189 275.574 93.64 275.405 95.0517ZM276.336 67.0725C276.28 66.9313 276.223 66.7619 276.195 66.5925C276.167 66.536 276.139 66.4513 276.11 66.3949C275.292 63.8539 277.804 61.3976 280.317 61.9622C282.999 62.5551 283.959 65.9149 282.152 67.9195C280.543 69.7264 277.353 69.3311 276.336 67.0725ZM278.821 104.764C277.296 103.606 278.567 101.432 280.317 102.195C282.435 103.126 284.044 102.082 284.439 99.9078C284.75 98.1856 287.488 98.6373 287.432 100.303C287.291 104.397 282.265 107.418 278.821 104.764ZM288.194 89.6309C286.359 90.9296 283.253 91.0143 281.672 89.2639C280.797 88.3039 281.644 86.2711 283.084 86.864C284.157 87.3158 285.23 87.8804 286.359 87.1464C287.488 86.4123 287.376 85.2547 287.376 84.0972C287.347 82.6855 289.493 81.9797 290.142 83.3349C291.131 85.5088 290.114 88.2757 288.194 89.6309Z" fill="#001E2B"/>
<path d="M399.436 349.999C399.436 349.971 399.436 349.971 399.436 349.999C400.086 349.349 400.086 348.333 399.436 347.74C396.246 344.691 391.475 340.541 389.385 338.734C388.792 338.225 387.889 338.225 387.324 338.79L387.296 338.818C386.647 339.44 386.647 340.512 387.324 341.105C390.515 343.929 393.084 346.244 393.112 346.244C394.496 347.486 395.879 348.785 397.206 350.083C397.855 350.648 398.815 350.592 399.436 349.999Z" fill="#001E2B"/>
<path d="M451.498 419.566C447.122 411.943 441.447 405.223 435.857 398.504C430.153 391.643 424.083 385.206 417.787 378.91C417.448 378.571 417.11 378.232 416.771 377.893C416.122 377.244 415.02 377.329 414.484 378.091L414.456 378.119C413.976 378.74 414.061 379.587 414.597 380.152C425.382 390.655 435.348 402.005 444.27 414.201C449.042 420.723 453.22 428.007 454.095 436.195C454.942 444.044 451.413 451.639 446.726 457.568C436.28 470.809 417.081 474.959 402.4 477.557C384.783 480.663 371.061 482.837 354.121 485.829C352.032 486.196 349.463 486.563 347.091 487.072C345.171 487.495 345.595 490.318 347.345 490.064C353.641 489.217 359.57 488.003 365.781 487.043C365.781 487.072 365.781 487.072 365.781 487.1C366.741 486.959 367.673 486.789 368.633 486.62C368.633 486.592 368.633 486.592 368.605 486.563C379.192 484.672 386.364 483.599 397.488 481.651C413.609 478.799 432.723 475.806 445.512 463.497C451.159 458.076 455.733 451.018 456.947 443.084C458.217 434.699 455.648 426.765 451.498 419.566Z" fill="#001E2B"/>
<path d="M353.5 406.861C353.951 407.369 354.798 408.272 355.476 409.035C356.153 409.797 357.452 409.599 357.819 408.639C357.876 408.498 357.904 408.329 357.932 408.131C358.017 407.482 357.763 406.833 357.339 406.353C356.464 405.393 355.589 404.433 354.714 403.473C354.629 400.254 356.831 395.229 358.638 392.405C358.836 392.095 358.92 391.728 358.892 391.361V391.304C358.779 389.723 356.69 389.215 355.843 390.57C353.471 394.353 350.987 400.508 351.721 404.913C352.088 405.59 352.794 406.24 353.5 406.861Z" fill="#001E2B"/>
<path d="M366.853 416.771C365.949 415.782 365.046 414.822 364.142 413.834C363.606 413.241 362.618 413.496 362.448 414.286C362.363 414.681 362.251 415.077 362.166 415.472C362.053 415.924 362.166 416.375 362.476 416.714C363.211 417.505 363.973 418.323 364.707 419.114C365.441 419.905 366.796 419.594 367.078 418.521C367.107 418.38 367.163 418.239 367.191 418.098C367.304 417.618 367.191 417.109 366.853 416.771Z" fill="#001E2B"/>
<path d="M398.955 433.428C393.901 433.344 388.706 433.823 383.652 434.416C383.596 434.332 383.539 434.247 383.455 434.191C380.095 430.69 376.735 427.217 373.404 423.716C372.867 423.151 371.936 423.349 371.681 424.055V424.083C371.314 425.015 371.512 426.031 372.19 426.765C374.053 428.798 377.61 432.638 379.897 435.009C374.561 435.941 369.366 437.211 364.2 438.793C363.183 439.103 361.517 439.64 361.179 439.809C360.614 440.007 359.936 440.232 359.343 440.458C353.104 442.802 346.441 445.823 340.851 449.041C335.345 452.203 331.759 453.813 326.875 458.048C321.341 462.819 316.231 469.793 317.417 477.726C317.699 479.618 320.381 479.279 320.268 477.359C319.873 470.386 323.967 464.513 328.936 460.391C333.651 456.467 336.616 455.027 342.008 451.978C352.906 445.823 365.329 440.995 377.836 438.623C384.923 437.268 392.151 436.703 399.322 436.308C401.27 436.167 400.79 433.456 398.955 433.428Z" fill="#001E2B"/>
<path d="M151.997 338.818C152.618 339.27 153.465 339.242 154.03 338.734C156.373 336.701 158.66 334.809 160.213 333.623C161.681 332.494 163.177 331.449 164.702 330.433C165.69 329.784 165.718 328.315 164.73 327.666C164.73 327.666 164.702 327.666 164.702 327.638C164.137 327.243 163.375 327.243 162.81 327.638C158.942 330.264 155.3 333.143 151.828 336.306C151.094 336.983 151.15 338.169 151.997 338.818C151.997 338.79 151.997 338.79 151.997 338.818Z" fill="#001E2B"/>
<path d="M190.254 488.286C187.882 487.777 185.313 487.41 183.224 487.043C171.705 485.011 161.653 483.373 150.868 481.538C151.433 479.194 151.969 476.851 152.732 474.536C153.183 473.209 153.663 471.91 154.228 470.612C154.736 469.398 155.47 468.24 155.837 466.969C155.95 466.602 155.866 466.235 155.696 465.925C155.724 465.925 155.724 465.925 155.753 465.925C158.209 466.377 161.964 465.388 161.766 462.198C161.653 460.758 159.451 459.77 158.717 461.379C157.87 463.271 156.007 462.424 154.397 461.972C152.647 461.464 150.897 460.899 149.174 460.278C147.424 459.657 145.673 459.008 143.979 458.217C143.528 457.991 139.998 456.58 140.789 455.93C142.116 454.857 140.394 452.599 138.954 453.559C136.836 454.942 137.26 457.681 139.067 459.149C139.264 459.318 139.49 459.459 139.716 459.601C137.655 462.339 136.131 465.558 134.945 468.748C133.787 471.797 132.912 475.072 132.601 478.347C118.287 475.722 100.556 471.317 90.6748 458.782C85.9881 452.853 82.4589 445.23 83.3059 437.409C84.1812 429.221 88.3597 421.937 93.1311 415.415C99.4554 406.776 106.288 398.588 113.572 390.796C114.334 389.977 113.939 388.622 112.866 388.311H112.838C112.302 388.17 111.709 388.311 111.313 388.735C107.982 392.321 104.707 395.963 101.573 399.746C95.9827 406.465 90.3078 413.185 85.9316 420.808C81.7813 428.036 79.2121 435.941 80.4826 444.326C81.6966 452.232 86.2704 459.318 91.9171 464.739C104.735 477.049 123.849 480.041 139.942 482.893C151.038 484.869 158.237 485.914 168.825 487.806C169.051 487.862 171.309 488.229 171.676 488.286C177.888 489.246 183.817 490.46 190.113 491.307C191.75 491.532 192.174 488.709 190.254 488.286ZM147.791 481.001C143.866 480.324 139.857 479.646 135.594 478.884C136.131 475.778 136.752 472.757 137.853 469.793C139.039 466.659 140.704 463.864 142.483 461.04C142.596 461.097 142.709 461.153 142.822 461.21C144.205 461.887 145.617 462.509 147.029 463.13C149.061 464.005 151.235 464.824 153.438 465.445C153.409 465.473 153.381 465.501 153.353 465.53C151.631 467.732 150.671 470.837 149.767 473.463C148.948 475.919 148.214 478.432 147.791 481.001Z" fill="#001E2B"/>
<path d="M166.962 423.772C167.583 424.507 168.684 424.535 169.334 423.829C172.27 420.723 175.178 417.618 178.03 414.455C178.199 414.286 178.397 414.06 178.622 413.834C178.848 413.608 178.961 413.298 178.961 412.987C178.961 412.705 178.99 412.423 178.99 412.14C179.046 410.898 177.55 410.277 176.703 411.18L176.674 411.209C173.484 414.738 170.237 418.211 166.962 421.683C166.454 422.248 166.426 423.151 166.962 423.772Z" fill="#001E2B"/>
<path d="M210.469 459.234C205.585 455.027 201.999 453.417 196.494 450.227C190.903 447.008 184.24 443.988 178.001 441.644C177.408 441.418 176.758 441.192 176.166 440.995C175.827 440.854 173.85 440.176 173.286 440.035L172.608 439.837C167.611 438.341 162.585 437.127 157.447 436.223C158.802 434.84 160.129 433.428 161.484 432.045C161.964 431.565 162.049 430.831 161.738 430.21C161.738 430.21 161.738 430.181 161.71 430.181C161.202 429.25 159.931 429.08 159.197 429.843C157.419 431.706 155.64 433.541 153.833 435.405C153.748 435.489 153.692 435.546 153.635 435.63C148.582 435.038 143.358 434.558 138.333 434.642C136.498 434.671 136.046 437.381 137.966 437.494C143.556 437.804 149.203 438.228 154.793 439.018C154.228 439.527 153.72 440.063 153.353 440.656C152.619 441.814 154.144 443.536 155.329 442.632C156.148 442.039 156.826 441.305 157.701 440.769C158.294 440.402 158.943 440.091 159.593 439.809C162.811 440.43 166.03 441.221 169.22 442.124C168.091 442.858 167.074 443.875 166.51 444.976C165.747 446.444 167.526 447.827 168.768 446.726C169.361 446.218 169.841 445.597 170.434 445.089C170.999 444.609 171.62 444.242 172.241 443.846C172.467 443.677 172.665 443.479 172.806 443.225C180.683 445.794 188.306 449.182 195.279 453.135C200.672 456.184 203.637 457.596 208.352 461.549C213.321 465.699 217.414 471.572 217.019 478.517C216.906 480.437 219.588 480.776 219.871 478.884C221.113 470.979 216.031 464.005 210.469 459.234Z" fill="#001E2B"/>
<path d="M139.661 367.023C149.175 369.818 158.295 374.477 166.031 380.745C169.87 383.85 173.371 387.38 176.42 391.276C176.562 391.473 176.731 391.671 176.872 391.869C177.804 393.083 179.724 392.405 179.696 390.881C179.667 390.316 179.47 389.751 179.131 389.299C178.651 388.707 178.171 388.114 177.691 387.521C170.153 378.373 160.356 371.23 149.458 366.6C146.719 365.442 143.924 364.398 141.072 363.551C140.903 363.494 140.705 363.438 140.508 363.381C140.423 363.353 140.31 363.325 140.225 363.297C137.289 362.421 134.212 361.631 131.191 362.111C130.682 362.195 130.203 362.308 129.694 362.45C129.666 362.45 129.666 362.45 129.666 362.421C130.174 361.744 130.739 361.066 131.275 360.473C132.998 358.525 134.776 356.634 136.583 354.77C137.063 354.29 137.176 353.528 136.866 352.935V352.907C136.386 351.947 135.087 351.721 134.325 352.511C131.897 355.024 129.384 357.565 127.238 360.36C126.589 361.207 126.024 362.111 125.572 363.071C125.572 363.071 125.572 363.071 125.572 363.099C127.266 366.6 129.384 369.903 131.897 372.896H131.925C133.195 371.964 134.438 370.948 135.708 370.016C137.007 368.971 138.362 368.04 139.661 367.023C139.632 367.023 139.632 367.023 139.661 367.023Z" fill="#001E2B"/>
<path d="M398.108 365.471C388.594 368.266 380.688 370.44 372.952 376.707C371.851 377.611 370.327 379.107 367.277 382.975C367.136 383.173 366.967 383.371 366.826 383.568C365.894 384.782 363.974 384.105 364.002 382.58C364.03 382.015 364.228 381.451 364.567 380.999C365.047 380.406 365.527 379.813 366.007 379.22C373.545 370.073 377.413 369.649 388.283 365.019C391.022 363.861 393.817 362.817 396.668 361.97C396.838 361.913 397.035 361.857 397.233 361.8C397.318 361.772 397.431 361.744 397.515 361.716C400.452 360.84 403.529 360.05 406.55 360.53C407.058 360.614 407.538 360.727 408.046 360.869C408.074 360.869 408.075 360.869 408.075 360.84C407.566 360.163 407.002 359.485 406.465 358.892C404.743 356.944 402.964 355.052 401.157 353.189C400.677 352.709 400.564 351.947 400.875 351.354V351.326C401.355 350.366 402.654 350.14 403.416 350.93C405.844 353.443 408.357 355.984 410.503 358.779C411.152 359.626 411.717 360.53 412.168 361.49C412.168 361.49 412.168 361.49 412.168 361.518C410.474 365.019 408.357 368.322 405.844 371.315H405.816C404.545 370.383 403.303 369.367 402.033 368.435C400.762 367.447 399.379 366.515 398.108 365.471Z" fill="#001E2B"/>
<path d="M294.322 206.799C293.136 204.766 290.171 204.908 289.014 206.884C288.986 206.912 288.986 206.969 288.957 206.997C288.844 207.082 288.76 207.195 288.675 207.307C288.026 208.352 288.393 209.707 289.155 210.583C289.889 211.458 291.018 211.825 292.148 211.599C294.378 211.175 295.451 208.691 294.322 206.799Z" fill="#001E2B"/>
<path d="M250.673 208.437C250.617 207.166 249.77 206.093 248.612 205.613C247.285 205.077 245.789 205.444 244.885 206.545C244.038 207.562 243.897 209.001 244.462 210.074C244.518 210.357 244.631 210.611 244.885 210.865C246.41 212.502 249.036 212.079 250.08 210.413C250.476 209.82 250.701 209.143 250.673 208.437Z" fill="#001E2B"/>
<path d="M275.745 228.906C273.458 229.894 271.03 230.318 269.223 228.144C267.388 225.941 268.094 222.441 268.263 219.843C268.687 213.236 269.308 206.63 269.477 200.023C269.534 198.047 266.654 198.132 266.456 200.023C266.033 204.117 265.835 208.211 265.581 212.305C265.327 216.229 264.819 220.21 264.847 224.163C264.875 227.353 266.061 230.402 268.941 232.068C271.538 233.564 275.406 233.536 277.58 231.306C278.879 229.979 277.241 228.228 275.745 228.906Z" fill="#001E2B"/>
<path d="M289.495 239.804C281.957 237.828 273.148 241.922 271.031 249.77C270.607 251.351 273.092 252.537 273.769 250.928C274.955 248.105 276.536 245.677 279.218 244.096C282.07 242.402 285.458 242.034 288.648 242.881C290.625 243.39 291.472 240.34 289.495 239.804Z" fill="#001E2B"/>
<path d="M297.372 191.017C296.215 189.69 294.718 188.617 293.109 187.911C290.879 186.923 284.809 185.427 284.724 189.549C284.696 190.537 285.147 191.243 285.769 191.807C285.881 192.005 286.023 192.174 286.249 192.316C287.943 193.501 289.919 194.377 291.895 194.885C293.392 195.28 295.678 195.873 297.203 195.308C299.405 194.461 298.502 192.287 297.372 191.017Z" fill="#001E2B"/>
<path d="M251.239 188.561C249.799 184.636 243.955 187.77 241.725 190C240.313 191.045 238.647 192.429 238.958 194.179C239.268 196.042 241.245 196.325 242.769 195.958C244.858 195.421 246.948 194.32 248.726 193.134C250.223 192.118 252.001 190.593 251.239 188.561Z" fill="#001E2B"/>
<path d="M338.735 463.751C329.982 467.026 323.404 476.964 324.138 486.338C324.279 488.201 327.018 488.229 327.074 486.309C327.357 477.529 332.043 470.357 339.892 466.461C341.417 465.727 340.344 463.158 338.735 463.751Z" fill="#001E2B"/>
<path d="M351.523 471.882C346.808 473.265 342.488 475.863 338.846 479.138C335.684 481.99 330.913 486.761 332.522 491.476C333.143 493.311 335.769 492.549 335.402 490.657C334.978 488.568 336.192 486.704 337.463 485.123C338.733 483.514 340.201 482.046 341.782 480.719C344.916 478.065 348.53 476.173 352.342 474.734C354.092 474.112 353.386 471.346 351.523 471.882Z" fill="#001E2B"/>
<path d="M302.593 295.65C300.56 296.892 298.668 298.332 296.579 299.518C294.546 300.675 292.457 301.692 290.283 302.539C285.907 304.261 281.277 305.447 276.618 305.927C267.471 306.858 258.154 305.334 249.825 301.466C245.025 299.235 240.79 296.299 236.781 292.911C235.285 291.64 233.167 293.673 234.607 295.085C248.808 308.976 271.169 312.957 289.634 306.322C294.8 304.458 300.447 301.889 304.513 298.106C305.811 296.892 304.117 294.718 302.593 295.65Z" fill="#001E2B"/>
<path d="M359.202 317.672C341.105 309.117 322.527 303.103 307.592 290.172C300.054 283.65 295.367 275.463 293.955 265.638C299.235 261.036 303.357 255.756 306.66 249.657C309.145 245.112 310.839 240.425 312.533 235.541C318.066 236.416 322.33 233.734 323.826 228.313C327.75 226.845 330.659 224.106 332.437 220.38C334.555 215.947 335.345 211.458 335.938 206.686C336.305 203.807 336.22 201.04 336.108 198.16C340.314 193.981 341.754 188.419 340.343 182.66C339.157 177.747 335.91 174.641 331.76 172.1C333.115 168.43 333.821 164.619 332.889 160.751C331.618 155.471 328.597 151.518 323.967 148.893C322.979 148.328 322.301 148.921 321.821 149.627C297.202 157.927 271.227 159.932 245.507 156.007C238.392 154.906 231.672 152.93 224.671 151.095C224.219 150.558 223.767 150.276 223.033 150.53C212.813 153.946 205.613 163.038 205.754 174.02C203.467 174.754 201.293 175.94 199.91 177.917C197.651 181.135 196.917 184.608 197.397 188.448C198.301 195.647 202.027 201.604 207.702 206.009C206.996 208.889 206.517 211.881 206.742 214.846C207.081 219.194 208.069 222.977 210.384 226.676C212.333 229.753 214.987 231.701 218.431 232.717C219.25 235.71 219.701 238.279 222.412 240.284C224.416 241.78 227.663 242.43 229.978 241.018C233.169 249.29 237.15 257.026 243.276 263.548C242.599 273.543 238.477 282.521 231.531 289.721C221.283 299.913 208.069 305.955 194.828 311.601C194.404 311.799 194.066 312.166 193.953 312.618V312.646C193.642 313.86 194.884 314.876 196.014 314.368C201.66 311.856 207.307 309.314 212.728 306.491C223.146 301.099 229.894 296.638 235.315 290.313C241.244 283.594 245.253 275.322 246.241 266.315C249.375 268.687 252.255 270.917 255.953 272.498C265.609 276.62 275.886 275.971 285.316 271.425C287.377 270.437 289.24 269.195 291.104 267.896C293.503 285.937 309.484 297.485 324.504 305.277C338.649 312.618 354.064 318.01 367.842 326.226C368.011 324.984 368.181 323.742 368.265 322.499C365.386 320.777 362.336 319.168 359.202 317.672ZM317.332 214.733C317.474 214.676 317.615 214.62 317.756 214.507C321.821 211.232 325.238 207.562 328.089 203.157C329.388 201.124 330.376 198.95 331.364 196.776C331.76 197.2 332.155 197.595 332.635 197.934C332.804 204.145 332.522 210.131 330.517 216.116C329.36 219.504 327.609 222.61 324.25 224.445C321.426 225.97 318.151 225.546 315.977 223.062C315.921 223.005 315.864 222.92 315.808 222.864C316.344 220.154 316.852 217.443 317.332 214.733ZM309.653 186.867C309.681 188.052 309.681 189.238 309.653 190.396C309.596 192.316 306.801 192.287 306.688 190.396C306.632 189.21 306.604 188.052 306.604 186.867C306.604 184.89 309.625 184.918 309.653 186.867ZM297.202 174.105C299.15 177.295 302.228 179.356 305.841 180.26C307.733 180.74 306.914 183.479 305.051 183.168C300.646 182.377 296.835 179.469 294.576 175.658C293.588 173.964 296.186 172.439 297.202 174.105ZM229.075 181.389C232.237 180.683 235.173 179.667 237.771 177.634C240.312 175.63 242.147 173.004 243.502 170.096C244.208 168.571 246.749 169.672 246.184 171.225C243.756 178.086 236.811 183.761 229.47 184.297C227.804 184.41 227.466 181.728 229.075 181.389ZM225.376 226.873C223.682 228.962 221.424 230.007 218.77 229.301C215.636 228.454 213.688 226.111 212.248 223.4C210.61 220.267 210.017 216.907 209.933 213.462C209.876 210.837 210.582 208.606 211.203 206.15C211.457 206.489 211.655 206.771 211.937 207.11C213.772 209.312 215.834 211.147 218.431 212.418C218.657 213.039 218.826 213.604 219.109 214.225C220.294 216.879 221.763 219.165 224.134 220.944C224.614 222.836 225.094 224.727 225.602 226.619C225.518 226.676 225.461 226.76 225.376 226.873ZM287.772 266.315C279.556 271.736 269.674 273.712 260.16 270.72C254.852 269.054 250.504 265.609 246.354 261.995C245.874 261.572 245.479 261.205 245.111 260.697C243.079 258.41 241.102 256.038 239.493 253.469C233.112 243.249 230.12 231.616 227.07 220.069C227.07 220.041 227.042 219.984 227.042 219.956C227.014 219.73 226.957 219.532 226.816 219.335C225.998 218.29 224.953 217.471 224.106 216.399C223.287 215.354 222.581 214.14 222.073 212.926C221.565 211.712 221.254 210.526 221.057 209.256C220.972 208.663 220.972 208.126 220.944 207.533C224.049 204.964 226.308 202.028 227.946 198.301C229.018 195.816 229.611 193.134 229.922 190.452C237.743 190.029 244.377 185.06 247.427 177.888C252.142 178.82 256.659 178.142 260.922 176.025C263.915 174.557 265.976 172.439 268.037 169.955C269.59 172.27 271.51 174.049 274.361 174.557C278.935 175.376 282.944 174.077 287.01 171.988C288.111 176.279 289.89 179.808 293.475 182.603C296.581 185.031 300.195 185.991 304.091 186.245C304.43 195.704 308.157 204.456 314.904 211.091C314.791 211.288 314.735 211.458 314.678 211.684C310.923 231.955 306.124 254.203 287.772 266.315Z" fill="#001E2B"/>
<path d="M349.914 74.4979C346.837 67.129 339.75 62.1599 331.562 63.5998C327.214 64.3621 323.346 67.1572 321.059 70.9405C320.043 72.6345 322.612 74.1026 323.685 72.4651C326.085 68.7947 330.122 66.4514 334.555 66.5078C338.903 66.5643 342.799 68.8794 345.171 72.4651C347.486 75.966 348.474 80.1445 348.474 84.3231C348.502 89.7156 346.921 94.7412 345.905 99.9643C345.538 101.969 348.333 102.759 348.954 100.811C351.664 92.6237 353.358 82.742 349.914 74.4979Z" fill="#001E2B"/>
<path d="M329.388 61.0306C328.174 52.0524 324.25 40.5049 313.832 39.178C303.47 37.851 296.016 46.3775 290.624 53.944C289.466 55.5815 292.12 57.0779 293.278 55.4968C297.993 49.1161 304.289 41.4366 313.182 42.3119C317.163 42.7071 320.297 45.3893 322.273 48.7208C324.617 52.6453 325.125 57.1061 326.198 61.4541C326.65 63.2045 329.642 62.894 329.388 61.0306Z" fill="#001E2B"/>
<path d="M239.718 53.1252C237.374 48.8902 234.579 44.5988 230.514 41.8319C226.702 39.2344 222.015 38.5286 217.724 40.3638C208.463 44.3164 206.148 55.7509 208.322 64.7009C208.718 66.3102 211.456 65.9996 211.259 64.3056C210.75 60.0142 210.355 55.8074 211.71 51.6006C212.84 48.0715 215.352 44.9376 218.769 43.3565C222.326 41.7472 226.137 42.566 229.243 44.8529C232.688 47.3656 234.692 51.2054 236.894 54.7345C237.995 56.5415 240.734 54.9604 239.718 53.1252Z" fill="#001E2B"/>
<path d="M215.411 70.6864C212.87 67.8348 208.41 67.1572 204.824 67.9195C201.041 68.7383 197.879 71.364 195.761 74.5261C190.453 82.4314 192.062 93.0472 193.022 101.941C193.22 103.889 196.185 104.002 196.128 101.941C195.959 93.9224 193.615 85.3112 197.512 77.7729C198.98 74.9214 201.351 72.3521 204.457 71.2793C207.788 70.1499 210.838 70.9687 213.605 72.9733C215.044 73.9897 216.456 71.8439 215.411 70.6864Z" fill="#001E2B"/>
<path d="M256.659 42.8201C254.993 40.2791 252.085 37.9075 249.431 36.4958C248.02 35.7617 246.298 37.6816 247.653 38.8109C248.782 39.7426 249.996 40.6179 251.097 41.5778C252.227 42.5377 253.186 43.6671 254.344 44.5988C255.53 45.5869 257.647 44.3447 256.659 42.8201Z" fill="#001E2B"/>
<path d="M260.444 34.9994C259.428 37.371 258.778 40.0814 259.202 42.6789C259.512 44.4294 261.856 43.7518 262.053 42.2836C262.336 40.1661 262.477 38.1898 263.098 36.1288C263.606 34.5759 261.093 33.4466 260.444 34.9994Z" fill="#001E2B"/>
<path d="M281.138 64.955C280.997 64.4186 280.574 64.0233 280.065 63.8821C280.065 63.8821 280.065 63.8821 280.037 63.8821C279.981 63.8539 279.896 63.8257 279.811 63.7974C279.67 63.7692 279.529 63.7692 279.416 63.741C279.134 63.741 278.88 63.8257 278.654 63.9386C278.654 63.9386 278.625 63.9386 278.625 63.9668C278.597 63.9951 278.343 64.1927 278.315 64.2209L278.287 64.2492C278.202 64.3621 278.117 64.4468 278.032 64.5597C277.863 64.8421 277.807 65.0962 277.807 65.435C277.807 65.5761 277.835 65.7455 277.863 65.8867V65.9149C277.863 65.9149 277.863 65.9149 277.863 65.9432L278.032 66.3102C278.089 66.4514 278.202 66.5643 278.287 66.6772C278.287 66.6772 278.287 66.6772 278.315 66.7055C278.371 66.7619 278.428 66.7902 278.484 66.8184C278.541 66.8749 278.597 66.9031 278.654 66.9596H278.682L279.049 67.129C279.049 67.129 279.049 67.129 279.077 67.129C279.162 67.1572 279.218 67.1572 279.303 67.1572C279.388 67.1572 279.444 67.1854 279.529 67.1854H279.557C279.726 67.1854 279.868 67.1572 280.009 67.129C280.348 67.016 280.348 66.9878 280.573 66.8184C280.658 66.7619 280.715 66.7055 280.771 66.649C280.856 66.5361 280.941 66.4514 281.025 66.3384C281.025 66.3384 281.025 66.3384 281.025 66.3102C281.053 66.2537 281.11 66.1126 281.11 66.1126C281.138 66.0561 281.166 65.9714 281.195 65.8867C281.195 65.8867 281.195 65.8867 281.195 65.8585C281.223 65.7173 281.223 65.5761 281.251 65.435C281.195 65.2656 281.166 65.1244 281.138 64.955Z" fill="#001E2B"/>
<path d="M250.645 68.4559C250.617 68.2865 250.532 68.1453 250.476 68.0324C250.447 67.9759 250.391 67.9195 250.334 67.863C250.306 67.8065 250.25 67.7501 250.221 67.6936L250.193 67.6654C250.137 67.6089 250.08 67.5807 250.024 67.5242C249.967 67.4677 249.911 67.4395 249.854 67.4113C249.854 67.4113 249.826 67.4113 249.826 67.383C249.685 67.2983 249.544 67.2419 249.403 67.2136C249.262 67.1854 249.092 67.1572 248.923 67.1572C248.81 67.1572 248.612 67.1854 248.499 67.2136C248.358 67.2419 248.33 67.2419 248.104 67.383C248.019 67.4395 247.85 67.5524 247.765 67.6371C247.568 67.8348 247.539 67.9195 247.455 68.1453C247.342 68.4277 247.342 68.3994 247.313 68.7665C247.313 68.8229 247.313 68.8512 247.313 68.9076C247.285 69.1053 247.285 69.2747 247.342 69.4723C247.398 69.5852 247.455 69.7264 247.483 69.8393C247.624 70.0652 247.793 70.2628 248.048 70.404C248.16 70.4887 248.33 70.5452 248.471 70.5734C248.556 70.6016 248.64 70.6016 248.697 70.6016C248.782 70.6016 248.866 70.6299 248.923 70.6299C249.064 70.6299 249.233 70.6016 249.403 70.5734C249.516 70.5452 249.685 70.4605 249.798 70.404C249.826 70.404 249.826 70.404 249.826 70.3758C249.911 70.3193 250.08 70.2064 250.137 70.1217L250.165 70.0934C250.165 70.0934 250.165 70.0934 250.193 70.0652C250.278 69.9523 250.363 69.8676 250.447 69.7546C250.447 69.7546 250.447 69.7264 250.476 69.7264C250.645 69.4441 250.645 69.3876 250.673 69.1053C250.701 68.9923 250.701 68.9641 250.701 68.8794C250.673 68.7382 250.673 68.5971 250.645 68.4559Z" fill="#001E2B"/>
<path d="M317.755 84.6901C315.892 85.7065 313.605 86.0735 311.601 85.7912C309.85 85.5653 310.415 82.9114 311.996 82.8549C313.577 82.7985 314.763 82.5161 316.033 81.9797C318.49 80.3986 319.986 77.2083 319.224 74.2155C318.772 72.4368 317.643 71.0534 316.231 70.1499C315.017 71.8722 313.351 73.3121 311.459 74.1026C309.822 74.7802 309.031 72.2674 310.33 71.3922C312.391 70.0088 313.831 68.4277 314.706 66.2537C315.045 64.5033 314.763 62.6681 313.662 61.1153C311.657 58.3202 308.043 58.2072 304.966 58.9131C301.691 59.6754 298.642 61.5105 296.439 64.0515C295.79 64.4186 295.395 65.2091 295.875 66.0843C298.331 70.6864 299.997 75.4013 300.928 80.5398C301.408 83.2502 301.691 85.9606 301.917 88.6992C302.142 91.5226 302.03 94.4306 302.481 97.2539C302.538 97.5927 302.679 97.8468 302.848 98.0162C303.018 98.3833 303.328 98.6656 303.808 98.7221C306.914 99.1738 309.991 99.1456 313.012 98.2139C315.61 97.3951 318.574 96.1246 319.817 93.5271C321.341 90.2238 320.071 87.0617 317.755 84.6901Z" fill="#001E2B"/>
<path d="M233.001 90.1956C233.029 89.4615 233.029 88.6992 233.057 87.9652C233.029 86.61 233.142 85.2265 233.226 83.8713C233.255 83.5608 233.283 83.2502 233.311 82.9396C233.565 79.2693 233.96 75.5707 234.723 71.9851C232.238 70.0088 229.133 68.7383 225.942 68.5124C222.808 68.2583 219.223 68.9077 217.67 71.9851C216.315 74.639 217.077 77.7447 219.025 79.8622C218.997 79.8622 218.969 79.8904 218.94 79.8904C219.674 80.3422 220.437 80.4551 221.34 80.5963C222.78 80.7939 222.752 83.222 221.34 83.4761C219.561 83.7866 217.642 83.0526 216.428 81.7256C216.371 81.6409 216.315 81.5844 216.258 81.4997C215.101 82.5726 214.31 84.0407 214.141 85.763C213.802 89.2074 216.258 92.4825 219.449 93.3295C220.041 93.1601 220.606 92.9625 221.227 92.6801C221.933 92.3413 222.695 92.4543 223.175 93.0754C223.599 93.6118 223.655 94.6 223.062 95.0517C221.368 96.3787 219.053 96.9716 216.936 96.6046C216.879 96.6046 216.823 96.5763 216.766 96.5481C215.129 99.1173 214.592 102.167 216.484 104.962C218.093 107.361 221.199 108.18 223.909 108.604C227.043 109.084 230.064 108.66 233.085 107.757C233.368 107.672 233.593 107.531 233.735 107.333C232.831 101.658 232.859 95.7858 233.001 90.1956Z" fill="#001E2B"/>
<path d="M239.493 423.377C237.997 423.151 236.472 422.954 234.976 422.784C234.778 419.029 234.553 415.246 234.298 411.491C234.157 409.543 231.136 409.486 231.221 411.491C231.362 415.161 231.56 418.832 231.757 422.502C224.191 421.994 216.624 422.446 209.143 423.857C208.973 402.993 208.973 407.51 208.578 386.646C208.55 384.669 205.5 384.669 205.5 386.646C205.444 408.159 205.783 404.291 205.952 425.805C205.952 426.878 206.969 427.556 207.985 427.358C215.834 425.692 223.937 425.212 231.955 425.918C232.068 428.008 232.181 430.097 232.294 432.186C232.463 435.546 232.661 438.906 232.83 442.265C233.028 445.738 232.943 449.324 233.48 452.74C233.762 454.575 236.501 454.01 236.557 452.316C236.698 449.013 236.247 445.569 236.049 442.265C235.851 438.821 235.654 435.376 235.456 431.932C235.343 430.04 235.258 428.177 235.145 426.285C236.275 426.426 237.404 426.596 238.533 426.793C240.792 427.189 241.724 423.744 239.493 423.377Z" fill="#001E2B"/>
<path d="M328.515 411.943C327.018 411.717 325.494 411.519 323.998 411.35C323.8 407.595 323.574 403.811 323.32 400.056C323.179 398.108 320.158 398.052 320.242 400.056C320.384 403.727 320.581 407.397 320.779 411.067C313.212 410.559 305.646 411.011 298.164 412.423C297.995 391.558 297.995 396.075 297.599 375.211C297.571 373.235 294.522 373.235 294.522 375.211C294.465 396.725 294.804 392.857 294.974 414.371C294.974 415.444 295.99 416.121 297.006 415.924C304.855 414.258 312.958 413.778 320.977 414.484C321.089 416.573 321.202 418.662 321.315 420.751C321.485 424.111 321.682 427.471 321.852 430.831C322.049 434.303 321.965 437.889 322.501 441.305C322.783 443.14 325.522 442.576 325.579 440.882C325.72 437.578 325.268 434.134 325.07 430.831C324.873 427.386 324.675 423.942 324.477 420.497C324.365 418.606 324.28 416.742 324.167 414.851C325.296 414.992 326.426 415.161 327.555 415.359C329.785 415.726 330.717 412.281 328.515 411.943Z" fill="#001E2B"/>
<path d="M280.516 399.605C271.622 394.466 259.821 395.652 252.621 403.162C244.97 411.124 245.478 424.676 251.746 432.61C258.014 440.543 264.394 443.762 272.554 442.774C282.52 441.559 290.68 433.88 292.232 423.914C293.757 414.145 289.07 404.517 280.516 399.605ZM275.264 438.99C267.133 441.334 259.454 437.72 254.484 431.254C254.428 431.141 253.383 430.153 252.056 427.471C248.697 421.175 248.838 413.524 253.157 407.454C258.437 400.056 268.488 397.657 276.732 401.214C284.355 404.489 289.55 412.056 289.409 420.413C289.24 429.024 283.593 436.619 275.264 438.99Z" fill="#001E2B"/>
<path d="M198.556 464.965C207.308 468.24 213.886 478.178 213.152 487.552C213.011 489.415 210.272 489.443 210.216 487.523C209.934 478.743 205.247 471.571 197.398 467.675C195.902 466.941 196.975 464.372 198.556 464.965Z" fill="#001E2B"/>
<path d="M185.794 473.096C190.509 474.48 194.829 477.077 198.471 480.352C201.633 483.204 206.404 487.975 204.795 492.69C204.174 494.525 201.548 493.763 201.915 491.871C202.339 489.782 201.125 487.919 199.854 486.338C198.584 484.728 197.116 483.26 195.535 481.933C192.401 479.279 188.787 477.388 184.975 475.948C183.225 475.327 183.931 472.56 185.794 473.096Z" fill="#001E2B"/>
<path d="M154.454 455.253C151.772 454.886 149.259 454.236 146.634 453.643C145.109 453.304 143.98 455.507 145.533 456.297C148.102 457.568 151.208 458.161 154.059 458.189C155.697 458.217 156.177 455.478 154.454 455.253Z" fill="#001E2B"/>
<path d="M476.821 190.847C473.094 191.299 469.395 192.174 465.725 192.965C464.765 193.163 463.805 193.388 462.845 193.586C462.591 192.231 462.365 190.876 462.111 189.492C461.631 186.725 461.151 183.958 460.671 181.22C461.151 181.135 461.631 181.05 462.111 180.966C463.975 180.627 465.866 180.316 467.73 180.034C469.678 179.752 471.711 179.611 473.602 179.131C475.212 178.707 474.873 176.223 473.207 176.223C469.537 176.251 465.669 177.182 462.055 177.804C461.405 177.917 460.756 178.029 460.107 178.142C459.627 175.46 459.119 172.778 458.526 170.096C458.102 168.176 455.392 169.051 455.646 170.886C456.013 173.512 456.436 176.138 456.888 178.735C454.771 179.159 452.681 179.582 450.592 180.062C447.769 180.683 444.945 181.361 442.122 182.067C441.755 177.86 441.388 173.653 441.021 169.418C440.852 167.47 437.774 167.442 437.944 169.418C438.311 173.907 438.706 178.368 439.073 182.857C435.459 183.846 431.902 184.918 428.401 186.161C426.594 186.81 427.3 189.633 429.191 189.069C432.579 188.081 435.939 187.092 439.327 186.132C439.468 187.883 439.638 189.633 439.779 191.412C440.005 194.066 440.23 196.748 440.456 199.402C437.802 200.164 435.148 200.955 432.636 202C430.942 202.705 431.506 205.275 433.426 204.823C435.882 204.23 438.311 203.468 440.739 202.677L441.19 207.844C441.332 209.623 441.36 211.514 441.783 213.265C442.179 214.959 444.635 214.507 444.72 212.869C444.804 211.034 444.494 209.143 444.324 207.307C444.183 205.557 444.014 203.778 443.873 202.028C443.873 201.943 443.844 201.858 443.844 201.745C444.014 201.689 444.211 201.633 444.381 201.576C447.938 200.56 451.552 199.572 455.138 198.668C456.832 198.245 458.554 197.821 460.276 197.426C460.389 198.132 460.53 198.809 460.643 199.515C461.208 202.734 461.631 206.037 462.422 209.227C462.845 210.865 465.612 210.583 465.443 208.832C465.104 205.613 464.37 202.423 463.805 199.233C463.664 198.414 463.495 197.567 463.354 196.748C464.229 196.551 465.104 196.353 465.979 196.155C469.706 195.365 473.489 194.8 477.16 193.897C478.854 193.473 478.571 190.622 476.821 190.847ZM454.601 195.562C450.987 196.466 447.402 197.454 443.844 198.47C443.76 198.499 443.675 198.527 443.59 198.527C443.364 196.071 443.167 193.586 442.941 191.13C442.771 189.182 442.602 187.234 442.433 185.285C445.341 184.495 448.249 183.761 451.213 183.111C453.302 182.632 455.392 182.208 457.509 181.785C458.017 184.523 458.526 187.29 459.006 190.029C459.26 191.44 459.514 192.852 459.768 194.264C458.046 194.715 456.323 195.139 454.601 195.562Z" fill="#001E2B"/>
<path d="M101.235 230.402C97.6776 229.188 93.979 228.37 90.3369 227.494C89.377 227.268 88.417 227.043 87.4853 226.817C87.8524 225.49 88.2194 224.163 88.6147 222.808C89.377 220.125 90.1393 217.415 90.9298 214.733C91.4098 214.874 91.8615 214.987 92.3415 215.128C94.1766 215.636 95.9836 216.173 97.8187 216.737C99.7104 217.302 101.602 218.064 103.522 218.46C105.159 218.798 105.95 216.37 104.425 215.665C101.094 214.083 97.2258 213.265 93.6967 212.248C93.0755 212.079 92.4262 211.881 91.805 211.712C92.5391 209.086 93.2449 206.432 93.8943 203.778C94.346 201.858 91.5227 201.491 90.958 203.242C90.1393 205.755 89.4052 208.296 88.6711 210.865C86.5819 210.328 84.5208 209.792 82.4033 209.312C79.58 208.663 76.7284 208.013 73.8769 207.449C75.3732 203.496 76.8696 199.543 78.366 195.591C79.0436 193.755 76.3049 192.4 75.5991 194.264C73.9898 198.47 72.3805 202.677 70.7712 206.856C67.1009 206.178 63.4305 205.585 59.732 205.19C57.8121 204.992 57.2474 207.844 59.1955 208.154C62.6682 208.747 66.1409 209.312 69.6136 209.905C68.9925 211.542 68.3714 213.208 67.722 214.846C66.7621 217.33 65.8304 219.843 64.8704 222.328C62.16 221.848 59.4214 221.424 56.711 221.283C54.8758 221.198 54.2829 223.739 56.1746 224.163C58.6309 224.699 61.1719 225.038 63.6846 225.405L61.8495 230.261C61.2001 231.927 60.4096 233.621 60.0143 235.4C59.619 237.094 62.0471 237.743 62.8376 236.303C63.7129 234.694 64.2493 232.83 64.8987 231.108C65.5198 229.442 66.1409 227.805 66.7903 226.139C66.8185 226.054 66.8468 225.97 66.875 225.885C67.0726 225.913 67.242 225.941 67.4397 225.97C71.11 226.591 74.7521 227.268 78.3942 228.031C80.1164 228.398 81.8387 228.765 83.5609 229.132C83.3633 229.809 83.1939 230.487 82.9962 231.165C82.121 234.327 81.0481 237.461 80.3988 240.679C80.06 242.317 82.6857 243.277 83.2786 241.611C84.3797 238.562 85.1137 235.371 85.9607 232.266C86.1866 231.447 86.4125 230.628 86.6383 229.838C87.5136 230.035 88.3888 230.261 89.264 230.459C92.9626 231.362 96.6047 232.492 100.331 233.254C101.941 233.677 102.901 230.967 101.235 230.402ZM79.1565 225.01C75.5144 224.276 71.8723 223.598 68.202 222.977C68.1173 222.977 68.0326 222.949 67.9479 222.92C68.8231 220.605 69.6983 218.29 70.5736 215.975C71.2794 214.14 71.957 212.333 72.6346 210.498C75.5991 211.062 78.5354 211.655 81.4716 212.333C83.5609 212.813 85.6502 213.349 87.7112 213.886C86.9771 216.596 86.2431 219.278 85.4808 221.961C85.0855 223.344 84.7185 224.727 84.3232 226.111C82.6292 225.744 80.907 225.377 79.1565 225.01Z" fill="#001E2B"/>
<path d="M281.334 352.483C277.692 353.387 274.135 354.714 270.577 355.956C269.646 356.267 268.714 356.605 267.81 356.944C267.387 355.617 266.992 354.29 266.568 352.991C265.749 350.309 264.931 347.627 264.112 344.945C264.564 344.804 265.044 344.663 265.495 344.521C267.302 343.957 269.137 343.42 270.944 342.912C272.836 342.376 274.841 341.98 276.676 341.275C278.229 340.653 277.579 338.225 275.913 338.423C272.271 338.903 268.573 340.286 265.044 341.359C264.422 341.557 263.773 341.755 263.152 341.952C262.333 339.355 261.514 336.729 260.611 334.16C259.962 332.296 257.392 333.51 257.872 335.289C258.55 337.858 259.312 340.399 260.103 342.94C258.07 343.618 256.037 344.296 254.004 345.03C251.266 346.018 248.555 347.006 245.845 348.079C244.97 343.957 244.066 339.807 243.163 335.684C242.739 333.765 239.69 334.132 240.114 336.08C241.045 340.484 241.977 344.888 242.909 349.293C239.464 350.705 236.048 352.229 232.745 353.895C231.022 354.77 232.095 357.481 233.902 356.69C237.149 355.278 240.368 353.895 243.614 352.54C243.981 354.262 244.349 355.984 244.716 357.706C245.28 360.332 245.817 362.93 246.381 365.555C243.84 366.628 241.299 367.729 238.956 369.084C237.375 369.988 238.25 372.472 240.085 371.795C242.457 370.92 244.772 369.819 247.087 368.774L248.16 373.856C248.527 375.606 248.781 377.47 249.402 379.164C249.995 380.801 252.395 380.039 252.254 378.401C252.113 376.566 251.576 374.731 251.181 372.924C250.814 371.202 250.447 369.452 250.08 367.729C250.052 367.645 250.052 367.56 250.023 367.475C250.193 367.39 250.362 367.334 250.532 367.249C253.948 365.781 257.392 364.37 260.865 363.043C262.503 362.393 264.14 361.772 265.806 361.179C266.003 361.857 266.229 362.534 266.427 363.184C267.387 366.318 268.206 369.536 269.391 372.585C270.013 374.166 272.723 373.517 272.328 371.795C271.594 368.661 270.493 365.555 269.533 362.478C269.279 361.659 269.024 360.869 268.77 360.05C269.617 359.739 270.464 359.457 271.311 359.146C274.897 357.904 278.596 356.859 282.125 355.504C283.706 354.827 283.056 352.06 281.334 352.483ZM259.877 359.909C256.404 361.264 252.988 362.675 249.572 364.144C249.487 364.172 249.402 364.2 249.346 364.257C248.838 361.828 248.301 359.429 247.793 357.001C247.398 355.081 246.974 353.189 246.579 351.269C249.374 350.14 252.169 349.039 255.021 348.022C257.025 347.288 259.058 346.611 261.091 345.933C261.938 348.615 262.785 351.269 263.604 353.923C264.027 355.278 264.451 356.662 264.874 358.017C263.18 358.638 261.543 359.259 259.877 359.909Z" fill="#001E2B"/>
<path d="M374.761 131.388C371.571 128.311 367.534 126.024 363.214 124.838C363.75 123.934 364.202 123.003 364.569 121.986C365.868 118.401 365.416 114.872 363.863 111.851C364.851 111.653 365.868 111.399 366.828 111.201C368.889 110.806 370.95 110.411 372.983 109.874C374.874 109.394 374.027 106.797 372.192 107.051C370.216 107.333 368.239 107.728 366.263 108.124C364.908 108.406 363.468 108.604 362.085 108.914C362.932 107.559 363.948 106.345 365.19 105.188C366.404 104.058 364.795 101.884 363.412 102.872C361.915 103.917 360.645 105.272 359.657 106.797C357.172 104.82 354.123 103.465 350.961 103.155C344.665 102.477 339.074 104.877 334.303 108.604C336.477 111.06 338.284 113.883 339.329 116.933C339.893 118.542 337.437 119.502 336.646 118.062C334.783 114.674 332.863 111.625 330.237 108.943C329.221 108.208 328.148 107.559 327.075 107.023C322.756 104.877 318.069 103.494 313.269 102.929C304.602 101.884 295.567 104.284 289.44 110.693C287.266 112.952 285.516 115.662 284.471 118.655C283.907 121.026 283.737 123.37 283.511 125.798C283.342 127.718 280.773 127.689 280.575 125.798C280.264 123.059 280.773 120.151 281.507 117.469C277.695 116.142 273.63 115.493 269.62 115.577C265.216 115.69 260.896 116.678 256.887 118.429C254.854 119.304 252.935 120.377 251.128 121.619C250.281 122.212 249.321 122.862 248.417 123.596C247.344 120.688 245.029 118.118 242.686 116.311C239.298 113.714 235.148 112.274 230.997 111.54C224.024 110.298 216.542 111.004 209.935 113.686C210.867 115.493 211.573 117.413 211.94 119.361C212.307 121.281 209.653 122.015 209.032 120.179C208.439 118.401 207.733 116.707 206.914 115.097H206.886C203.159 107.39 192.91 104.453 185.824 109.874C182.521 112.387 180.347 116.227 180.093 120.377C175.801 119.728 171.312 120.038 167.246 121.478C165.439 122.128 166.145 124.866 168.037 124.386C172.159 123.313 176.225 123.003 180.29 123.652C180.742 126.306 181.871 128.791 183.396 131.021C179.584 133.703 176.14 136.894 173.26 140.592C172.102 142.088 174.107 144.206 175.378 142.71C178.342 139.209 181.645 136.103 185.344 133.449C185.767 133.901 186.191 134.324 186.643 134.72C190.624 138.305 195.564 140.507 200.505 142.399C205.615 144.347 210.81 146.069 216.062 147.537C226.395 150.446 237.011 152.422 247.711 153.523C269.197 155.725 291.078 154.201 312.055 149.119C322.586 146.578 332.863 143.077 342.773 138.729C345.963 137.317 349.549 135.821 352.937 133.929C354.885 136.131 356.127 138.87 356.72 141.806C357.031 143.415 359.826 143.077 359.6 141.411C359.177 137.995 357.765 134.889 355.591 132.32C357.68 130.965 359.628 129.383 361.209 127.577C365.416 128.621 369.284 130.597 372.7 133.449C374.112 134.663 376.145 132.715 374.761 131.388ZM199.122 122.495C197.513 119.728 194.294 119.699 192.741 122.551C191.922 124.047 189.353 123.003 189.974 121.393C192.063 116.001 199.856 115.86 201.945 121.309C202.566 122.974 199.969 123.934 199.122 122.495ZM216.514 140.649C215.864 138.7 215.384 135.764 213.041 135.143C210.613 134.494 209.314 137.684 208.524 139.378C207.789 140.931 205.192 139.802 205.785 138.22C206.971 135.058 209.342 131.444 213.238 132.009C217.022 132.574 218.8 136.498 219.393 139.858C219.76 141.75 217.135 142.512 216.514 140.649ZM232.24 126.842C231.59 125.685 231.025 124.556 229.614 124.245C228.146 123.906 226.847 124.781 226.056 125.939C225.209 127.181 222.781 126.419 223.431 124.838C224.475 122.24 227.101 120.659 229.896 121.055C232.409 121.393 234.865 123.483 235.006 126.108C235.119 127.605 232.974 128.085 232.24 126.842ZM255.758 144.037C253.979 142.145 251.721 140.874 249.038 140.931C246.441 140.987 244.013 142.399 242.488 144.46C241.359 145.985 238.818 144.601 239.891 142.935C244.013 136.583 253.499 136.075 258.073 142.201C259.146 143.613 256.887 145.251 255.758 144.037ZM271.54 129.016C269.592 127.125 266.91 125.967 264.171 126.475C261.292 126.984 259.485 128.988 258.101 131.416C257.282 132.856 254.939 131.868 255.419 130.287C257.734 122.607 268.689 120.885 273.601 126.955C274.787 128.395 272.924 130.372 271.54 129.016ZM298.164 143.331C295.934 141.834 293.675 140.338 290.88 140.423C288.283 140.507 286.278 142.06 285.798 144.629C285.488 146.323 282.692 145.9 282.834 144.234C283.144 140.62 286.052 137.966 289.553 137.402C293.365 136.781 297.204 138.446 300.028 140.931C301.326 142.06 299.604 144.262 298.164 143.331ZM313.721 122.41C312.14 119.869 309.26 118.118 306.211 118.598C303.275 119.05 301.072 121.337 300.197 124.076C299.604 125.939 296.922 125.148 297.317 123.285C298.164 119.276 301.75 116.086 305.759 115.493C309.938 114.872 314.427 117.045 316.347 120.857C317.222 122.607 314.766 124.076 313.721 122.41ZM328.233 133.873C324.817 132.489 321.993 134.098 321.231 137.628C320.892 139.265 318.351 138.842 318.379 137.232C318.464 131.783 324.732 128.452 329.39 131.106C330.83 131.953 329.814 134.522 328.233 133.873ZM354.857 119.248C354.603 117.469 353.106 116.65 351.441 117.469C349.803 118.288 349.041 120.236 349.323 121.986C349.634 123.85 346.839 124.697 346.415 122.777C345.681 119.304 347.347 115.577 350.82 114.335C353.953 113.206 357.906 115.239 357.821 118.824C357.765 120.49 355.083 120.998 354.857 119.248Z" fill="#FFC010"/>
<path d="M265.41 76.9259C268.77 76.333 271.847 75.1755 274.897 73.8485C268.516 68.823 258.606 69.6982 253.524 76.2201C253.468 76.2766 253.411 76.3613 253.383 76.446C257.364 77.4341 261.316 77.66 265.41 76.9259Z" fill="#FFC010"/>
<path d="M254.119 79.8904C256.124 83.9278 260.415 86.5535 265.017 86.1018C269.535 85.6783 273.515 82.4597 274.786 78.1682C274.899 77.9141 274.984 77.6318 275.068 77.3494C268.546 80.201 260.98 81.4997 254.119 79.8904Z" fill="#FFC010"/>
<path d="M326.792 160.045C319.733 155.64 310.332 157.306 304.544 163.009C303.132 164.393 305.306 166.567 306.718 165.183C311.828 160.186 318.999 159.565 325.267 162.642C326.989 163.461 328.458 161.061 326.792 160.045Z" fill="#FFC010"/>
<path d="M317.87 175.686C314.906 171.621 310.473 169.221 305.532 168.6C303.838 168.374 303.415 171.366 305.137 171.62C309.315 172.242 312.816 174.331 315.555 177.493C316.656 178.707 318.858 177.041 317.87 175.686Z" fill="#FFC010"/>
<path d="M221.199 165.183C219.844 161.513 216.484 158.379 213.266 156.262C209.878 154.031 205.953 152.704 201.888 152.478C199.94 152.394 200.053 155.217 201.888 155.443C205.304 155.838 208.607 157.024 211.487 158.887C212.899 159.819 214.169 160.892 215.355 162.106C216.597 163.405 217.444 164.873 218.517 166.284C219.421 167.498 221.821 166.906 221.199 165.183Z" fill="#FFC010"/>
<path d="M233.199 162.473C230.969 160.412 227.468 160.271 225.181 162.332C223.939 163.461 225.548 165.522 226.96 164.647C228.428 163.743 229.981 163.743 231.392 164.76C232.776 165.748 234.413 163.574 233.199 162.473Z" fill="#FFC010"/>
<path d="M218.375 170.463C215.636 172.524 213.039 174.924 210.554 177.295C209.114 178.679 211.204 180.655 212.7 179.441C215.241 177.38 217.895 175.178 220.182 172.835C221.311 171.649 219.758 169.418 218.375 170.463Z" fill="#FFC010"/>
<path d="M251.381 222.328C250.11 220.972 248.247 220.549 246.496 220.323C244.209 220.012 241.951 220.069 239.664 220.408C237.575 220.747 235.203 221.255 233.594 222.695C232.097 224.022 231.42 226.196 232.323 228.031C234.158 231.729 239.692 231.786 243.193 231.08C243.391 231.052 243.616 230.995 243.842 230.939C244.887 230.854 245.932 230.656 246.948 230.431C248.896 229.951 250.957 229.104 251.974 227.268C252.821 225.659 252.651 223.683 251.381 222.328Z" fill="#FFC010"/>
<path d="M306.888 222.525C306.324 220.916 304.827 219.871 303.303 219.222C299.66 217.697 295.03 217.5 291.275 218.742C289.807 219.222 288.311 220.125 287.69 221.593C286.955 222.328 286.447 223.259 286.419 224.304C286.278 228.172 291.078 229.188 294.014 229.499C296.131 229.725 298.249 229.612 300.338 229.273C302.201 228.962 304.263 228.511 305.674 227.184C306.916 225.97 307.453 224.191 306.888 222.525Z" fill="#FFC010"/>
<path d="M414.512 256.208C410.926 255.643 407.792 257.563 405.421 260.104C402.738 263.012 400.395 266.343 398.136 269.59C395.793 272.893 393.591 276.281 391.53 279.726C387.775 285.966 384.415 292.403 381.422 298.981C381.479 296.101 381.309 293.222 380.886 290.342C380.236 285.909 379.079 279.698 374.364 277.75C369.254 275.632 365.132 280.629 364.567 285.26C364.2 288.224 364.708 291.273 365.103 294.21C365.527 297.372 366.007 300.506 366.628 303.64C367.927 310.303 369.536 317.135 372.133 323.431C366.995 339.778 363.579 356.746 361.377 373.715C358.751 393.986 357.621 414.512 357.367 434.953C357.339 436.901 360.332 436.901 360.388 434.953C361.292 408.668 362.562 382.326 367.249 356.464C367.362 356.408 367.447 356.323 367.56 356.238C372.839 351.693 377.695 346.554 382.467 341.472C387.182 336.418 392.038 331.28 396.132 325.718C397.854 323.403 399.012 320.608 398.334 317.7C397.685 314.961 395.313 313.013 392.461 313.126C389.328 313.239 386.984 315.356 384.951 317.559C382.721 319.987 380.632 322.556 378.655 325.21C376.143 328.598 373.827 332.155 371.795 335.882C371.851 335.656 371.908 335.402 371.992 335.176C375.634 321.511 380.406 308.157 386.617 295.452C390.146 293.589 401.553 286.813 407.171 281.392C410.023 278.625 412.705 275.689 415.189 272.583C417.391 269.844 419.65 266.823 419.932 263.181C420.187 259.709 417.928 256.744 414.512 256.208Z" fill="#FFC010"/>
<path d="M452.346 309.766C451.217 306.745 448.196 305.136 445.062 305.108C441.533 305.051 438.512 306.999 435.942 309.23C433.26 311.573 430.748 314.171 428.235 316.712C408.274 337.124 391.955 361.094 380.238 387.126C373.66 401.75 368.437 417.025 364.964 432.666C364.54 434.586 367.448 435.405 367.9 433.485C371.119 419.876 375.438 406.578 380.859 393.732C381.057 393.704 381.283 393.647 381.48 393.535C388.313 389.779 395.145 386.024 401.978 382.269C407.54 379.192 414.033 376.34 417.817 370.976C419.595 368.492 420.245 364.962 417.732 362.704C415.276 360.53 411.831 361.094 409.064 362.224C403.502 364.511 398.364 367.786 393.818 371.71C392.181 373.122 390.6 374.646 389.075 376.256C392.011 370.637 395.145 365.104 398.533 359.711C402.768 352.935 407.342 346.385 412.226 340.061C412.537 340.569 427.896 336.334 434.107 332.635C437.157 330.8 440.065 328.739 442.831 326.509C445.542 324.306 448.309 321.935 450.398 319.14C452.402 316.514 453.588 313.013 452.346 309.766Z" fill="#FFC010"/>
<path d="M345.426 367.503C345.228 361.97 345.228 356.351 344.607 350.846C344.07 345.99 342.913 341.077 339.948 337.096C337.351 333.595 332.212 330.885 328.373 334.301C324.364 337.858 326.368 343.731 327.723 348.022C331.394 359.767 336.447 371.061 342.687 381.648L342.715 381.677C342.913 388.481 343.054 395.285 343.195 402.117C343.421 414.512 343.478 426.906 343.534 439.272C343.534 441.221 346.555 441.249 346.583 439.272C346.753 415.359 346.273 391.417 345.426 367.503Z" fill="#FFC010"/>
<path d="M190.537 285.853C187.121 283.989 183.648 285.966 181.841 289.043C179.695 292.713 178.933 297.344 178.03 301.437C176.957 306.181 176.166 310.952 175.602 315.78C174.981 321.116 174.642 326.537 174.642 331.929C174.331 330.715 173.992 329.501 173.682 328.287C171.254 319.394 168.459 310.613 165.24 301.974C162.36 294.266 158.944 286.643 153.777 280.178C149.486 274.813 141.693 267.924 134.325 271.679C130.993 273.373 129.327 277.128 129.214 280.714C129.073 284.921 131.021 288.958 132.885 292.6C140.028 306.435 151.377 318.152 164.929 325.746C166.595 326.678 168.289 327.553 170.011 328.344C170.096 328.372 170.153 328.4 170.237 328.428C172.298 335.854 175.093 348.361 175.969 352.794C176.9 357.565 177.719 362.337 178.425 367.136C174.755 361.998 170.633 357.198 166.2 352.737C163.235 349.773 160.13 346.978 156.855 344.324C153.834 341.896 150.53 339.016 146.606 338.254C143.077 337.576 139.124 338.677 137.345 342.037C135.539 345.453 136.329 349.491 138.305 352.653C140.395 356.012 143.444 358.92 146.408 361.518C149.345 364.115 152.507 366.459 155.838 368.52C163.151 373.037 171.338 376.171 179.78 377.667C179.865 378.543 179.978 379.39 180.063 380.265C182.095 399.859 182.293 419.622 180.74 439.273C180.571 441.277 183.676 441.249 183.846 439.273C185.455 420.695 185.37 401.976 183.676 383.427C182.688 372.557 181.135 361.772 179.046 351.072C182.575 342.602 185.624 333.962 188.165 325.153C190.848 315.808 193.135 306.181 194.405 296.525C194.913 292.6 194.405 287.942 190.537 285.853Z" fill="#FFC010"/>
<path d="M168.064 434.445C162.191 413.185 150.22 393.535 134.466 378.176C134.184 377.893 133.901 377.611 133.591 377.357C129.582 372.84 125.883 368.153 122.749 362.901C119.502 357.481 116.792 351.749 114.703 345.792C118.147 337.463 119.982 328.541 119.869 319.535C119.813 315.554 119.728 310.754 116.086 308.242C112.642 305.87 108.548 307.959 107.136 311.573C106.317 313.634 106.374 315.921 106.402 318.095C106.459 320.156 106.571 322.217 106.769 324.25C107.164 328.428 107.814 332.551 108.745 336.644C109.451 339.722 110.298 342.771 111.315 345.764C111.258 346.3 111.456 346.808 111.795 347.175C113.376 351.636 115.296 355.956 117.498 360.134C118.796 362.563 120.208 364.962 121.705 367.334C117.131 363.918 112.105 360.53 106.261 360.022C101.602 359.626 96.4639 361.857 94.1206 366.035C91.5513 370.609 93.5559 375.719 97.2827 378.938C101.998 383.003 108.548 385.008 114.59 385.883C121.394 386.871 128.311 386.335 134.861 384.274C135.144 384.189 135.369 384.048 135.539 383.879C141.524 390.175 146.832 397.064 151.378 404.433C157.335 414.088 161.852 424.45 165.099 435.32C165.664 437.127 168.572 436.336 168.064 434.445Z" fill="#FFC010"/>
<path d="M429.815 72.0133C424.225 72.0133 419.68 67.4678 419.68 61.8776C419.68 56.2874 424.225 51.7418 429.815 51.7418C435.406 51.7418 439.951 56.2874 439.951 61.8776C439.951 67.4678 435.406 72.0133 429.815 72.0133ZM429.815 56.2591C426.71 56.2591 424.197 58.7719 424.197 61.8776C424.197 64.9832 426.71 67.496 429.815 67.496C432.921 67.496 435.434 64.9832 435.434 61.8776C435.434 58.7719 432.921 56.2591 429.815 56.2591Z" fill="#FFC010"/>
</svg>
