<svg width="140" height="124" viewBox="0 0 140 124" fill="none" xmlns="http://www.w3.org/2000/svg">
<path d="M19.5987 32.6214C22.2795 37.5191 26.1632 38.9798 29.497 45.7162C27.1427 42.0043 24.7712 43.8774 22.1935 44.3414C19.7018 45.8708 10.1299 47.1081 9.2363 49.7202C9.08164 50.1842 9.03009 50.6997 8.82387 51.1465C8.49736 51.8339 7.80998 52.2807 7.17414 52.7103C-1.83062 58.9827 -1.02294 65.2036 2.37962 74.0708C4.5277 76.9235 7.68968 77.7999 11.1954 80.3948C14.6838 77.8343 18.5332 81.4774 22.0389 80.5323C19.4096 82.3539 16.7632 83.763 14.1339 89.9667C11.3672 95.2595 12.278 96.8233 12.7248 100.57C13.1888 105.433 15.0447 107.443 17.7427 109.746C20.4579 111.705 24.0151 109.145 27.8817 112.29C31.4045 111.516 34.1197 112.977 36.6287 108.457C39.1376 109.179 41.4747 103.439 44.2587 102.185C43.9321 108.75 43.8634 109.403 45.8053 115.984C48.5205 121.896 54.5695 124.095 60.8762 123.889C67.183 123.683 73.7647 121.037 77.511 117.273C79.8825 114.884 81.2744 111.207 80.0371 108.079C84.1786 113.286 90.8291 116.551 97.4796 116.087C103.786 115.658 109.251 111.533 112.018 105.931C115.678 98.4731 113.032 93.4895 108.546 87.1827C115.489 87.7498 122.5 87.4405 129.357 86.3063C132.949 85.7049 136.936 84.5363 138.568 81.2884C139.187 80.0339 139.376 78.6248 139.548 77.25C141.318 63.3304 138.345 51.8683 122.518 50.9575C125.748 51.1465 129.598 42.0386 130.388 39.4781C132.021 34.2024 132.743 27.7066 129.581 22.8777C126.298 17.8942 119.699 15.368 113.925 16.8803C107.636 18.5128 102.034 24.3384 95.7439 22.7059C99.7479 23.7542 95.4861 7.9099 94.2317 6.41484C90.5026 2.03275 83.9724 -0.819908 78.2671 0.211172C72.6133 1.24225 67.7845 7.82398 64.4163 9.78303C61.0481 12.7388 58.9344 18.0832 56.8378 25.232C54.1227 18.1004 51.3731 18.6331 47.5066 11.9139C44.3102 6.46639 39.0689 6.41484 33.7932 6.13988C28.5175 5.19472 23.2074 9.38778 19.8908 10.5563C17.3818 14.0105 16.2476 15.4883 16.2648 20.8671C16.2648 24.4415 17.588 32.398 19.5815 32.6043L19.5987 32.6214ZM76.6346 86.461C76.8923 86.3923 77.1329 86.2891 77.3907 86.2032C77.2532 87.0281 77.1501 87.8701 77.1157 88.7122C76.9783 87.9561 76.8236 87.1999 76.6346 86.461Z" fill="white"/>
<path d="M77.6674 102.89C79.2484 95.3459 78.6126 81.4435 69.1438 79.3642C66.463 78.7799 63.6447 79.2439 61.0155 80.0859C58.8158 80.7905 56.6506 81.8044 55.0524 83.4713C51.6326 87.0285 51.5983 92.5104 50.2235 97.2534C49.244 100.604 47.4911 104.007 48.316 107.392C48.8487 109.558 50.3953 111.414 50.6875 113.613C50.7906 114.404 50.739 115.229 51.1171 115.933C51.4264 116.517 52.0107 116.913 52.5778 117.274C55.8601 119.336 59.6235 120.831 63.5072 120.848C67.391 120.848 71.395 119.181 73.5774 115.985C75.8115 112.702 76.8425 106.86 77.6674 102.907V102.89Z" fill="#07D673"/>
<path d="M84.7451 43.1386C87.8899 39.8564 91.0347 36.5741 94.1967 33.2746C98.7506 28.5145 103.545 23.5997 109.938 21.1595C116.331 18.7192 124.803 19.5613 128.738 24.7682C131.487 28.4286 131.384 33.4465 129.391 37.5021C127.397 41.5577 123.789 44.7712 119.905 47.4348C112.103 52.7792 102.823 56.3193 93.1656 57.6253" fill="#07D673"/>
<path d="M79.6939 99.8654C82.0826 103.388 85.1758 106.482 88.7846 108.819C89.8501 109.506 90.9842 110.159 92.2044 110.52C93.5104 110.915 94.8852 111.001 96.2427 111.087C98.5111 111.225 100.78 111.345 103.048 111.482C103.718 111.517 104.44 111.551 105.007 111.207C105.437 110.95 105.729 110.52 106.004 110.108C111.846 100.879 110.523 91.6684 102.739 84.279C99.0267 80.7389 94.5587 77.955 90.1422 75.1711C99.0782 79.0892 106.708 82.2684 116.624 82.5777C121.109 82.7152 125.233 82.0278 129.306 79.8281C132.502 78.1097 135.303 75.4117 136.558 71.9919C137.538 69.3283 137.537 66.321 136.541 63.6574C136.283 62.9872 135.957 62.317 135.458 61.8014C134.96 61.2859 134.29 60.9594 133.654 60.6329C127.674 57.7115 121.143 54.601 114.407 54.7042C106.932 54.8244 99.6453 56.8522 92.6855 59.3268C87.1005 61.3203 81.1718 64.74 78.0957 69.8267C72.253 79.5188 73.7652 91.0497 79.6939 99.8483V99.8654Z" fill="#07D673"/>
<path d="M41.2022 48.1905C31.9568 43.5162 21.0446 33.4117 20.9243 23.0837C20.8899 19.4749 21.1992 15.6771 23.3301 12.6182C25.2376 9.90304 28.5371 8.02991 32.0428 7.7034C38.6932 7.06757 44.6907 11.5699 48.3682 16.0723C53.9017 22.8603 60.3975 31.9338 61.8925 40.2855C61.8925 33.7725 61.4801 27.1736 62.9408 20.7809C64.3843 14.3882 68.0275 8.08146 74.2311 4.83356C80.4348 1.58566 89.4396 2.46208 93.478 7.84088C96.9149 12.412 96.0213 18.5813 94.2684 23.8914C92.086 30.5246 88.7694 36.8658 84.5076 42.5883" fill="#07D673"/>
<path d="M56.3061 81.7866C53.2128 85.8766 50.1024 89.9665 47.0092 94.0565C43.0911 99.2291 39.4995 105.227 32.8834 107.873C28.1748 109.763 22.1601 109.402 18.4998 106.12C15.0801 103.061 14.4099 98.0777 15.819 93.919C17.2453 89.7431 20.4589 86.289 23.9817 83.3161C28.4841 79.5354 33.8113 76.2016 39.2245 73.6067C30.2713 77.8857 20.8885 77.8685 11.1791 75.2565C9.59815 74.8268 7.98279 74.2941 6.77986 73.263C5.35354 72.0601 4.61459 70.3073 4.30527 68.5544C3.36011 63.1413 6.26432 57.5563 10.8354 54.0162C15.4066 50.459 21.4212 48.7577 27.4015 48.2422C33.3817 47.7266 39.3964 48.3453 45.3594 48.9467" fill="#07D673"/>
<path d="M74.025 37.8112L72.6846 37.3987C75.0045 29.9406 77.4619 22.3793 80.0052 14.9556L81.3456 15.4196C78.8195 22.8433 76.3449 30.3874 74.0422 37.8284L74.025 37.8112Z" fill="#014E3D"/>
<path d="M50.9978 46.9884C45.2238 39.4787 39.5872 31.7456 34.2256 24.0125L35.377 23.2048C40.7214 30.9207 46.358 38.6367 52.1148 46.1292L50.9978 46.9884Z" fill="#014E3D"/>
<path d="M43.176 65.2035C40.1515 65.2035 36.9551 64.9973 33.8275 64.8082C28.191 64.4645 22.3482 64.1037 17.4334 64.877L17.21 63.485C22.2794 62.6945 28.191 63.0554 33.9135 63.4163C38.5705 63.7084 42.987 63.9834 46.9566 63.6741L47.0597 65.0832C45.8052 65.1691 44.4992 65.2207 43.1588 65.2207L43.176 65.2035Z" fill="#014E3D"/>
<path d="M50.1463 76.4037L29.0869 96.9475L30.0709 97.9562L51.1303 77.4124L50.1463 76.4037Z" fill="#014E3D"/>
<path d="M65.6163 81.6667L62.8545 109.386L64.2567 109.525L67.0185 81.8064L65.6163 81.6667Z" fill="#014E3D"/>
<path d="M96.1893 99.0061C91.1886 92.2697 85.7238 85.7052 79.9326 79.4843L80.9637 78.522C86.7893 84.7772 92.2884 91.3761 97.3235 98.164L96.1893 99.0061Z" fill="#014E3D"/>
<path d="M121.144 72.8166C111.073 71.3216 100.883 69.6375 90.8643 67.7987L91.122 66.4067C101.141 68.2283 111.314 69.9124 121.367 71.4075L121.161 72.7994L121.144 72.8166Z" fill="#014E3D"/>
<path d="M89.4895 53.9479L88.6475 52.8137L106.588 39.5644C109.235 37.6053 111.95 35.6119 114.373 33.4294L115.318 34.4777C112.843 36.6945 110.111 38.7223 107.465 40.6642L89.4895 53.9479Z" fill="#014E3D"/>
<path d="M67.6633 87.3376C83.8642 87.3376 96.9975 75.3659 96.9975 60.5982C96.9975 45.8305 83.8642 33.8589 67.6633 33.8589C51.4625 33.8589 38.3291 45.8305 38.3291 60.5982C38.3291 75.3659 51.4625 87.3376 67.6633 87.3376Z" fill="#FFC010"/>
</svg>
