<svg width="220" height="5" viewBox="0 0 220 5" fill="none" xmlns="http://www.w3.org/2000/svg">
<path fill-rule="evenodd" clip-rule="evenodd" d="M65.8777 3.47568C66.0413 3.63672 66.1138 3.70809 66.225 3.81618C64.8272 3.75291 63.4586 3.69093 62.0726 3.62849C62.1841 3.72812 62.2669 3.80251 62.3732 3.89676C60.989 3.82909 59.6572 3.76393 58.2602 3.69533C58.3517 3.78471 58.4258 3.8563 58.5082 3.93601C57.681 3.92614 56.8386 3.93908 56.0184 3.89856C55.4468 3.87014 54.9124 3.761 54.3513 3.70035C53.7537 3.63583 53.8274 3.95906 53.008 3.94101C52.2276 3.92341 51.4533 3.8666 50.5281 3.78552C50.6631 3.92635 50.7273 3.99503 50.8376 4.11147C49.4353 4.04796 48.0721 3.98633 46.6919 3.92394C46.8018 4.01762 46.8922 4.09328 46.9804 4.16832C45.2598 4.1118 43.5426 4.05571 41.7128 3.99605C41.8502 4.12603 41.9263 4.19855 42.0044 4.27198C40.283 4.22351 38.5494 4.17452 36.7368 4.12377C36.8832 4.27318 36.9512 4.343 37.0056 4.39789C35.245 4.34551 33.5273 4.29446 31.7394 4.24102C31.8965 4.37281 31.9862 4.44837 32.0728 4.52118C30.3491 4.46564 28.6314 4.41085 26.8055 4.35233C26.9451 4.48193 27.0248 4.55488 27.1168 4.64023C25.4179 4.58271 23.7193 4.52488 21.9517 4.46519C21.9949 4.60034 22.0231 4.68821 22.0694 4.83526C20.7243 4.67935 19.4638 4.43067 18.0518 4.6153C18.1291 4.68017 18.2183 4.75603 18.3249 4.84625C16.9926 4.75933 15.6742 4.67416 14.2566 4.58201C14.3077 4.74794 14.3338 4.83589 14.3828 4.99717C12.5295 4.67305 10.6554 4.62445 8.7448 4.74338C8.83058 4.81881 8.91614 4.89351 9.03905 5C8.73708 4.98428 8.44378 4.99945 8.28623 4.95639C7.39577 4.71129 6.55685 4.67724 5.37785 4.84864C5.2497 4.86718 5.03089 4.84559 4.89936 4.81797C4.70475 4.77637 4.52197 4.65935 4.38203 4.6676C3.74135 4.70711 3.05155 4.79298 2.60729 4.5718C2.14608 4.34241 2.1549 4.03627 1.68561 3.79401C1.57971 3.73944 1.87405 3.59297 1.95236 3.51908C1.32583 3.33306 0.796137 3.17572 0 2.93937C1.66451 2.92417 2.93137 2.91279 4.33848 2.90031C3.68413 2.65491 3.12322 2.69083 2.43201 2.73521C1.95601 2.76548 1.38742 2.62158 0.894385 2.55996C1.13652 2.0672 2.23363 2.16942 2.88464 2.16949C7.26451 2.17051 11.5928 1.96793 15.9297 1.81688C20.5903 1.65448 25.2163 1.35359 29.8829 1.24209C32.9985 1.1674 36.0889 1.0103 39.1962 0.962018C42.7005 0.907791 46.1801 0.734305 49.6826 0.723562C51.9454 0.716391 54.172 0.586842 56.4492 0.588264C58.6102 0.589708 60.8176 0.551913 62.9728 0.489662C65.3066 0.421933 67.6406 0.380994 69.9724 0.360782C74.3304 0.322824 78.6862 0.259867 83.0486 0.238364C85.9161 0.224484 88.8034 0.167991 91.6799 0.130833C95.8813 0.0767034 100.084 0.0955952 104.289 0.0215583C107.94 -0.0427715 111.614 0.060075 115.276 0.0322976C118.317 0.00957089 121.353 0.0340275 124.391 0.034036C129.847 0.033365 135.304 0.0313884 140.76 0.0530722C144.263 0.0672153 147.776 0.125145 151.278 0.097787C156.513 0.0572775 161.732 0.187612 166.954 0.193906C170.076 0.197214 173.189 0.203867 176.309 0.249654C180.125 0.306201 183.958 0.247409 187.767 0.332185C193.461 0.458514 199.161 0.466576 204.858 0.523147C209.144 0.565977 213.425 0.680663 217.717 0.54631C218.307 0.527989 218.93 0.635943 219.483 0.681001C219.526 1.26023 217.719 0.884989 217.363 1.31476C217.825 1.31497 218.223 1.29654 218.598 1.3204C218.993 1.34546 219.367 1.4111 220 1.49024C219.599 1.64881 219.325 1.75752 219.049 1.867C219.31 1.98838 219.958 2.04934 219.581 2.3179C219.393 2.45228 218.333 2.48513 219.05 2.74713C218.99 2.76167 218.935 2.78432 218.87 2.78904C218.407 2.82065 217.946 2.86325 217.479 2.87498C215.071 2.93588 212.654 3.06092 210.258 3.02595C206.977 2.97835 203.709 3.05705 200.437 3.0333C195.524 2.99748 190.612 2.95532 185.699 2.93439C182.584 2.92108 179.467 2.94048 176.334 2.94522C176.443 3.03667 176.532 3.11283 176.62 3.18898C176.54 3.20162 176.454 3.2284 176.389 3.22307C176.275 3.21384 172.993 2.98225 172.768 2.97752C171.463 2.94947 170.156 2.92058 168.781 2.89037C168.932 3.02984 169.011 3.10309 169.211 3.28734C168.719 3.18887 168.462 3.14628 168.236 3.08957C167.988 3.02732 167.768 2.89244 167.535 2.89247C165.997 2.89103 164.46 2.91739 162.913 2.93541C163.015 3.03082 163.093 3.10325 163.293 3.29052C162.796 3.18837 162.542 3.1441 162.315 3.08729C162.067 3.02545 161.846 2.89246 161.612 2.89239C160.076 2.89117 158.541 2.91715 156.996 2.93437C157.098 3.03109 157.175 3.10371 157.375 3.2934C156.872 3.18748 156.621 3.14223 156.395 3.08512C156.147 3.02308 155.923 2.89268 155.688 2.89249C154.156 2.891 152.623 2.9169 151.079 2.93394C151.181 3.03207 151.256 3.10377 151.458 3.29669C150.947 3.18718 150.618 3.15418 150.491 3.08027C150.254 2.94362 150.054 2.90449 149.535 2.90909C146.655 2.93493 143.773 2.92632 140.837 2.92928C140.947 3.02739 141.031 3.10159 141.12 3.18006C140.186 3.40955 140.084 2.66945 138.897 2.96626C138.422 3.08506 137.387 2.93951 136.501 2.91105C136.629 3.03612 136.703 3.1073 136.773 3.17603C136.659 3.1953 136.538 3.22357 136.406 3.23381C136.353 3.23805 134.276 2.96017 134.189 2.96016C132.086 2.96117 129.984 2.96199 127.841 2.96313C127.974 3.07626 128.062 3.15242 128.154 3.23031C126.318 3.00755 125.434 2.96482 123.575 3.00992C123.667 3.08741 123.755 3.16315 123.844 3.23801C123.701 3.24955 123.502 3.28967 123.405 3.27014C121.094 2.80115 118.54 3.08966 116.111 3.00111C114.83 2.95455 113.508 3.04205 112.203 3.06886C112.3 3.1593 112.378 3.23203 112.46 3.30873C112.262 3.31372 112.06 3.34163 111.957 3.31801C110.278 2.93228 108.301 3.01112 106.547 3.06454C104.285 3.13374 102.005 2.97319 99.7654 3.19154C99.8222 3.24403 99.9032 3.31749 100.063 3.46309L96.7595 3.05025C96.5489 3.1679 96.4256 3.23684 96.2696 3.32439C95.4283 3.49735 94.4389 2.87098 93.4199 3.40792C92.9703 3.35174 92.4536 3.27358 91.9131 3.22501C91.6416 3.20092 91.1213 3.20056 91.0707 3.24168C90.8509 3.42118 90.5837 3.4088 90.0992 3.37193C89.4287 3.32032 88.6474 2.97606 88.0234 3.41398C87.9894 3.43753 87.5763 3.40213 87.3444 3.38636C86.6381 3.33875 85.8662 3.03867 85.2893 3.45368C84.5782 3.38821 83.8677 3.32243 83.1786 3.25866C82.8823 3.33816 82.5654 3.49096 82.3 3.48082C81.6547 3.45674 81.0314 3.35785 80.4003 3.28879C79.7791 3.71858 78.8877 3.38224 78.1939 3.36022C78.0632 3.39878 77.9661 3.41408 77.9669 3.42909C77.9687 3.45539 78.0386 3.48072 78.0625 3.50843C78.1023 3.55443 78.1274 3.60159 78.2091 3.72188L75.1672 3.3417C75.329 3.50282 75.4004 3.57308 75.474 3.64698C74.7979 3.88735 74.1035 3.35035 73.3484 3.65805C72.5953 3.96466 71.9053 3.59355 71.1688 3.58312C70.3859 3.57235 69.6029 3.5639 68.705 3.55295C68.7721 3.53224 68.6792 3.54839 68.6812 3.56321C68.6837 3.58961 68.7526 3.61483 68.7761 3.64214C68.8146 3.68761 68.8386 3.73497 68.916 3.85543L65.8777 3.47568Z" fill="#FFC010"/>
</svg>
