<svg width="86" height="6" viewBox="0 0 86 6" fill="none" xmlns="http://www.w3.org/2000/svg">
<path fill-rule="evenodd" clip-rule="evenodd" d="M25.7522 4.17081C25.8161 4.36407 25.8445 4.44971 25.888 4.57941C25.3415 4.5035 24.8066 4.42912 24.2648 4.35419C24.3083 4.47375 24.3407 4.56301 24.3822 4.67611C23.8412 4.59491 23.3205 4.51671 22.7744 4.4344C22.8102 4.54165 22.8392 4.62755 22.8714 4.72322C22.548 4.71137 22.2187 4.7269 21.8981 4.67827C21.6747 4.64416 21.4657 4.5132 21.2464 4.44042C21.0128 4.363 21.0416 4.75087 20.7213 4.72921C20.4163 4.70809 20.1136 4.63992 19.7519 4.54263C19.8046 4.71163 19.8298 4.79403 19.8729 4.93376C19.3247 4.85755 18.7918 4.7836 18.2523 4.70873C18.2953 4.82114 18.3306 4.91194 18.3651 5.00199C17.6925 4.93416 17.0212 4.86685 16.3059 4.79526C16.3596 4.95124 16.3894 5.03826 16.4199 5.12638C15.747 5.06821 15.0693 5.00942 14.3608 4.94853C14.418 5.12782 14.4446 5.2116 14.4658 5.27746C13.7776 5.21462 13.1061 5.15335 12.4072 5.08923C12.4686 5.24737 12.5037 5.33805 12.5376 5.42542C11.8637 5.35877 11.1923 5.29302 10.4785 5.2228C10.5331 5.37832 10.5642 5.46586 10.6002 5.56828C9.93609 5.49925 9.27207 5.42985 8.58111 5.35823C8.59799 5.52041 8.60902 5.62585 8.62713 5.80231C8.10134 5.61522 7.60859 5.31681 7.05663 5.53836C7.08682 5.61621 7.12172 5.70724 7.16339 5.8155C6.64256 5.7112 6.12718 5.60899 5.57304 5.49841C5.59299 5.69753 5.60321 5.80307 5.62238 5.99661C4.89789 5.60766 4.16529 5.54935 3.41842 5.69205C3.45195 5.78257 3.4854 5.87222 3.53345 6C3.4154 5.98113 3.30075 5.99935 3.23916 5.94766C2.89107 5.65355 2.56313 5.61268 2.10225 5.81837C2.05216 5.84061 1.96662 5.81471 1.91521 5.78156C1.83913 5.73164 1.76768 5.59122 1.71297 5.60112C1.46253 5.64853 1.19288 5.75157 1.01921 5.48616C0.838922 5.21089 0.842369 4.84352 0.65892 4.55281C0.617522 4.48733 0.732583 4.31156 0.763195 4.2229C0.518278 3.99967 0.311217 3.81087 0 3.52724C0.650671 3.509 1.1459 3.49535 1.69595 3.48037C1.44016 3.1859 1.22089 3.229 0.950694 3.28225C0.764621 3.31858 0.542354 3.1459 0.349623 3.07196C0.444274 2.48064 0.873147 2.60331 1.12763 2.60339C2.83976 2.60461 4.53175 2.36151 6.22705 2.18026C8.04893 1.98537 9.85726 1.6243 11.6815 1.49051C12.8994 1.40088 14.1075 1.21236 15.3221 1.15442C16.692 1.08935 18.0522 0.881167 19.4214 0.868274C20.3059 0.85967 21.1763 0.70421 22.0665 0.705916C22.9113 0.70765 23.7741 0.662295 24.6166 0.587595C25.5289 0.506319 26.4413 0.457192 27.3528 0.432938C29.0564 0.387389 30.7592 0.311841 32.4644 0.286037C33.5854 0.269381 34.714 0.20159 35.8385 0.157C37.4809 0.0920441 39.1239 0.114714 40.7676 0.0258699C42.1949 -0.0513258 43.6311 0.07209 45.0626 0.0387571C46.2511 0.0114851 47.438 0.040833 48.6257 0.0408432C50.7585 0.0400381 52.8914 0.0376661 55.0242 0.0636866C56.3939 0.0806583 57.767 0.150174 59.136 0.117344C61.1824 0.068733 63.2227 0.225134 65.2639 0.232687C66.4841 0.236656 67.7011 0.244641 68.9208 0.299584C70.4125 0.367441 71.911 0.296891 73.3999 0.398622C75.6259 0.550217 77.8537 0.559891 80.0807 0.627776C81.7562 0.679172 83.4298 0.816795 85.1074 0.655572C85.3383 0.633586 85.5816 0.763131 85.7977 0.817201C85.8146 1.51228 85.1082 1.06199 84.9691 1.57771C85.1498 1.57796 85.3052 1.55585 85.4519 1.58448C85.6065 1.61456 85.7525 1.69331 86 1.78829C85.8433 1.97858 85.7362 2.10903 85.6284 2.24041C85.7304 2.38606 85.9836 2.45921 85.8361 2.78147C85.7626 2.94273 85.3483 2.98216 85.6285 3.29656C85.6051 3.314 85.5837 3.34118 85.5583 3.34685C85.3775 3.38478 85.1971 3.4359 85.0145 3.44998C84.0734 3.52305 83.1285 3.67311 82.1916 3.63114C80.909 3.57402 79.6317 3.66846 78.3528 3.63996C76.4322 3.59698 74.5119 3.54639 72.5912 3.52127C71.3736 3.5053 70.1555 3.52858 68.9308 3.53427C68.973 3.644 69.0078 3.7354 69.0426 3.82678C69.0112 3.84195 68.9773 3.87408 68.9521 3.86768C68.9073 3.8566 67.6247 3.5787 67.5368 3.57303C67.0263 3.53936 66.5154 3.5047 65.9779 3.46844C66.037 3.63581 66.068 3.72371 66.1463 3.9448C65.9538 3.82664 65.8534 3.77553 65.7651 3.70749C65.6679 3.63279 65.5819 3.47093 65.4908 3.47097C64.8899 3.46924 64.2889 3.50087 63.6841 3.52249C63.724 3.63698 63.7546 3.7239 63.8328 3.94862C63.6383 3.82605 63.5391 3.77292 63.4504 3.70475C63.3534 3.63054 63.2669 3.47096 63.1756 3.47086C62.5753 3.46941 61.9753 3.50058 61.3712 3.52125C61.411 3.63731 61.441 3.72446 61.5194 3.95208C61.3227 3.82497 61.2246 3.77067 61.136 3.70214C61.0395 3.6277 60.9516 3.47122 60.8599 3.47099C60.2608 3.4692 59.6616 3.50028 59.0581 3.52073C59.098 3.63849 59.1273 3.72452 59.2062 3.95603C59.0067 3.82461 58.8781 3.78501 58.8282 3.69633C58.7355 3.53234 58.6577 3.48539 58.4548 3.4909C57.3289 3.52192 56.2022 3.51158 55.0545 3.51514C55.0975 3.63287 55.1304 3.7219 55.1651 3.81607C54.8 4.09147 54.76 3.20335 54.2961 3.55952C54.1103 3.70208 53.706 3.52742 53.3595 3.49327C53.4096 3.64334 53.4383 3.72876 53.4657 3.81124C53.4211 3.83436 53.3739 3.86829 53.3223 3.88057C53.3016 3.88566 52.4897 3.5522 52.4557 3.55219C51.6335 3.5534 50.8119 3.55439 49.9742 3.55576C50.0261 3.69151 50.0608 3.7829 50.0967 3.87638C49.3788 3.60906 49.0334 3.55778 48.3066 3.6119C48.3424 3.70489 48.3769 3.79578 48.4119 3.88561C48.3558 3.89946 48.2779 3.94761 48.2401 3.92417C47.3369 3.36138 46.3385 3.70759 45.3888 3.60133C44.8883 3.54546 44.3715 3.65046 43.861 3.68264C43.8992 3.79116 43.9296 3.87844 43.9618 3.97048C43.8841 3.97646 43.8051 4.00995 43.7651 3.98161C43.1086 3.51874 42.336 3.61334 41.6502 3.67744C40.7658 3.76049 39.8748 3.56783 38.9992 3.82985C39.0214 3.89284 39.0531 3.98099 39.1154 4.15571L37.8242 3.6603C37.7418 3.80148 37.6936 3.88421 37.6327 3.98927C37.3038 4.19682 36.917 3.44518 36.5187 4.0895C36.3429 4.02209 36.1409 3.9283 35.9297 3.87001C35.8235 3.8411 35.6201 3.84068 35.6004 3.89002C35.5145 4.10541 35.41 4.09056 35.2206 4.04631C34.9585 3.98439 34.6531 3.57127 34.4092 4.09678C34.3959 4.12504 34.2344 4.08256 34.1437 4.06363C33.8676 4.0065 33.5659 3.64641 33.3403 4.14442C33.0624 4.06585 32.7846 3.98691 32.5153 3.9104C32.3994 4.00579 32.2756 4.18916 32.1718 4.17698C31.9196 4.14809 31.6759 4.02942 31.4292 3.94655C31.1864 4.4623 30.8379 4.05869 30.5667 4.03227C30.5156 4.07854 30.4776 4.0969 30.478 4.11491C30.4787 4.14647 30.506 4.17686 30.5153 4.21012C30.5309 4.26531 30.5407 4.3219 30.5727 4.46626L29.3835 4.01004C29.4468 4.20339 29.4747 4.2877 29.5035 4.37638C29.2392 4.66482 28.9677 4.02042 28.6725 4.38966C28.3782 4.7576 28.1084 4.31226 27.8205 4.29974C27.5145 4.28682 27.2084 4.27668 26.8574 4.26354C26.8836 4.23869 26.8473 4.25807 26.8481 4.27585C26.8491 4.30753 26.876 4.3378 26.8852 4.37057C26.9003 4.42514 26.9096 4.48196 26.9399 4.62651L25.7522 4.17081Z" fill="#FFC010"/>
</svg>
