<svg width="141" height="36" viewBox="0 0 141 36" fill="none" xmlns="http://www.w3.org/2000/svg">
<path d="M42.127 11.3287H45.5141V24.9749H42.127V11.3287ZM46.8576 19.8224C46.8576 16.4474 48.935 14.4337 52.1415 14.4337C55.3479 14.4337 57.4253 16.4474 57.4253 19.8224C57.4253 23.1974 55.3931 25.2224 52.1415 25.2224C48.8899 25.2224 46.8576 23.2537 46.8576 19.8224ZM54.027 19.8224C54.027 17.9662 53.2931 16.8749 52.1415 16.8749C50.9899 16.8749 50.2673 17.9999 50.2673 19.8224C50.2673 21.6449 50.9786 22.7474 52.1415 22.7474C53.3044 22.7474 54.027 21.7124 54.027 19.8336V19.8224ZM58.7012 25.6387H61.9528C62.1076 25.9812 62.3692 26.2648 62.6987 26.4473C63.0283 26.6297 63.4082 26.7012 63.7818 26.6512C65.0689 26.6512 65.7463 25.9537 65.7463 24.9412V23.0512H65.6786C65.4087 23.6304 64.9708 24.1157 64.4214 24.4447C63.872 24.7735 63.2363 24.9308 62.5963 24.8961C60.1237 24.8961 58.4866 23.0174 58.4866 19.7887C58.4866 16.5599 60.0447 14.5237 62.6415 14.5237C63.3015 14.4979 63.9536 14.6737 64.5106 15.0275C65.0675 15.3815 65.5027 15.8965 65.7576 16.5037V14.6249H69.1447V24.8624C69.1447 27.3262 66.9657 28.8561 63.7479 28.8561C60.756 28.8561 58.8931 27.5174 58.7012 25.6499V25.6387ZM65.7576 19.8112C65.7576 18.1687 65.0012 17.1337 63.8044 17.1337C62.6076 17.1337 61.8737 18.1574 61.8737 19.8112C61.8737 21.4649 62.5963 22.3987 63.8044 22.3987C65.0124 22.3987 65.7576 21.4874 65.7576 19.8224V19.8112ZM70.4205 19.8112C70.4205 16.4362 72.4979 14.4224 75.7044 14.4224C78.9108 14.4224 80.9995 16.4362 80.9995 19.8112C80.9995 23.1862 78.9673 25.2112 75.7044 25.2112C72.4415 25.2112 70.4205 23.2537 70.4205 19.8224V19.8112ZM77.5899 19.8112C77.5899 17.9549 76.856 16.8637 75.7044 16.8637C74.5528 16.8637 73.8866 17.9999 73.8866 19.8336C73.8866 21.6674 74.5979 22.7586 75.7495 22.7586C76.9012 22.7586 77.5899 21.7124 77.5899 19.8336V19.8112ZM82.2866 12.1724C82.2777 11.8316 82.3706 11.4959 82.5534 11.2078C82.7363 10.9197 83.0009 10.6922 83.3136 10.5541C83.6264 10.416 83.9732 10.3735 84.3102 10.4321C84.6472 10.4906 84.9592 10.6476 85.2065 10.883C85.454 11.1185 85.6256 11.4218 85.6998 11.7546C85.774 12.0874 85.7474 12.4345 85.6232 12.7522C85.4991 13.0698 85.2831 13.3436 85.0026 13.5388C84.7223 13.734 84.3899 13.8419 84.0479 13.8487C83.8212 13.8642 83.5937 13.8328 83.3798 13.7565C83.1657 13.6802 82.9699 13.5608 82.8045 13.4054C82.6391 13.2502 82.5077 13.0624 82.4186 12.854C82.3294 12.6458 82.2845 12.4214 82.2866 12.1949V12.1724ZM82.2866 14.6474H85.6737V24.9749H82.2866V14.6474ZM97.9689 19.8112C97.9689 23.1862 96.4673 25.1099 93.8931 25.1099C93.2331 25.1521 92.5759 24.9913 92.0104 24.6493C91.445 24.3072 90.9987 23.8004 90.7318 23.1974H90.6641V28.2824H87.277V14.6249H90.6641V16.4699H90.7318C90.9863 15.8569 91.4241 15.3369 91.9857 14.9806C92.5473 14.6243 93.2054 14.4491 93.8705 14.4787C96.4673 14.5237 98.0141 16.4586 98.0141 19.8336L97.9689 19.8112ZM94.5818 19.8112C94.5818 18.1687 93.8254 17.1224 92.6399 17.1224C91.4544 17.1224 90.6979 18.1799 90.6866 19.8112C90.6754 21.4424 91.4544 22.4887 92.6399 22.4887C93.8254 22.4887 94.5818 21.4649 94.5818 19.8336V19.8112ZM103.783 14.4112C106.595 14.4112 108.3 15.7387 108.379 17.8649H105.296C105.296 17.1337 104.687 16.6724 103.75 16.6724C102.812 16.6724 102.395 17.0324 102.395 17.5612C102.395 18.0899 102.767 18.2587 103.524 18.4162L105.691 18.8549C107.758 19.2937 108.638 20.1262 108.638 21.6899C108.638 23.8274 106.685 25.1999 103.806 25.1999C100.927 25.1999 99.0415 23.8274 98.8947 21.7236H102.158C102.259 22.4887 102.869 22.9387 103.862 22.9387C104.856 22.9387 105.308 22.6124 105.308 22.0724C105.308 21.5324 104.991 21.4199 104.179 21.2512L102.225 20.8349C100.204 20.4187 99.1431 19.3499 99.1431 17.7749C99.1657 15.7499 100.983 14.4337 103.783 14.4337V14.4112ZM119.94 24.9524H116.677V23.0287H116.609C116.43 23.6745 116.035 24.2398 115.488 24.6308C114.942 25.0216 114.278 25.2145 113.606 25.1774C113.091 25.2065 112.577 25.1253 112.096 24.9391C111.616 24.7529 111.181 24.4663 110.821 24.0983C110.462 23.7304 110.186 23.2898 110.012 22.8064C109.838 22.3229 109.77 21.8079 109.812 21.2962V14.6249H113.2V20.5199C113.2 21.7462 113.832 22.3987 114.882 22.3987C115.128 22.3991 115.372 22.3472 115.596 22.2463C115.82 22.1454 116.021 21.9978 116.184 21.8135C116.345 21.6292 116.467 21.4124 116.538 21.1777C116.609 20.9429 116.631 20.6956 116.598 20.4524V14.6249H119.985L119.94 24.9524ZM121.577 14.6249H124.851V16.6162H124.919C125.098 15.9788 125.486 15.4188 126.019 15.0239C126.551 14.6291 127.202 14.4214 127.866 14.4337C128.542 14.3798 129.213 14.5813 129.747 14.9982C130.28 15.4151 130.636 16.0168 130.745 16.6837H130.812C131.017 16.0097 131.441 15.4229 132.018 15.0155C132.594 14.6081 133.291 14.4034 133.996 14.4337C134.457 14.4182 134.915 14.4996 135.342 14.6724C135.77 14.8451 136.155 15.1055 136.475 15.4365C136.794 15.7676 137.04 16.1619 137.197 16.5938C137.353 17.0257 137.417 17.4857 137.383 17.9437V24.9749H133.996V18.8437C133.996 17.7187 133.488 17.2012 132.54 17.2012C132.329 17.1994 132.119 17.2428 131.926 17.3285C131.733 17.4142 131.56 17.5402 131.42 17.6981C131.28 17.8559 131.175 18.0417 131.113 18.2432C131.051 18.4448 131.034 18.6572 131.061 18.8662V24.9749H127.843V18.7986C127.843 17.7636 127.335 17.2012 126.409 17.2012C126.196 17.2013 125.984 17.2465 125.789 17.3339C125.594 17.4214 125.419 17.5491 125.278 17.7085C125.136 17.8679 125.03 18.0556 124.965 18.2591C124.902 18.4625 124.882 18.677 124.908 18.8887V24.9749H121.521L121.577 14.6249Z" fill="#9199B5"/>
<path d="M32.6549 11.9475C32.0804 10.6384 31.32 9.41842 30.3969 8.325C29.0324 6.66038 27.3296 5.30256 25.4006 4.34093C23.4715 3.3793 21.3599 2.83564 19.2048 2.74574C17.0497 2.65584 14.8999 3.02174 12.8969 3.81936C10.8939 4.61698 9.08318 5.82823 7.58386 7.3734C6.08453 8.91855 4.93061 10.7626 4.19803 12.7842C3.46546 14.8057 3.17084 16.9589 3.33358 19.1021C3.49633 21.2453 4.11272 23.3298 5.14222 25.2185C6.17172 27.1072 7.59097 28.7573 9.30655 30.06C10.4074 30.9126 11.6237 31.6058 12.9194 32.1188C14.7361 32.8606 16.6804 33.2426 18.6436 33.2438C22.6962 33.2349 26.5798 31.6252 29.4434 28.7677C32.3068 25.9102 33.9165 22.0381 33.9194 18C33.9224 15.9171 33.4919 13.8562 32.6549 11.9475ZM18.6323 5.83874C20.3954 5.83856 22.1372 6.22252 23.7356 6.96374C23.3458 7.13156 22.936 7.24877 22.5162 7.3125C21.135 7.51173 19.8554 8.15071 18.8685 9.13407C17.8817 10.1174 17.2404 11.3924 17.0404 12.7688C16.9527 13.5406 16.6003 14.2587 16.0429 14.8019C15.4855 15.345 14.7572 15.6798 13.9807 15.75C12.5995 15.9492 11.3199 16.5882 10.333 17.5716C9.34616 18.555 8.70488 19.8299 8.50494 21.2063C8.43724 21.9402 8.12298 22.6299 7.613 23.1638C6.73309 21.3112 6.33782 19.2669 6.46395 17.2212C6.59009 15.1755 7.23354 13.1948 8.33442 11.4634C9.4353 9.73214 10.9578 8.30645 12.7604 7.31907C14.5629 6.33169 16.5868 5.81472 18.6436 5.81624L18.6323 5.83874ZM9.29526 25.875C9.43075 25.7513 9.56623 25.6388 9.70171 25.5038C10.7062 24.5334 11.3509 23.2525 11.5307 21.87C11.6037 21.0929 11.9519 20.367 12.513 19.8225C13.053 19.2625 13.7798 18.9183 14.5565 18.855C15.9378 18.6558 17.2173 18.0168 18.2042 17.0334C19.1911 16.05 19.8324 14.7751 20.0323 13.3988C20.0812 12.5859 20.4312 11.8202 21.0146 11.25C21.5679 10.7008 22.3016 10.3692 23.0807 10.3162C24.3496 10.1423 25.5331 9.58017 26.4678 8.7075C27.5322 9.58733 28.4338 10.6458 29.1323 11.835C29.0894 11.8927 29.0402 11.9456 28.9856 11.9925C28.4467 12.5575 27.7208 12.9092 26.942 12.9825C25.5593 13.1783 24.2778 13.8161 23.2903 14.8001C22.3028 15.7841 21.6627 17.061 21.4662 18.4388C21.3866 19.2132 21.0408 19.9365 20.4873 20.4859C19.9338 21.0355 19.2067 21.3774 18.4291 21.4538C17.0438 21.6514 15.7595 22.2892 14.7669 23.2721C13.7743 24.2551 13.1264 25.5309 12.9194 26.91C12.8587 27.4598 12.6691 27.9878 12.3662 28.4513C11.2078 27.7659 10.1704 26.8956 9.29526 25.875ZM18.6323 30.2175C17.4867 30.2187 16.3465 30.0597 15.2452 29.745C15.622 29.0453 15.8669 28.2826 15.9678 27.495C16.047 26.7222 16.3912 26.0003 16.9424 25.4511C17.4936 24.9019 18.2181 24.5589 18.9936 24.48C20.3769 24.283 21.6591 23.645 22.6482 22.6614C23.6372 21.678 24.2802 20.4017 24.4807 19.0238C24.5599 18.251 24.9041 17.5291 25.4553 16.9799C26.0065 16.4306 26.731 16.0876 27.5065 16.0088C28.5475 15.8739 29.5397 15.4877 30.3969 14.8838C30.8729 16.6814 30.9292 18.5637 30.5617 20.3865C30.1942 22.2092 29.4125 23.9239 28.2766 25.3989C27.1408 26.8738 25.6811 28.07 24.0092 28.8955C22.3375 29.721 20.4982 30.1541 18.6323 30.1613V30.2175Z" fill="#9199B5"/>
</svg>
