<svg width="101" height="27" viewBox="0 0 101 27" fill="none" xmlns="http://www.w3.org/2000/svg">
<path d="M12.5126 5.414V2.164H2.51257V24.4934H12.5126V21.2434C10.4641 21.2434 8.49944 20.4095 7.05096 18.9252C5.60245 17.4409 4.78869 15.4278 4.78869 13.3287C4.78869 11.2296 5.60245 9.21643 7.05096 7.73217C8.49944 6.24787 10.4641 5.414 12.5126 5.414Z" fill="white"/>
<path d="M12.5126 5.414V21.2434C14.5611 21.2434 16.5257 20.4095 17.9742 18.9252C19.4227 17.4409 20.2365 15.4278 20.2365 13.3287C20.2365 11.2296 19.4227 9.21643 17.9742 7.73217C16.5257 6.24788 14.5611 5.414 12.5126 5.414Z" fill="white"/>
<path d="M25.8484 7.40222H28.0872V18.4522H25.8484V7.40222Z" fill="white"/>
<path d="M29.3409 14.6669C29.3409 13.8719 29.5713 13.0949 30.0028 12.4341C30.4343 11.7734 31.0475 11.2589 31.7647 10.9557C32.482 10.6525 33.2709 10.5744 34.0315 10.7311C34.792 10.8879 35.4901 11.2726 36.0371 11.8363C36.5841 12.4001 36.9556 13.1176 37.1042 13.8979C37.2528 14.6782 37.172 15.4861 36.872 16.2193C36.572 16.9524 36.0665 17.5779 35.4192 18.0162C34.772 18.4546 34.0123 18.6862 33.2365 18.6816C32.7219 18.6858 32.2117 18.5846 31.7358 18.3839C31.2599 18.1834 30.8278 17.8874 30.465 17.5136C30.1021 17.1396 29.8159 16.6952 29.6228 16.2064C29.4298 15.7176 29.334 15.1942 29.3409 14.6669ZM34.9529 14.6669C34.9441 14.3242 34.8368 13.9917 34.6446 13.7111C34.4523 13.4305 34.1837 13.2141 33.872 13.0892C33.5605 12.9642 33.2199 12.9362 32.8929 13.0086C32.5658 13.0809 32.2668 13.2505 32.0333 13.4961C31.7998 13.7416 31.6421 14.0523 31.58 14.3892C31.5179 14.7261 31.5541 15.0743 31.6841 15.3902C31.8141 15.7061 32.0321 15.9758 32.3109 16.1654C32.5897 16.355 32.9168 16.4562 33.2514 16.4563C33.4792 16.4609 33.7055 16.4173 33.9161 16.3281C34.1267 16.239 34.317 16.1063 34.4753 15.9384C34.6336 15.7705 34.7564 15.5708 34.836 15.3521C34.9156 15.1333 34.9503 14.9001 34.9379 14.6669H34.9529Z" fill="white"/>
<path d="M45.9901 10.8816V18.0775C45.9901 20.6163 44.0498 21.6946 42.0871 21.6946C41.3948 21.7528 40.7004 21.6118 40.0821 21.2876C39.4637 20.9634 38.946 20.4687 38.5871 19.8593L40.4752 18.7428C40.6281 19.0589 40.8715 19.3197 41.1728 19.4905C41.4742 19.6612 41.8191 19.7339 42.1617 19.6987C42.38 19.7262 42.6015 19.704 42.8104 19.6337C43.0193 19.5633 43.2105 19.4465 43.3702 19.2916C43.5299 19.1366 43.6543 18.9475 43.7343 18.7376C43.8144 18.5278 43.8482 18.3023 43.8334 18.0775V17.3816C43.5728 17.7053 43.2423 17.9623 42.8679 18.1322C42.4935 18.3021 42.0857 18.3803 41.6767 18.3605C40.687 18.3605 39.738 17.9576 39.0382 17.2405C38.3384 16.5236 37.9453 15.551 37.9453 14.5369C37.9453 13.5229 38.3384 12.5504 39.0382 11.8333C39.738 11.1162 40.687 10.7134 41.6767 10.7134C42.0857 10.6936 42.4935 10.7717 42.8679 10.9417C43.2423 11.1116 43.5728 11.3685 43.8334 11.6922V10.9275L45.9901 10.8816ZM43.8334 14.514C43.8482 14.1481 43.756 13.7861 43.5684 13.4744C43.3809 13.1627 43.1067 12.9156 42.781 12.7649C42.4553 12.6141 42.0931 12.5667 41.7409 12.6287C41.3887 12.6906 41.0626 12.8591 40.8046 13.1124C40.5467 13.3658 40.3685 13.6925 40.2931 14.0504C40.2178 14.4084 40.2486 14.7812 40.3817 15.121C40.5148 15.4608 40.744 15.7521 41.0399 15.9574C41.3359 16.1626 41.685 16.2725 42.0423 16.2728C42.2755 16.29 42.5096 16.2569 42.7295 16.1757C42.9494 16.0944 43.1503 15.9668 43.319 15.801C43.4878 15.6353 43.6208 15.4351 43.7094 15.2134C43.798 14.9917 43.8402 14.7534 43.8334 14.514Z" fill="white"/>
<path d="M47.2514 14.6669C47.2514 13.8726 47.4814 13.0961 47.9122 12.4357C48.343 11.7753 48.9553 11.2607 49.6717 10.9571C50.388 10.6535 51.1761 10.5744 51.9364 10.7299C52.6966 10.8855 53.3946 11.2686 53.9423 11.8308C54.4899 12.3931 54.8625 13.1092 55.0128 13.8884C55.1632 14.6677 55.0845 15.4752 54.7868 16.2086C54.4891 16.9421 53.9858 17.5685 53.3405 18.0088C52.6952 18.449 51.937 18.6832 51.1618 18.6816C50.6463 18.6868 50.1349 18.5864 49.6577 18.3863C49.1805 18.1863 48.7471 17.8906 48.3829 17.5167C48.0187 17.1428 47.731 16.6981 47.5367 16.2087C47.3424 15.7194 47.2454 15.1952 47.2514 14.6669ZM52.8633 14.6669C52.8545 14.3239 52.747 13.9911 52.5545 13.7103C52.362 13.4296 52.0928 13.2132 51.7808 13.0885C51.4687 12.9638 51.1278 12.9362 50.8005 13.0092C50.4733 13.0822 50.1743 13.2525 49.9411 13.4989C49.7079 13.7452 49.5508 14.0566 49.4896 14.3939C49.4284 14.7313 49.4656 15.0797 49.5967 15.3955C49.7279 15.7113 49.947 15.9804 50.2268 16.1691C50.5065 16.3578 50.8343 16.4577 51.1693 16.4564C51.3971 16.4609 51.6234 16.4173 51.834 16.3281C52.0446 16.239 52.2349 16.1063 52.3932 15.9384C52.5515 15.7705 52.6743 15.5708 52.7539 15.3521C52.8335 15.1333 52.8682 14.9001 52.8558 14.6669H52.8633Z" fill="white"/>
<path d="M56.1095 8.85517C56.1095 8.58599 56.1874 8.32278 56.3334 8.09895C56.4793 7.87509 56.6868 7.70063 56.9295 7.5976C57.1723 7.49458 57.4393 7.46762 57.697 7.52014C57.9546 7.57266 58.1914 7.7023 58.3772 7.89267C58.5629 8.08304 58.6894 8.32561 58.7407 8.58958C58.792 8.85364 58.7656 9.12732 58.6651 9.37608C58.5646 9.62477 58.3943 9.83735 58.1758 9.98693C57.9574 10.1365 57.7006 10.2163 57.4379 10.2163C57.0867 10.2124 56.7511 10.0677 56.5029 9.81327C56.2546 9.55885 56.1134 9.21496 56.1095 8.85517ZM56.3259 10.8816H58.5647V18.4522H56.3259V10.8816Z" fill="white"/>
<path d="M68.1468 14.6669C68.1719 15.1704 68.0996 15.6741 67.934 16.1488C67.7684 16.6235 67.5129 17.06 67.182 17.4331C66.8511 17.8063 66.4516 18.1087 66.0062 18.3229C65.5609 18.5372 65.0786 18.6591 64.5871 18.6817C64.17 18.7101 63.752 18.6417 63.3644 18.4815C62.9767 18.3212 62.6294 18.0733 62.3483 17.7564V21.4958H60.1095V10.8817H62.3483V11.5928C62.6298 11.2768 62.9774 11.0301 63.3651 10.8712C63.7528 10.7122 64.1705 10.6452 64.5871 10.6752C65.0767 10.6977 65.557 10.8189 66.0008 11.0318C66.4446 11.2446 66.8432 11.545 67.1737 11.9156C67.5043 12.2863 67.7604 12.72 67.9273 13.1921C68.0943 13.6642 68.1689 14.1653 68.1468 14.6669ZM65.908 14.6669C65.8992 14.3117 65.7882 13.9672 65.5891 13.6763C65.39 13.3855 65.1115 13.1613 64.7886 13.032C64.4657 12.9026 64.1127 12.8739 63.7738 12.9492C63.435 13.0245 63.1255 13.2007 62.8839 13.4556C62.6423 13.7105 62.4796 14.0327 62.4161 14.382C62.3525 14.7313 62.3909 15.092 62.5266 15.419C62.6623 15.7459 62.889 16.0245 63.1786 16.22C63.4682 16.4154 63.8076 16.5189 64.1543 16.5175C64.3917 16.5279 64.6287 16.4866 64.8495 16.3966C65.0704 16.3065 65.2702 16.1696 65.4358 15.9949C65.6014 15.8201 65.729 15.6114 65.8104 15.3826C65.8918 15.1538 65.925 14.9099 65.908 14.6669Z" fill="white"/>
<path d="M74.9603 16.1811C74.9603 17.9246 73.4677 18.6664 71.8856 18.6664C71.2404 18.7258 70.5925 18.5857 70.0258 18.264C69.4591 17.9423 68.9995 17.4538 68.7065 16.8616L70.6319 15.7452C70.7082 16.018 70.8736 16.2558 71.1004 16.4187C71.3273 16.5815 71.6018 16.6596 71.8782 16.6399C72.408 16.6399 72.6767 16.4716 72.6767 16.1658C72.6767 15.3322 69.0424 15.7758 69.0424 13.1528C69.0424 11.5011 70.4006 10.6752 71.9379 10.6752C72.5222 10.6483 73.1028 10.7842 73.6178 11.0683C74.1329 11.3524 74.5633 11.7741 74.8633 12.2887L72.9379 13.3287C72.8528 13.1314 72.7139 12.9636 72.5377 12.8456C72.3615 12.7275 72.1558 12.6642 71.9453 12.6634C71.5573 12.6634 71.3259 12.8164 71.3259 13.084C71.3259 13.9558 74.9603 13.3822 74.9603 16.1811Z" fill="white"/>
<path d="M83.0721 10.8817V18.4522H80.8333V17.7411C80.5789 18.0559 80.2557 18.305 79.8908 18.4684C79.5251 18.6318 79.1274 18.7048 78.7289 18.6817C77.2363 18.6817 75.9602 17.5881 75.9602 15.5464V10.8817H78.199V15.2022C78.1811 15.3829 78.202 15.5652 78.2602 15.7368C78.3184 15.9084 78.4117 16.065 78.5341 16.1959C78.6572 16.3267 78.8065 16.4288 78.9714 16.4949C79.1363 16.561 79.3132 16.5896 79.4901 16.5787C80.296 16.5787 80.8632 16.0893 80.8632 15.0493V10.8817H83.0721Z" fill="white"/>
<path d="M95.7589 13.8028V18.4522H93.5201V14.0016C93.5201 13.2369 93.1693 12.7628 92.4604 12.7628C91.7514 12.7628 91.3037 13.2905 91.3037 14.1852V18.4522H89.0648V14.0016C89.0648 13.2369 88.7141 12.7628 88.0051 12.7628C87.2962 12.7628 86.8484 13.2905 86.8484 14.1852V18.4522H84.6096V10.8816H86.8484V11.5775C87.0805 11.2701 87.3828 11.0266 87.7298 10.8691C88.076 10.7116 88.4559 10.6449 88.8335 10.6752C89.2119 10.6549 89.5895 10.736 89.9283 10.9102C90.2671 11.0845 90.5559 11.3461 90.7663 11.6693C91.0126 11.3316 91.338 11.0633 91.7126 10.8895C92.0865 10.7156 92.4984 10.6419 92.9081 10.6752C94.6544 10.6752 95.7589 11.914 95.7589 13.8028Z" fill="white"/>
<path d="M97.6394 10.8358C98.5461 10.8358 99.2811 10.0825 99.2811 9.15342C99.2811 8.2243 98.5461 7.47107 97.6394 7.47107C96.7326 7.47107 95.9976 8.2243 95.9976 9.15342C95.9976 10.0825 96.7326 10.8358 97.6394 10.8358Z" fill="white"/>
</svg>
