<svg width="141" height="34" viewBox="0 0 141 34" fill="none" xmlns="http://www.w3.org/2000/svg">
<g clip-path="url(#clip0_404_1402)">
<path d="M43.208 23.334H53.0508V20.3486H46.7064V9.10376H43.208V23.334Z" fill="#9199B5"/>
<path d="M58.8831 21.3437C57.4798 21.3437 56.7485 20.1097 56.7485 18.2588C56.7485 16.4079 57.4798 15.154 58.8831 15.154C60.2864 15.154 61.0374 16.4079 61.0374 18.2588C61.0374 20.1097 60.2864 21.3437 58.8831 21.3437ZM58.9028 23.6524C62.164 23.6524 64.2986 21.3238 64.2986 18.2588C64.2986 15.1938 62.164 12.8652 58.9028 12.8652C55.6614 12.8652 53.4873 15.1938 53.4873 18.2588C53.4873 21.3238 55.6614 23.6524 58.9028 23.6524Z" fill="#9199B5"/>
<path d="M69.9428 26.8568C71.4449 26.8568 72.7691 26.5184 73.6585 25.7223C74.4689 24.9859 75.0025 23.8714 75.0025 22.3389V13.144H71.9192V14.2386H71.8797C71.2868 13.3828 70.3776 12.8455 69.0336 12.8455C66.5235 12.8455 64.7842 14.9551 64.7842 17.9405C64.7842 21.0652 66.899 22.7768 69.1719 22.7768C70.3974 22.7768 71.1682 22.2792 71.7611 21.6025H71.8402V22.6176C71.8402 23.8515 71.267 24.568 69.9032 24.568C68.8359 24.568 68.3023 24.1102 68.1244 23.5729H65.0016C65.3178 25.7024 67.1559 26.8568 69.9428 26.8568ZM69.923 20.3686C68.7174 20.3686 67.9268 19.3735 67.9268 17.841C67.9268 16.2886 68.7174 15.2935 69.923 15.2935C71.267 15.2935 71.9785 16.4478 71.9785 17.8211C71.9785 19.254 71.3263 20.3686 69.923 20.3686Z" fill="#9199B5"/>
<path d="M81.343 21.3437C79.9397 21.3437 79.2084 20.1097 79.2084 18.2588C79.2084 16.4079 79.9397 15.154 81.343 15.154C82.7463 15.154 83.4974 16.4079 83.4974 18.2588C83.4974 20.1097 82.7463 21.3437 81.343 21.3437ZM81.3628 23.6524C84.624 23.6524 86.7586 21.3238 86.7586 18.2588C86.7586 15.1938 84.624 12.8652 81.3628 12.8652C78.1214 12.8652 75.9473 15.1938 75.9473 18.2588C75.9473 21.3238 78.1214 23.6524 81.3628 23.6524Z" fill="#9199B5"/>
<path d="M87.6982 23.334H90.9199V13.144H87.6982V23.334ZM87.6982 11.7309H90.9199V9.10376H87.6982V11.7309Z" fill="#9199B5"/>
<path d="M92.3184 26.6976H95.54V22.2792H95.5795C96.212 23.135 97.1409 23.6525 98.4454 23.6525C101.094 23.6525 102.853 21.5428 102.853 18.239C102.853 15.174 101.212 12.8455 98.5245 12.8455C97.1409 12.8455 96.1527 13.4624 95.4609 14.3779H95.4017V13.144H92.3184V26.6976ZM97.6153 21.1448C96.2318 21.1448 95.4412 20.0103 95.4412 18.3584C95.4412 16.7065 96.1527 15.4527 97.556 15.4527C98.9395 15.4527 99.5918 16.607 99.5918 18.3584C99.5918 20.0899 98.8407 21.1448 97.6153 21.1448Z" fill="#9199B5"/>
<path d="M108.098 23.6525C110.747 23.6525 112.703 22.4981 112.703 20.2691C112.703 17.6618 110.608 17.2041 108.829 16.9056C107.545 16.6667 106.398 16.5672 106.398 15.8507C106.398 15.2139 107.011 14.9153 107.802 14.9153C108.691 14.9153 109.304 15.1939 109.422 16.1095H112.387C112.229 14.0993 110.687 12.8455 107.821 12.8455C105.43 12.8455 103.453 13.96 103.453 16.1095C103.453 18.4978 105.331 18.9754 107.09 19.2739C108.434 19.5128 109.66 19.6123 109.66 20.5278C109.66 21.1846 109.047 21.5428 108.078 21.5428C107.011 21.5428 106.339 21.0453 106.221 20.0302H103.177C103.276 22.2792 105.133 23.6525 108.098 23.6525Z" fill="#9199B5"/>
<path d="M117.08 23.6324C118.483 23.6324 119.373 23.0751 120.104 22.08H120.163V23.3338H123.247V13.1438H120.025V18.8359C120.025 20.0499 119.353 20.8858 118.246 20.8858C117.218 20.8858 116.724 20.2689 116.724 19.1543V13.1438H113.522V19.831C113.522 22.0999 114.748 23.6324 117.08 23.6324Z" fill="#9199B5"/>
<path d="M124.647 23.334H127.869V17.622C127.869 16.408 128.462 15.5522 129.47 15.5522C130.439 15.5522 130.893 16.1891 130.893 17.2837V23.334H134.115V17.622C134.115 16.408 134.688 15.5522 135.716 15.5522C136.684 15.5522 137.139 16.1891 137.139 17.2837V23.334H140.36V16.7065C140.36 14.4178 139.214 12.8455 136.921 12.8455C135.617 12.8455 134.53 13.4027 133.739 14.6367H133.7C133.186 13.542 132.178 12.8455 130.854 12.8455C129.391 12.8455 128.423 13.542 127.79 14.5969H127.731V13.144H124.647V23.334Z" fill="#9199B5"/>
<path fill-rule="evenodd" clip-rule="evenodd" d="M17.5341 33.2852C26.6305 33.2852 34.0047 25.8597 34.0047 16.6999C34.0047 7.54003 26.6305 0.114502 17.5341 0.114502C8.43759 0.114502 1.06348 7.54003 1.06348 16.6999C1.06348 25.8597 8.43759 33.2852 17.5341 33.2852ZM22.6723 7.84066C22.9224 6.94606 22.0603 6.41705 21.2729 6.98192L10.2813 14.8668C9.42742 15.4794 9.56174 16.6999 10.4831 16.6999H13.3775V16.6773H19.0185L14.4221 18.3104L12.3958 25.5591C12.1457 26.4537 13.0078 26.9827 13.7953 26.4178L24.7868 18.5329C25.6407 17.9204 25.5063 16.6999 24.5851 16.6999H20.1958L22.6723 7.84066Z" fill="#9199B5"/>
</g>
<defs>
<clipPath id="clip0_404_1402">
<rect width="140" height="34" fill="white" transform="translate(0.5)"/>
</clipPath>
</defs>
</svg>
