<svg width="141" height="28" viewBox="0 0 141 28" fill="none" xmlns="http://www.w3.org/2000/svg">
<g clip-path="url(#clip0_404_1413)">
<path fill-rule="evenodd" clip-rule="evenodd" d="M18.2119 8.17971C17.0721 7.41055 15.7321 7 14.3614 7V0C17.1029 0 19.7829 0.821086 22.0624 2.35943C24.3419 3.89776 26.1185 6.08427 27.1677 8.64241C28.2168 11.2006 28.4913 14.0155 27.9564 16.7313C27.4216 19.447 26.1014 21.9416 24.1628 23.8995C22.2243 25.8574 19.7544 27.1908 17.0656 27.731C14.3768 28.2712 11.5897 27.9939 9.05684 26.9343C6.52402 25.8747 4.35917 24.0803 2.83607 21.778C1.31296 19.4757 0.5 16.7689 0.5 14H7.4307C7.4307 15.3845 7.83718 16.7378 8.59873 17.889C9.36027 19.0401 10.4427 19.9373 11.7092 20.4672C12.9755 20.997 14.3691 21.1356 15.7135 20.8655C17.0579 20.5954 18.2928 19.9287 19.2622 18.9498C20.2314 17.9707 20.8915 16.7235 21.1589 15.3656C21.4263 14.0078 21.2891 12.6003 20.7645 11.3212C20.2399 10.0421 19.3516 8.94887 18.2119 8.17971Z" fill="#9199B5"/>
<path fill-rule="evenodd" clip-rule="evenodd" d="M7.43069 3.69945e-06C7.43069 0.919256 7.25143 1.82951 6.90313 2.67879C6.55482 3.52806 6.04432 4.29974 5.40074 4.94975C4.75717 5.59976 3.99314 6.11538 3.15226 6.46716C2.31139 6.81894 1.41015 7 0.5 7L0.5 14C2.3203 14 4.12278 13.6379 5.80453 12.9343C7.48628 12.2307 9.01436 11.1995 10.3015 9.89947C11.5886 8.5995 12.6097 7.05614 13.3063 5.35757C14.0029 3.65901 14.3614 1.8385 14.3614 0L7.43069 3.69945e-06Z" fill="#9199B5"/>
<path d="M87.563 10.1167H84.2002V20.9053H87.563V10.1167Z" fill="#9199B5"/>
<path d="M84.5743 8.09652C84.9257 8.4517 85.3651 8.62929 85.8925 8.62929C86.4199 8.62929 86.8524 8.4517 87.1892 8.09652C87.5268 7.72657 87.6952 7.28256 87.6952 6.7646C87.6952 6.23184 87.5268 5.78785 87.1892 5.43268C86.8524 5.07749 86.4199 4.8999 85.8925 4.8999C85.3651 4.8999 84.9257 5.07749 84.5743 5.43268C84.2368 5.78785 84.0684 6.23184 84.0684 6.7646C84.0684 7.28256 84.2368 7.72657 84.5743 8.09652Z" fill="#9199B5"/>
<path d="M35.9551 20.9053V5.23291H39.4058V17.8419H46.2853V20.9053H35.9551Z" fill="#9199B5"/>
<path fill-rule="evenodd" clip-rule="evenodd" d="M52.4987 21.1496C51.3998 21.1496 50.4034 20.9054 49.5096 20.417C48.6304 19.9138 47.9344 19.2331 47.4216 18.3747C46.9088 17.5163 46.6523 16.5544 46.6523 15.4889C46.6523 14.4233 46.9088 13.4688 47.4216 12.6252C47.9344 11.7817 48.6304 11.1157 49.5096 10.6274C50.3887 10.1241 51.3852 9.87256 52.4987 9.87256C53.6124 9.87256 54.6087 10.1168 55.4879 10.6051C56.367 11.0935 57.0631 11.7669 57.5759 12.6252C58.0887 13.4688 58.3452 14.4233 58.3452 15.4889C58.3452 16.5544 58.0887 17.5163 57.5759 18.3747C57.0631 19.2331 56.367 19.9138 55.4879 20.417C54.6087 20.9054 53.6124 21.1496 52.4987 21.1496ZM52.4987 18.064C52.9823 18.064 53.4072 17.9604 53.7736 17.7532C54.1398 17.5312 54.4183 17.2278 54.6087 16.843C54.8139 16.4435 54.9164 15.992 54.9164 15.4889C54.9164 14.9857 54.8139 14.5491 54.6087 14.1792C54.4036 13.7944 54.1179 13.4984 53.7515 13.2912C53.3999 13.0692 52.9823 12.9582 52.4987 12.9582C52.0299 12.9582 51.6123 13.0692 51.2459 13.2912C50.8797 13.4984 50.5939 13.7944 50.3887 14.1792C50.1836 14.564 50.0811 15.0079 50.0811 15.5111C50.0811 15.9994 50.1836 16.4435 50.3887 16.843C50.5939 17.2278 50.8797 17.5312 51.2459 17.7532C51.6123 17.9604 52.0299 18.064 52.4987 18.064Z" fill="#9199B5"/>
<path fill-rule="evenodd" clip-rule="evenodd" d="M61.0089 25.1232C61.9027 25.5375 62.9357 25.7447 64.108 25.7447C65.2508 25.7447 66.2692 25.5153 67.163 25.0566C68.0569 24.5978 68.7601 23.9615 69.273 23.1475C69.7858 22.3336 70.0426 21.3716 70.0426 20.2616V10.1168H66.7454V10.8417C66.5002 10.6332 66.2217 10.4582 65.9102 10.3166C65.3387 10.0354 64.6867 9.89478 63.9541 9.89478C62.9724 9.89478 62.1005 10.1316 61.3386 10.6051C60.5766 11.0639 59.9759 11.7003 59.5363 12.5142C59.0967 13.3134 58.877 14.2162 58.877 15.2225C58.877 16.2141 59.0967 17.1168 59.5363 17.9308C59.9759 18.7447 60.5766 19.3885 61.3386 19.8621C62.1005 20.3356 62.9724 20.5724 63.9541 20.5724C64.672 20.5724 65.3241 20.4319 65.9102 20.1507C66.1941 20.0145 66.4505 19.854 66.6795 19.6691V20.3505C66.6795 21.1052 66.4377 21.6898 65.9542 22.1042C65.4853 22.5186 64.8333 22.7257 63.998 22.7257C63.324 22.7257 62.7452 22.6073 62.2617 22.3705C61.7928 22.1338 61.3678 21.786 60.9869 21.3272L58.9209 23.4139C59.4337 24.1538 60.1297 24.7236 61.0089 25.1232ZM65.8003 17.2426C65.4633 17.4498 65.0604 17.5534 64.5914 17.5534C64.1226 17.5534 63.7123 17.4498 63.3606 17.2426C63.0236 17.0354 62.7599 16.7542 62.5694 16.399C62.3789 16.0291 62.2837 15.6369 62.2837 15.2225C62.2837 14.7785 62.3789 14.379 62.5694 14.0238C62.7599 13.6686 63.0309 13.3874 63.3826 13.1802C63.7343 12.973 64.1372 12.8694 64.5914 12.8694C65.0604 12.8694 65.4633 12.973 65.8003 13.1802C66.152 13.3874 66.4157 13.6686 66.5916 14.0238C66.782 14.379 66.8773 14.7785 66.8773 15.2225C66.8773 15.6665 66.782 16.066 66.5916 16.4212C66.4157 16.7616 66.152 17.0354 65.8003 17.2426Z" fill="#9199B5"/>
<path fill-rule="evenodd" clip-rule="evenodd" d="M77.1192 21.1496C76.02 21.1496 75.0234 20.9054 74.13 20.417C73.2505 19.9138 72.5546 19.2331 72.0418 18.3747C71.5289 17.5163 71.2725 16.5544 71.2725 15.4889C71.2725 14.4233 71.5289 13.4688 72.0418 12.6252C72.5546 11.7817 73.2505 11.1157 74.13 10.6274C75.0088 10.1241 76.0054 9.87256 77.1192 9.87256C78.2323 9.87256 79.2289 10.1168 80.1077 10.6051C80.9872 11.0935 81.6831 11.7669 82.1959 12.6252C82.7088 13.4688 82.9652 14.4233 82.9652 15.4889C82.9652 16.5544 82.7088 17.5163 82.1959 18.3747C81.6831 19.2331 80.9872 19.9138 80.1077 20.417C79.2289 20.9054 78.2323 21.1496 77.1192 21.1496ZM77.1192 18.064C77.6023 18.064 78.0271 17.9604 78.3937 17.7532C78.7597 17.5312 79.0383 17.2278 79.2289 16.843C79.434 16.4435 79.5366 15.992 79.5366 15.4889C79.5366 14.9857 79.434 14.5491 79.2289 14.1792C79.0238 13.7944 78.7382 13.4984 78.3716 13.2912C78.0202 13.0692 77.6023 12.9582 77.1192 12.9582C76.65 12.9582 76.2321 13.0692 75.8661 13.2912C75.4995 13.4984 75.2139 13.7944 75.0088 14.1792C74.8036 14.564 74.7011 15.0079 74.7011 15.5111C74.7011 15.9994 74.8036 16.4435 75.0088 16.843C75.2139 17.2278 75.4995 17.5312 75.8661 17.7532C76.2321 17.9604 76.65 18.064 77.1192 18.064Z" fill="#9199B5"/>
<path fill-rule="evenodd" clip-rule="evenodd" d="M95.645 21.1274C94.9277 21.1274 94.2679 20.9868 93.667 20.7056C93.3509 20.5577 93.0654 20.381 92.8103 20.1756V25.4562H89.4912V10.1168H92.854V10.8614C93.0979 10.6599 93.3689 10.4856 93.667 10.3388C94.2679 10.0428 94.9277 9.89478 95.645 9.89478C96.6562 9.89478 97.5502 10.139 98.3265 10.6274C99.1179 11.1157 99.7334 11.7817 100.173 12.6253C100.627 13.4688 100.854 14.4308 100.854 15.5111C100.854 16.5915 100.627 17.5534 100.173 18.397C99.7334 19.2405 99.1179 19.9065 98.3265 20.3948C97.5502 20.8832 96.6562 21.1274 95.645 21.1274ZM95.0302 18.064C95.5133 18.064 95.9312 17.953 96.2826 17.731C96.6492 17.509 96.9348 17.2056 97.1399 16.8209C97.3451 16.4361 97.4477 15.9995 97.4477 15.5111C97.4477 15.0079 97.3451 14.564 97.1399 14.1792C96.9348 13.7944 96.6492 13.4984 96.2826 13.2912C95.9312 13.0692 95.5209 12.9583 95.0517 12.9583C94.5832 12.9583 94.1653 13.0692 93.7993 13.2912C93.4473 13.4984 93.1693 13.7944 92.9642 14.1792C92.759 14.564 92.6565 15.0079 92.6565 15.5111C92.6565 15.9995 92.7514 16.4361 92.942 16.8209C93.1472 17.2056 93.4327 17.509 93.7993 17.731C94.1653 17.953 94.5756 18.064 95.0302 18.064Z" fill="#9199B5"/>
<path d="M104.146 20.9275C104.762 21.0903 105.384 21.1717 106.014 21.1717C107.347 21.1717 108.402 20.8609 109.179 20.2393C109.97 19.6178 110.366 18.7817 110.366 17.7309C110.366 17.0501 110.242 16.5025 109.992 16.0882C109.743 15.659 109.421 15.3186 109.025 15.067C108.63 14.8155 108.212 14.6156 107.772 14.4676C107.333 14.3196 106.915 14.1939 106.52 14.0903C106.124 13.9867 105.802 13.8683 105.552 13.7351C105.304 13.6019 105.179 13.4243 105.179 13.2023C105.179 12.9951 105.274 12.8397 105.464 12.7361C105.655 12.6177 105.941 12.5586 106.322 12.5586C106.717 12.5586 107.12 12.6399 107.53 12.8027C107.955 12.9655 108.336 13.2468 108.673 13.6463L110.585 11.6928C110.102 11.0712 109.472 10.605 108.695 10.2943C107.934 9.96873 107.099 9.80591 106.19 9.80591C105.326 9.80591 104.571 9.95389 103.926 10.2498C103.281 10.5459 102.783 10.9529 102.431 11.4708C102.08 11.9739 101.904 12.5734 101.904 13.2689C101.904 13.9201 102.029 14.4603 102.278 14.8894C102.526 15.3038 102.849 15.6294 103.244 15.8662C103.64 16.103 104.058 16.288 104.498 16.4211C104.937 16.5543 105.355 16.6801 105.751 16.7986C106.146 16.9022 106.469 17.0279 106.717 17.1759C106.981 17.3091 107.113 17.5089 107.113 17.7753C107.113 17.9825 107.003 18.1452 106.783 18.2637C106.578 18.382 106.278 18.4412 105.882 18.4412C105.311 18.4412 104.783 18.3376 104.3 18.1304C103.816 17.9085 103.398 17.6051 103.047 17.2203L101.135 19.1738C101.501 19.5734 101.941 19.9286 102.454 20.2393C102.981 20.5353 103.545 20.7647 104.146 20.9275Z" fill="#9199B5"/>
<path d="M116.497 21.1495C115.516 21.1495 114.644 20.9497 113.882 20.5501C113.134 20.1357 112.549 19.5733 112.124 18.863C111.698 18.1379 111.486 17.3091 111.486 16.3767V10.1167H114.849V16.3323C114.849 16.7023 114.907 17.0205 115.025 17.2869C115.157 17.5533 115.347 17.7605 115.596 17.9085C115.846 18.0564 116.146 18.1304 116.497 18.1304C116.996 18.1304 117.391 17.975 117.684 17.6642C117.978 17.3387 118.124 16.8947 118.124 16.3323V10.1167H121.487V16.3545C121.487 17.3017 121.275 18.1379 120.849 18.863C120.424 19.5733 119.839 20.1357 119.091 20.5501C118.344 20.9497 117.479 21.1495 116.497 21.1495Z" fill="#9199B5"/>
<path d="M126.521 10.1168H123.158V20.9054H126.521V14.6009C126.521 14.231 126.594 13.9202 126.741 13.6686C126.902 13.417 127.115 13.2246 127.378 13.0915C127.642 12.9434 127.942 12.8694 128.279 12.8694C128.763 12.8694 129.166 13.0248 129.488 13.3356C129.826 13.6316 129.994 14.0534 129.994 14.6009V20.9054H133.357V14.6009C133.357 14.231 133.43 13.9202 133.576 13.6686C133.738 13.417 133.95 13.2246 134.214 13.0915C134.477 12.9434 134.778 12.8694 135.115 12.8694C135.599 12.8694 136.001 13.0248 136.324 13.3356C136.661 13.6316 136.829 14.0534 136.829 14.6009V20.9054H140.192V14.2236C140.192 13.3209 140.002 12.5513 139.621 11.9149C139.254 11.2637 138.749 10.768 138.104 10.4276C137.474 10.0724 136.749 9.89478 135.928 9.89478C135.093 9.89478 134.338 10.0798 133.664 10.4498C133.226 10.6855 132.844 10.9897 132.516 11.3624C132.21 10.9726 131.839 10.6536 131.4 10.4054C130.815 10.065 130.148 9.89478 129.401 9.89478C128.609 9.89478 127.899 10.065 127.269 10.4054C126.994 10.547 126.746 10.7166 126.521 10.9142V10.1168Z" fill="#9199B5"/>
</g>
<defs>
<clipPath id="clip0_404_1413">
<rect width="140" height="28" fill="white" transform="translate(0.5)"/>
</clipPath>
</defs>
</svg>
