<svg width="101" height="27" viewBox="0 0 101 27" fill="none" xmlns="http://www.w3.org/2000/svg">
<path d="M30.7166 8.51058H33.1359V18.3662H30.7166V8.51058ZM34.0956 14.645C34.0956 12.2075 35.5795 10.7531 37.8698 10.7531C40.1601 10.7531 41.644 12.2075 41.644 14.645C41.644 17.0825 40.1924 18.545 37.8698 18.545C35.5472 18.545 34.0956 17.1231 34.0956 14.645ZM39.2166 14.645C39.2166 13.3043 38.6924 12.5162 37.8698 12.5162C37.0472 12.5162 36.5311 13.3287 36.5311 14.645C36.5311 15.9612 37.0391 16.7575 37.8698 16.7575C38.7004 16.7575 39.2166 16.0099 39.2166 14.6531V14.645ZM42.5553 18.8456H44.8778C44.9884 19.093 45.1753 19.2978 45.4107 19.4296C45.6461 19.5613 45.9174 19.613 46.1843 19.5768C47.1037 19.5768 47.5875 19.0731 47.5875 18.3418V16.9768H47.5391C47.3464 17.3952 47.0336 17.7457 46.6412 17.9833C46.2487 18.2208 45.7946 18.3343 45.3375 18.3093C43.5714 18.3093 42.402 16.9525 42.402 14.6206C42.402 12.2887 43.5149 10.8181 45.3698 10.8181C45.8412 10.7995 46.307 10.9265 46.7049 11.182C47.1027 11.4376 47.4135 11.8096 47.5956 12.2481V10.8912H50.0149V18.285C50.0149 20.0643 48.4585 21.1693 46.1601 21.1693C44.023 21.1693 42.6924 20.2024 42.5553 18.8537V18.8456ZM47.5956 14.6368C47.5956 13.4506 47.0553 12.7031 46.2004 12.7031C45.3456 12.7031 44.8214 13.4425 44.8214 14.6368C44.8214 15.8312 45.3375 16.5056 46.2004 16.5056C47.0633 16.5056 47.5956 15.8475 47.5956 14.645V14.6368ZM50.9262 14.6368C50.9262 12.1993 52.4101 10.745 54.7004 10.745C56.9907 10.745 58.4827 12.1993 58.4827 14.6368C58.4827 17.0743 57.0311 18.5368 54.7004 18.5368C52.3698 18.5368 50.9262 17.1231 50.9262 14.645V14.6368ZM56.0472 14.6368C56.0472 13.2962 55.523 12.5081 54.7004 12.5081C53.8778 12.5081 53.402 13.3287 53.402 14.6531C53.402 15.9774 53.9101 16.7656 54.7327 16.7656C55.5553 16.7656 56.0472 16.0099 56.0472 14.6531V14.6368ZM59.402 9.11995C59.3957 8.87384 59.462 8.63139 59.5926 8.42332C59.7232 8.21524 59.9122 8.05092 60.1356 7.95118C60.359 7.85144 60.6067 7.82076 60.8474 7.86305C61.0882 7.90535 61.311 8.0187 61.4877 8.18874C61.6645 8.35878 61.787 8.57785 61.84 8.81819C61.893 9.05853 61.874 9.30926 61.7853 9.53871C61.6966 9.76808 61.5424 9.96584 61.342 10.1068C61.1418 10.2478 60.9044 10.3257 60.6601 10.3306C60.4982 10.3418 60.3357 10.3191 60.1828 10.264C60.0299 10.2089 59.8901 10.1227 59.772 10.0105C59.6538 9.89833 59.5599 9.76272 59.4963 9.61224C59.4326 9.46185 59.4005 9.29976 59.402 9.1362V9.11995ZM59.402 10.9075H61.8214V18.3662H59.402V10.9075ZM70.6037 14.6368C70.6037 17.0743 69.5311 18.4637 67.6924 18.4637C67.2209 18.4942 66.7515 18.3781 66.3476 18.1311C65.9437 17.884 65.6249 17.518 65.4343 17.0825H65.3859V20.7549H62.9666V10.8912H65.3859V12.2237H65.4343C65.6161 11.781 65.9288 11.4054 66.3299 11.1481C66.7311 10.8908 67.2011 10.7642 67.6762 10.7856C69.5311 10.8181 70.6359 12.2156 70.6359 14.6531L70.6037 14.6368ZM68.1843 14.6368C68.1843 13.4506 67.644 12.695 66.7972 12.695C65.9504 12.695 65.4101 13.4587 65.402 14.6368C65.394 15.815 65.9504 16.5706 66.7972 16.5706C67.644 16.5706 68.1843 15.8312 68.1843 14.6531V14.6368ZM74.7569 10.7368C76.7649 10.7368 77.9827 11.6956 78.0391 13.2312H75.8375C75.8375 12.7031 75.402 12.37 74.7327 12.37C74.0633 12.37 73.7649 12.63 73.7649 13.0118C73.7649 13.3937 74.0311 13.5156 74.5714 13.6293L76.1198 13.9462C77.5956 14.2631 78.2246 14.8643 78.2246 15.9937C78.2246 17.5375 76.8295 18.5287 74.773 18.5287C72.7166 18.5287 71.3698 17.5374 71.2649 16.0181H73.5956C73.6682 16.5706 74.1037 16.8956 74.8133 16.8956C75.523 16.8956 75.8456 16.66 75.8456 16.27C75.8456 15.88 75.6198 15.7987 75.0391 15.6768L73.644 15.3762C72.2004 15.0756 71.4424 14.3037 71.4424 13.1662C71.4585 11.7037 72.7569 10.7531 74.7569 10.7531V10.7368ZM86.2972 18.35H83.9666V16.9606H83.9182C83.7899 17.427 83.5077 17.8353 83.1174 18.1177C82.727 18.3999 82.2528 18.5393 81.773 18.5124C81.4054 18.5335 81.0377 18.4748 80.6945 18.3404C80.3514 18.2059 80.0409 17.9989 79.7841 17.7331C79.5272 17.4674 79.3299 17.1492 79.2056 16.8C79.0812 16.4509 79.0328 16.0789 79.0633 15.7093V10.8912H81.4827V15.1487C81.4827 16.0343 81.9343 16.5056 82.6843 16.5056C82.8601 16.5059 83.0343 16.4684 83.1948 16.3956C83.3545 16.3227 83.498 16.2161 83.6141 16.083C83.7295 15.9498 83.8166 15.7933 83.8674 15.6238C83.9182 15.4542 83.9335 15.2756 83.9101 15.1V10.8912H86.3295L86.2972 18.35ZM87.4666 10.8912H89.8053V12.3293H89.8537C89.9819 11.869 90.2585 11.4646 90.6391 11.1794C91.0198 10.8942 91.4843 10.7442 91.9585 10.7531C92.4416 10.7142 92.9206 10.8597 93.302 11.1608C93.6827 11.4619 93.9375 11.8964 94.0149 12.3781H94.0633C94.2093 11.8913 94.5125 11.4675 94.9246 11.1733C95.3359 10.8791 95.8335 10.7312 96.3375 10.7531C96.6666 10.7419 96.994 10.8007 97.2988 10.9255C97.6045 11.0502 97.8795 11.2383 98.1077 11.4773C98.3359 11.7165 98.5117 12.0012 98.6238 12.3132C98.7351 12.6251 98.7811 12.9573 98.7569 13.2881V18.3662H96.3375V13.9381C96.3375 13.1256 95.9746 12.7518 95.2972 12.7518C95.1464 12.7505 94.9964 12.7819 94.8585 12.8438C94.7206 12.9057 94.5972 12.9967 94.4972 13.1107C94.3972 13.2247 94.3222 13.3589 94.2778 13.5044C94.2335 13.65 94.2214 13.8034 94.2408 13.9543V18.3662H91.9424V13.9056C91.9424 13.1581 91.5795 12.7518 90.9182 12.7518C90.7657 12.7519 90.6141 12.7846 90.4754 12.8477C90.3359 12.9109 90.2109 13.0031 90.1101 13.1183C90.0085 13.2334 89.9327 13.3689 89.8867 13.5159C89.8416 13.6628 89.827 13.8177 89.8456 13.9706V18.3662H87.4262L87.4666 10.8912Z" fill="white"/>
<path d="M23.9504 8.95746C23.54 8.012 22.9968 7.1309 22.3375 6.34121C21.3629 5.13899 20.1466 4.15834 18.7687 3.46382C17.3908 2.76931 15.8825 2.37667 14.3431 2.31175C12.8038 2.24682 11.2682 2.51108 9.83748 3.08714C8.40681 3.66319 7.11343 4.53799 6.04248 5.65394C4.97153 6.76989 4.1473 8.10169 3.62403 9.56172C3.10077 11.0217 2.89032 12.5768 3.00656 14.1246C3.12281 15.6725 3.5631 17.178 4.29845 18.542C5.0338 19.9061 6.04755 21.0978 7.27297 22.0387C8.05926 22.6545 8.92809 23.1551 9.85361 23.5256C11.1512 24.0614 12.54 24.3373 13.9423 24.3381C16.837 24.3317 19.611 23.1691 21.6564 21.1054C23.7018 19.0416 24.8515 16.2451 24.8536 13.3287C24.8557 11.8244 24.5482 10.3359 23.9504 8.95746ZM13.9343 4.54558C15.1936 4.54545 16.4377 4.82275 17.5794 5.35808C17.301 5.47928 17.0083 5.56393 16.7084 5.60996C15.7218 5.75385 14.8079 6.21533 14.103 6.92554C13.398 7.63573 12.94 8.55657 12.7972 9.55059C12.7345 10.108 12.4828 10.6267 12.0847 11.0189C11.6865 11.4112 11.1663 11.653 10.6117 11.7037C9.62506 11.8476 8.71109 12.3091 8.00618 13.0193C7.30126 13.7295 6.84321 14.6503 6.70039 15.6443C6.65204 16.1744 6.42756 16.6726 6.0633 17.0581C5.43479 15.7201 5.15245 14.2437 5.24255 12.7662C5.33264 11.2888 5.79225 9.85828 6.57859 8.60784C7.36493 7.35748 8.45247 6.32781 9.73998 5.6147C11.0275 4.9016 12.4731 4.52823 13.9423 4.52933L13.9343 4.54558ZM7.26491 19.0162C7.36168 18.9268 7.45846 18.8456 7.55523 18.7481C8.27269 18.0473 8.73322 17.1222 8.86168 16.1237C8.91376 15.5624 9.16248 15.0382 9.56329 14.645C9.94901 14.2405 10.4681 13.992 11.023 13.9462C12.0096 13.8023 12.9235 13.3408 13.6284 12.6306C14.3334 11.9204 14.7914 10.9996 14.9343 10.0056C14.9692 9.41855 15.2192 8.86549 15.6359 8.45371C16.0311 8.05709 16.5551 7.8176 17.1117 7.77933C18.018 7.65369 18.8634 7.24772 19.531 6.61746C20.2913 7.25289 20.9353 8.01731 21.4343 8.87621C21.4036 8.91789 21.3684 8.95608 21.3294 8.98996C20.9445 9.398 20.426 9.65199 19.8697 9.70496C18.8821 9.84634 17.9668 10.307 17.2614 11.0176C16.556 11.7283 16.0988 12.6505 15.9584 13.6456C15.9016 14.2049 15.6546 14.7273 15.2593 15.1241C14.8639 15.521 14.3445 15.7679 13.7891 15.8231C12.7996 15.9658 11.8822 16.4265 11.1732 17.1363C10.4643 17.8463 10.0014 18.7677 9.85361 19.7637C9.81022 20.1608 9.67482 20.5421 9.45845 20.8768C8.63103 20.3819 7.88998 19.7533 7.26491 19.0162ZM13.9343 22.1525C13.1159 22.1534 12.3015 22.0385 11.5149 21.8112C11.784 21.3058 11.9589 20.755 12.031 20.1862C12.0876 19.6281 12.3334 19.1067 12.7272 18.7101C13.1209 18.3134 13.6384 18.0657 14.1923 18.0087C15.1804 17.8664 16.0962 17.4057 16.8027 16.6953C17.5092 15.985 17.9684 15.0632 18.1117 14.0681C18.1682 13.51 18.4141 12.9886 18.8078 12.5919C19.2015 12.1953 19.719 11.9475 20.273 11.8906C21.0165 11.7932 21.7252 11.5142 22.3375 11.0781C22.6775 12.3764 22.7177 13.7359 22.4552 15.0523C22.1927 16.3687 21.6343 17.6071 20.823 18.6724C20.0118 19.7376 18.9691 20.6015 17.7749 21.1977C16.5808 21.7939 15.267 22.1066 13.9343 22.1118V22.1525Z" fill="white"/>
</svg>
