<svg width="141" height="28" viewBox="0 0 141 28" fill="none" xmlns="http://www.w3.org/2000/svg">
<path d="M37.2939 2.66357H40.4837V20.559H45.7321V23.5416H37.2939V2.66357Z" fill="#9199B5"/>
<path d="M51.7585 23.8398C50.1927 23.8398 48.9942 23.3825 48.1629 22.4678C47.3316 21.5531 46.916 20.2607 46.916 18.5904V7.61457C46.916 5.94433 47.3316 4.65187 48.1629 3.73722C48.9942 2.82256 50.1927 2.36523 51.7585 2.36523C53.3244 2.36523 54.5229 2.82256 55.3542 3.73722C56.1854 4.65187 56.601 5.94433 56.601 7.61457V18.5904C56.601 20.2607 56.1854 21.5531 55.3542 22.4678C54.5229 23.3825 53.3244 23.8398 51.7585 23.8398ZM51.7585 20.8572C52.8604 20.8572 53.4114 20.1712 53.4114 18.7992V7.40578C53.4114 6.0338 52.8604 5.3478 51.7585 5.3478C50.6566 5.3478 50.1057 6.0338 50.1057 7.40578V18.7992C50.1057 20.1712 50.6566 20.8572 51.7585 20.8572Z" fill="#9199B5"/>
<path d="M63.2819 23.8398C61.7354 23.8398 60.5562 23.3924 59.7442 22.4976C58.9323 21.583 58.5264 20.2806 58.5264 18.5904V7.61457C58.5264 5.92444 58.9323 4.63199 59.7442 3.73722C60.5562 2.82256 61.7354 2.36523 63.2819 2.36523C64.8284 2.36523 66.0076 2.82256 66.8195 3.73722C67.6315 4.63199 68.0375 5.92444 68.0375 7.61457V9.4041H65.0217V7.40578C65.0217 6.0338 64.4708 5.3478 63.3689 5.3478C62.267 5.3478 61.7161 6.0338 61.7161 7.40578V18.8291C61.7161 20.1812 62.267 20.8572 63.3689 20.8572C64.4708 20.8572 65.0217 20.1812 65.0217 18.8291V14.7429H63.4269V11.7604H68.0375V18.5904C68.0375 20.2806 67.6315 21.583 66.8195 22.4976C66.0076 23.3924 64.8284 23.8398 63.2819 23.8398Z" fill="#9199B5"/>
<path d="M74.697 23.8398C73.1312 23.8398 71.9326 23.3825 71.1014 22.4678C70.2701 21.5531 69.8545 20.2607 69.8545 18.5904V7.61457C69.8545 5.94433 70.2701 4.65187 71.1014 3.73722C71.9326 2.82256 73.1312 2.36523 74.697 2.36523C76.2629 2.36523 77.4615 2.82256 78.2927 3.73722C79.124 4.65187 79.5396 5.94433 79.5396 7.61457V18.5904C79.5396 20.2607 79.124 21.5531 78.2927 22.4678C77.4615 23.3825 76.2629 23.8398 74.697 23.8398ZM74.697 20.8572C75.7989 20.8572 76.3499 20.1712 76.3499 18.7992V7.40578C76.3499 6.0338 75.7989 5.3478 74.697 5.3478C73.5952 5.3478 73.0442 6.0338 73.0442 7.40578V18.7992C73.0442 20.1712 73.5952 20.8572 74.697 20.8572Z" fill="#9199B5"/>
<path d="M81.7021 2.66357H84.8919V23.5416H81.7021V2.66357Z" fill="#9199B5"/>
<path d="M87.2812 2.66357H91.9788C93.5638 2.66357 94.7527 3.10102 95.5456 3.97591C96.3385 4.85079 96.7346 6.1333 96.7346 7.82342V9.88139C96.7346 11.5715 96.3385 12.854 95.5456 13.7289C94.7527 14.6038 93.5638 15.0412 91.9788 15.0412H90.4712V23.5416H87.2812V2.66357ZM91.9788 12.0587C92.501 12.0587 92.8874 11.9095 93.139 11.6113C93.4096 11.313 93.5446 10.806 93.5446 10.0902V7.61465C93.5446 6.89883 93.4096 6.39179 93.139 6.09353C92.8874 5.79527 92.501 5.64615 91.9788 5.64615H90.4712V12.0587H91.9788Z" fill="#9199B5"/>
<path d="M102.726 23.8398C101.18 23.8398 100.01 23.3924 99.2173 22.4976C98.4252 21.583 98.0283 20.2806 98.0283 18.5904V17.3974H101.044V18.8291C101.044 20.1812 101.595 20.8572 102.697 20.8572C103.238 20.8572 103.644 20.6981 103.915 20.38C104.205 20.042 104.35 19.5051 104.35 18.7694C104.35 17.8945 104.157 17.129 103.77 16.4728C103.384 15.7967 102.668 14.9915 101.624 14.0569C100.31 12.8639 99.3913 11.7902 98.8691 10.8357C98.3477 9.86143 98.0866 8.76782 98.0866 7.55492C98.0866 5.90456 98.4922 4.63199 99.3043 3.73722C100.116 2.82256 101.296 2.36523 102.842 2.36523C104.369 2.36523 105.52 2.82256 106.293 3.73722C107.086 4.63199 107.482 5.92444 107.482 7.61457V8.47951H104.466V7.40578C104.466 6.68997 104.331 6.17298 104.06 5.85484C103.789 5.51682 103.393 5.3478 102.871 5.3478C101.808 5.3478 101.277 6.01391 101.277 7.34613C101.277 8.10172 101.47 8.80759 101.856 9.46376C102.262 10.1199 102.987 10.9152 104.031 11.8498C105.365 13.0428 106.283 14.1265 106.786 15.1009C107.288 16.0752 107.54 17.2184 107.54 18.5308C107.54 20.2408 107.124 21.5531 106.293 22.4678C105.481 23.3825 104.292 23.8398 102.726 23.8398Z" fill="#9199B5"/>
<path d="M114.009 23.8398C112.462 23.8398 111.283 23.3925 110.471 22.4977C109.659 21.5831 109.253 20.2806 109.253 18.5905V2.66357H112.443V18.8291C112.443 19.5449 112.578 20.0619 112.849 20.3801C113.138 20.6982 113.545 20.8573 114.066 20.8573C114.588 20.8573 114.984 20.6982 115.255 20.3801C115.545 20.0619 115.69 19.5449 115.69 18.8291V2.66357H118.764V18.5905C118.764 20.2806 118.358 21.5831 117.546 22.4977C116.734 23.3925 115.555 23.8398 114.009 23.8398Z" fill="#9199B5"/>
<path d="M121.035 2.66357H125.588L127.618 17.6062H127.675L129.706 2.66357H134.258V23.5416H131.242V7.73395H131.185L128.864 23.5416H126.197L123.877 7.73395H123.819V23.5416H121.035V2.66357Z" fill="#9199B5"/>
<path d="M6.5 23.5417C10.4242 23.5417 13.6053 20.2696 13.6053 16.2334C13.6053 12.1971 10.4242 8.92505 6.5 8.92505V14.0408C7.67724 14.0408 8.63157 15.0224 8.63157 16.2334C8.63157 17.4442 7.67724 18.4258 6.5 18.4258V23.5417Z" fill="#9199B5"/>
<path d="M30.1845 11.361C28.9703 10.9654 27.6773 10.752 26.3357 10.752C19.305 10.752 13.6055 16.6144 13.6055 23.846C13.6055 24.5719 13.6629 25.2839 13.7733 25.9776H21.683C21.4007 25.3265 21.2437 24.6051 21.2437 23.846C21.2437 20.9534 23.5235 18.6084 26.3357 18.6084C27.8728 18.6084 29.2508 19.3089 30.1845 20.4164V11.361Z" fill="#9199B5"/>
<path d="M7.74902 1.6167C8.3381 7.09786 12.856 11.3611 18.3419 11.3611C23.8278 11.3611 28.3457 7.09786 28.9348 1.6167H21.3128C20.8422 2.83001 19.6894 3.68738 18.3419 3.68738C16.9944 3.68738 15.8416 2.83001 15.371 1.6167H7.74902Z" fill="#9199B5"/>
</svg>
