<svg width="101" height="21" viewBox="0 0 101 21" fill="none" xmlns="http://www.w3.org/2000/svg">
<g clip-path="url(#clip0_441_1598)">
<path fill-rule="evenodd" clip-rule="evenodd" d="M13.634 6.17135C12.8199 5.62195 11.8628 5.3287 10.8837 5.3287V0.328705C12.8419 0.328705 14.7561 0.915195 16.3844 2.01401C18.0126 3.11282 19.2816 4.67461 20.031 6.50185C20.7803 8.3291 20.9764 10.3398 20.5944 12.2796C20.2124 14.2194 19.2694 16.0012 17.8847 17.3997C16.5 18.7983 14.7358 19.7507 12.8152 20.1365C10.8946 20.5224 8.90386 20.3243 7.0947 19.5675C5.28554 18.8106 3.73922 17.5289 2.65129 15.8844C1.56335 14.2399 0.982666 12.3065 0.982666 10.3287H5.93316C5.93316 11.3176 6.22351 12.2843 6.76747 13.1065C7.31143 13.9288 8.0846 14.5696 8.9892 14.9481C9.89376 15.3265 10.8892 15.4255 11.8495 15.2326C12.8097 15.0397 13.6918 14.5635 14.3842 13.8642C15.0765 13.1649 15.548 12.274 15.739 11.3041C15.93 10.3342 15.832 9.3289 15.4573 8.4153C15.0826 7.50165 14.4481 6.72075 13.634 6.17135Z" fill="white"/>
<path fill-rule="evenodd" clip-rule="evenodd" d="M5.93316 0.328707C5.93316 0.985317 5.80512 1.6355 5.55633 2.24213C5.30754 2.84875 4.94289 3.39995 4.48319 3.86424C4.0235 4.32854 3.47776 4.69683 2.87714 4.94811C2.27652 5.19938 1.63277 5.32871 0.982666 5.32871L0.982666 10.3287C2.28288 10.3287 3.57037 10.0701 4.77161 9.5675C5.97286 9.06495 7.06435 8.32835 7.98371 7.39976C8.90311 6.47121 9.63242 5.3688 10.13 4.15554C10.6276 2.94228 10.8837 1.64192 10.8837 0.328705L5.93316 0.328707Z" fill="white"/>
<path d="M63.1703 7.55496H60.7683V15.2611H63.1703V7.55496Z" fill="white"/>
<path d="M61.0356 6.112C61.2866 6.3657 61.6004 6.49255 61.9772 6.49255C62.3539 6.49255 62.6628 6.3657 62.9034 6.112C63.1445 5.84775 63.2648 5.5306 63.2648 5.16063C63.2648 4.78009 63.1445 4.46295 62.9034 4.20926C62.6628 3.95555 62.3539 3.8287 61.9772 3.8287C61.6004 3.8287 61.2866 3.95555 61.0356 4.20926C60.7945 4.46295 60.6742 4.78009 60.6742 5.16063C60.6742 5.5306 60.7945 5.84775 61.0356 6.112Z" fill="white"/>
<path d="M26.3075 15.2611V4.06656H28.7723V13.073H33.6862V15.2611H26.3075Z" fill="white"/>
<path fill-rule="evenodd" clip-rule="evenodd" d="M38.125 15.4355C37.34 15.4355 36.6283 15.2611 35.9899 14.9122C35.3619 14.5528 34.8648 14.0666 34.4984 13.4534C34.1321 12.8403 33.949 12.1532 33.949 11.3921C33.949 10.631 34.1321 9.94924 34.4984 9.34669C34.8648 8.74414 35.3619 8.26844 35.9899 7.91964C36.6178 7.56019 37.3296 7.38049 38.125 7.38049C38.9204 7.38049 39.6321 7.55494 40.2601 7.90374C40.888 8.25259 41.3852 8.73359 41.7515 9.34669C42.1178 9.94924 42.301 10.631 42.301 11.3921C42.301 12.1532 42.1178 12.8403 41.7515 13.4534C41.3852 14.0666 40.888 14.5528 40.2601 14.9122C39.6321 15.2611 38.9204 15.4355 38.125 15.4355ZM38.125 13.2315C38.4704 13.2315 38.7739 13.1575 39.0356 13.0095C39.2972 12.8509 39.4961 12.6342 39.6321 12.3594C39.7786 12.074 39.8519 11.7515 39.8519 11.3921C39.8519 11.0327 39.7786 10.7209 39.6321 10.4566C39.4856 10.1818 39.2815 9.97039 39.0198 9.82239C38.7686 9.66379 38.4704 9.58454 38.125 9.58454C37.7901 9.58454 37.4918 9.66379 37.2301 9.82239C36.9685 9.97039 36.7644 10.1818 36.6178 10.4566C36.4713 10.7315 36.3981 11.0486 36.3981 11.408C36.3981 11.7568 36.4713 12.074 36.6178 12.3594C36.7644 12.6342 36.9685 12.8509 37.2301 13.0095C37.4918 13.1575 37.7901 13.2315 38.125 13.2315Z" fill="white"/>
<path fill-rule="evenodd" clip-rule="evenodd" d="M44.2034 18.2738C44.8418 18.5698 45.5796 18.7178 46.417 18.7178C47.2333 18.7178 47.9607 18.5539 48.5992 18.2262C49.2376 17.8985 49.7399 17.444 50.1063 16.8626C50.4726 16.2812 50.656 15.5941 50.656 14.8013V7.55496H48.3008V8.07271C48.1257 7.92381 47.9268 7.79881 47.7043 7.69766C47.2961 7.49681 46.8303 7.39636 46.3071 7.39636C45.6058 7.39636 44.9831 7.56551 44.4389 7.90376C43.8946 8.23146 43.4655 8.68601 43.1515 9.26741C42.8375 9.83826 42.6805 10.4831 42.6805 11.2019C42.6805 11.9102 42.8375 12.555 43.1515 13.1364C43.4655 13.7178 43.8946 14.1776 44.4389 14.5159C44.9831 14.8541 45.6058 15.0233 46.3071 15.0233C46.8199 15.0233 47.2856 14.9229 47.7043 14.722C47.9071 14.6247 48.0902 14.5101 48.2538 14.378V14.8647C48.2538 15.4038 48.0811 15.8214 47.7357 16.1174C47.4008 16.4134 46.935 16.5613 46.3385 16.5613C45.857 16.5613 45.4436 16.4768 45.0982 16.3076C44.7633 16.1385 44.4598 15.8901 44.1876 15.5624L42.7119 17.0529C43.0782 17.5814 43.5754 17.9884 44.2034 18.2738ZM47.6258 12.6448C47.385 12.7928 47.0973 12.8668 46.7623 12.8668C46.4274 12.8668 46.1344 12.7928 45.8832 12.6448C45.6424 12.4968 45.4541 12.296 45.318 12.0423C45.1819 11.778 45.1139 11.4979 45.1139 11.2019C45.1139 10.8848 45.1819 10.5994 45.318 10.3457C45.4541 10.092 45.6477 9.89111 45.8989 9.74311C46.15 9.59511 46.4379 9.52111 46.7623 9.52111C47.0973 9.52111 47.385 9.59511 47.6258 9.74311C47.877 9.89111 48.0653 10.092 48.191 10.3457C48.327 10.5994 48.395 10.8848 48.395 11.2019C48.395 11.519 48.327 11.8044 48.191 12.0581C48.0653 12.3013 47.877 12.4968 47.6258 12.6448Z" fill="white"/>
<path fill-rule="evenodd" clip-rule="evenodd" d="M55.7109 15.4355C54.9258 15.4355 54.2139 15.2611 53.5758 14.9122C52.9475 14.5528 52.4505 14.0666 52.0842 13.4534C51.7178 12.8403 51.5347 12.1532 51.5347 11.3921C51.5347 10.631 51.7178 9.94924 52.0842 9.34669C52.4505 8.74414 52.9475 8.26844 53.5758 7.91964C54.2035 7.56019 54.9154 7.38049 55.7109 7.38049C56.506 7.38049 57.2178 7.55494 57.8456 7.90374C58.4738 8.25259 58.9708 8.73359 59.3371 9.34669C59.7035 9.94924 59.8866 10.631 59.8866 11.3921C59.8866 12.1532 59.7035 12.8403 59.3371 13.4534C58.9708 14.0666 58.4738 14.5528 57.8456 14.9122C57.2178 15.2611 56.506 15.4355 55.7109 15.4355ZM55.7109 13.2315C56.056 13.2315 56.3594 13.1575 56.6213 13.0095C56.8827 12.8509 57.0817 12.6342 57.2178 12.3594C57.3644 12.074 57.4376 11.7515 57.4376 11.3921C57.4376 11.0327 57.3644 10.7209 57.2178 10.4566C57.0713 10.1818 56.8673 9.97039 56.6055 9.82239C56.3545 9.66379 56.056 9.58454 55.7109 9.58454C55.3758 9.58454 55.0772 9.66379 54.8159 9.82239C54.554 9.97039 54.35 10.1818 54.2035 10.4566C54.0569 10.7315 53.9837 11.0486 53.9837 11.408C53.9837 11.7568 54.0569 12.074 54.2035 12.3594C54.35 12.6342 54.554 12.8509 54.8159 13.0095C55.0772 13.1575 55.3758 13.2315 55.7109 13.2315Z" fill="white"/>
<path fill-rule="evenodd" clip-rule="evenodd" d="M68.9435 15.4197C68.4311 15.4197 67.9599 15.3193 67.5307 15.1184C67.3049 15.0127 67.1009 14.8865 66.9188 14.7398V18.5117H64.548V7.55496H66.95V8.08681C67.1242 7.94286 67.3178 7.81841 67.5307 7.71351C67.9599 7.50206 68.4311 7.39636 68.9435 7.39636C69.6658 7.39636 70.3044 7.57081 70.8589 7.91966C71.4242 8.26846 71.8638 8.74416 72.1777 9.34671C72.5024 9.94926 72.6643 10.6364 72.6643 11.408C72.6643 12.1797 72.5024 12.8668 72.1777 13.4694C71.8638 14.0719 71.4242 14.5476 70.8589 14.8964C70.3044 15.2453 69.6658 15.4197 68.9435 15.4197ZM68.5044 13.2315C68.8495 13.2315 69.148 13.1522 69.399 12.9937C69.6609 12.8351 69.8648 12.6184 70.0113 12.3436C70.1579 12.0687 70.2311 11.7569 70.2311 11.408C70.2311 11.0486 70.1579 10.7315 70.0113 10.4567C69.8648 10.1818 69.6609 9.97041 69.399 9.82241C69.148 9.66381 68.8549 9.58456 68.5198 9.58456C68.1851 9.58456 67.8866 9.66381 67.6252 9.82241C67.3737 9.97041 67.1752 10.1818 67.0287 10.4567C66.8821 10.7315 66.8089 11.0486 66.8089 11.408C66.8089 11.7569 66.8767 12.0687 67.0128 12.3436C67.1594 12.6184 67.3633 12.8351 67.6252 12.9937C67.8866 13.1522 68.1797 13.2315 68.5044 13.2315Z" fill="white"/>
<path d="M75.0154 15.2769C75.455 15.3932 75.8995 15.4513 76.3495 15.4513C77.302 15.4513 78.0555 15.2294 78.6104 14.7854C79.1753 14.3414 79.4579 13.7442 79.4579 12.9936C79.4579 12.5074 79.3693 12.1162 79.1911 11.8203C79.0134 11.5137 78.7832 11.2706 78.5005 11.0909C78.2178 10.9112 77.9193 10.7684 77.6055 10.6627C77.2916 10.557 76.9931 10.4672 76.7109 10.3932C76.4282 10.3192 76.198 10.2346 76.0198 10.1395C75.8421 10.0443 75.753 9.9175 75.753 9.75895C75.753 9.61095 75.8213 9.49995 75.957 9.42595C76.0931 9.3414 76.297 9.29915 76.5693 9.29915C76.852 9.29915 77.1396 9.35725 77.4327 9.47355C77.7362 9.5898 78.0084 9.7907 78.249 10.0761L79.6149 8.68075C79.2698 8.23675 78.8198 7.90375 78.2649 7.6818C77.7208 7.44925 77.1243 7.33295 76.4753 7.33295C75.8579 7.33295 75.3188 7.43865 74.8584 7.65005C74.3975 7.8615 74.0416 8.1522 73.7906 8.52215C73.5396 8.88155 73.4139 9.3097 73.4139 9.80655C73.4139 10.2716 73.503 10.6575 73.6807 10.964C73.8584 11.26 74.0891 11.4926 74.3713 11.6617C74.654 11.8308 74.9525 11.963 75.2664 12.0581C75.5802 12.1532 75.8787 12.2431 76.1614 12.3277C76.4436 12.4017 76.6743 12.4915 76.852 12.5972C77.0406 12.6924 77.1347 12.8351 77.1347 13.0253C77.1347 13.1733 77.056 13.2896 76.899 13.3742C76.7525 13.4587 76.5381 13.501 76.2555 13.501C75.847 13.501 75.4703 13.427 75.1253 13.279C74.7797 13.1205 74.4812 12.9038 74.2302 12.6289L72.8644 14.0243C73.1263 14.3097 73.4401 14.5634 73.8065 14.7854C74.1832 14.9968 74.5862 15.1606 75.0154 15.2769Z" fill="white"/>
<path d="M83.8381 15.4355C83.1371 15.4355 82.5144 15.2928 81.9703 15.0074C81.4361 14.7114 81.0178 14.3097 80.7144 13.8023C80.4104 13.2844 80.2589 12.6924 80.2589 12.0264V7.55496H82.6609V11.9947C82.6609 12.259 82.7025 12.4863 82.7866 12.6765C82.8807 12.8668 83.0168 13.0148 83.1946 13.1205C83.3728 13.2262 83.5871 13.2791 83.8381 13.2791C84.1941 13.2791 84.4767 13.1681 84.6861 12.9461C84.8955 12.7135 85 12.3964 85 11.9947V7.55496H87.402V12.0106C87.402 12.6871 87.2505 13.2844 86.9465 13.8023C86.6431 14.3097 86.2248 14.7114 85.6906 15.0074C85.1569 15.2928 84.5396 15.4355 83.8381 15.4355Z" fill="white"/>
<path d="M90.9979 7.55496H88.5959V15.2611H90.9979V10.7579C90.9979 10.4937 91.0504 10.2717 91.1549 10.092C91.2702 9.91226 91.4222 9.77481 91.6103 9.67971C91.7989 9.57396 92.0133 9.52111 92.2539 9.52111C92.5994 9.52111 92.887 9.63211 93.1172 9.85411C93.3583 10.0655 93.4786 10.3668 93.4786 10.7579V15.2611H95.8806V10.7579C95.8806 10.4937 95.9331 10.2717 96.0375 10.092C96.1529 9.91226 96.3044 9.77481 96.493 9.67971C96.6811 9.57396 96.8959 9.52111 97.1365 9.52111C97.4821 9.52111 97.7697 9.63211 97.9999 9.85411C98.2405 10.0655 98.3608 10.3668 98.3608 10.7579V15.2611H100.763V10.4884C100.763 9.84356 100.627 9.29386 100.355 8.83931C100.093 8.37416 99.7321 8.02006 99.2717 7.77696C98.8217 7.52321 98.3034 7.39636 97.7172 7.39636C97.1207 7.39636 96.5816 7.52851 96.1004 7.79281C95.7875 7.96116 95.5143 8.17846 95.2801 8.44466C95.0618 8.16621 94.7964 7.93836 94.4831 7.76106C94.0648 7.51796 93.5885 7.39636 93.0549 7.39636C92.4895 7.39636 91.9821 7.51796 91.5321 7.76106C91.336 7.86221 91.1583 7.98336 90.9979 8.12451V7.55496Z" fill="white"/>
</g>
<defs>
<clipPath id="clip0_441_1598">
<rect width="100" height="20" fill="white" transform="translate(0.982666 0.328705)"/>
</clipPath>
</defs>
</svg>
