<svg width="141" height="26" viewBox="0 0 141 26" fill="none" xmlns="http://www.w3.org/2000/svg">
<g clip-path="url(#clip0_404_1426)">
<path d="M21.548 19.6615H28.8163L10.8113 1.323H3.54297L21.548 19.6615Z" fill="#9199B5"/>
<path d="M14.5449 1.323L31.9015 19.0009V1.323H27.2045V6.90426L21.7246 1.323L14.5449 1.323Z" fill="#9199B5"/>
<path d="M0.5 1.93701V19.6615H5.19697V14.0802L10.6767 19.6615H17.9023L0.5 1.93701Z" fill="#9199B5"/>
<path d="M43.2362 16.904H47.4446V19.4299H40.0234V5.99658H43.2362V16.904Z" fill="#9199B5"/>
<path d="M53.1853 19.5831C52.1582 19.5831 51.2313 19.3599 50.4047 18.9133C49.5905 18.4668 48.9455 17.8289 48.4695 16.9998C48.0061 16.1705 47.7744 15.201 47.7744 14.0911C47.7744 12.994 48.0123 12.0308 48.4883 11.2016C48.9643 10.3596 49.6156 9.71537 50.4422 9.26887C51.269 8.82237 52.1958 8.59912 53.2229 8.59912C54.25 8.59912 55.1768 8.82237 56.0035 9.26887C56.8301 9.71537 57.4814 10.3596 57.9574 11.2016C58.4334 12.0308 58.6713 12.994 58.6713 14.0911C58.6713 15.1882 58.4271 16.1577 57.9386 16.9998C57.4627 17.8289 56.805 18.4668 55.9659 18.9133C55.1392 19.3599 54.2123 19.5831 53.1853 19.5831ZM53.1853 16.751C53.799 16.751 54.3189 16.5213 54.7447 16.0621C55.183 15.6028 55.4022 14.9459 55.4022 14.0911C55.4022 13.2363 55.1893 12.5794 54.7635 12.1201C54.3501 11.6609 53.8366 11.4312 53.2229 11.4312C52.5966 11.4312 52.0768 11.6609 51.6635 12.1201C51.2501 12.5666 51.0435 13.2236 51.0435 14.0911C51.0435 14.9459 51.2439 15.6028 51.6447 16.0621C52.058 16.5213 52.5716 16.751 53.1853 16.751Z" fill="#9199B5"/>
<path d="M63.7956 8.59912C64.5346 8.59912 65.1797 8.7522 65.7308 9.05838C66.2945 9.36456 66.7266 9.76643 67.0272 10.2639V8.7522H70.2399V19.4109C70.2399 20.3932 70.0457 21.2798 69.6575 22.0707C69.2817 22.8744 68.6993 23.5123 67.9102 23.9843C67.1336 24.4563 66.1629 24.6924 64.9981 24.6924C63.4449 24.6924 62.1862 24.316 61.2217 23.5633C60.2573 22.8234 59.7062 21.8156 59.5684 20.5399H62.7436C62.8437 20.9481 63.0817 21.267 63.4575 21.4966C63.8333 21.739 64.2966 21.8602 64.8478 21.8602C65.5116 21.8602 66.0376 21.6625 66.426 21.267C66.8267 20.8843 67.0272 20.2656 67.0272 19.4109V17.8991C66.714 18.3966 66.2819 18.8049 65.7308 19.1238C65.1797 19.4299 64.5346 19.5831 63.7956 19.5831C62.9315 19.5831 62.1486 19.3599 61.4472 18.9133C60.7457 18.454 60.1884 17.8099 59.7751 16.9806C59.3743 16.1386 59.1738 15.1691 59.1738 14.072C59.1738 12.9749 59.3743 12.0117 59.7751 11.1824C60.1884 10.3533 60.7457 9.71537 61.4472 9.26887C62.1486 8.82237 62.9315 8.59912 63.7956 8.59912ZM67.0272 14.0911C67.0272 13.2747 66.8017 12.6304 66.3508 12.1584C65.9125 11.6863 65.3738 11.4503 64.7351 11.4503C64.0963 11.4503 63.5515 11.6863 63.1006 12.1584C62.6621 12.6176 62.4429 13.2555 62.4429 14.072C62.4429 14.8885 62.6621 15.539 63.1006 16.0238C63.5515 16.4959 64.0963 16.7318 64.7351 16.7318C65.3738 16.7318 65.9125 16.4959 66.3508 16.0238C66.8017 15.5518 67.0272 14.9075 67.0272 14.0911Z" fill="#9199B5"/>
<path d="M76.7722 19.5831C75.7451 19.5831 74.8183 19.3599 73.9916 18.9133C73.1775 18.4668 72.5324 17.8289 72.0565 16.9998C71.5931 16.1705 71.3613 15.201 71.3613 14.0911C71.3613 12.994 71.5993 12.0308 72.0752 11.2016C72.5512 10.3596 73.2025 9.71537 74.0292 9.26887C74.8559 8.82237 75.7828 8.59912 76.8098 8.59912C77.8369 8.59912 78.7638 8.82237 79.5904 9.26887C80.4171 9.71537 81.0684 10.3596 81.5443 11.2016C82.0203 12.0308 82.2583 12.994 82.2583 14.0911C82.2583 15.1882 82.0141 16.1577 81.5256 16.9998C81.0496 17.8289 80.3921 18.4668 79.5529 18.9133C78.7261 19.3599 77.7993 19.5831 76.7722 19.5831ZM76.7722 16.751C77.386 16.751 77.9058 16.5213 78.3316 16.0621C78.7701 15.6028 78.9892 14.9459 78.9892 14.0911C78.9892 13.2363 78.7763 12.5794 78.3504 12.1201C77.9371 11.6609 77.4236 11.4312 76.8098 11.4312C76.1836 11.4312 75.6638 11.6609 75.2504 12.1201C74.8371 12.5666 74.6304 13.2236 74.6304 14.0911C74.6304 14.9459 74.8309 15.6028 75.2316 16.0621C75.645 16.5213 76.1585 16.751 76.7722 16.751Z" fill="#9199B5"/>
<path d="M85.015 7.64218C84.4514 7.64218 83.9879 7.47633 83.6246 7.14464C83.274 6.8002 83.0986 6.37922 83.0986 5.88168C83.0986 5.37139 83.274 4.9504 83.6246 4.61872C83.9879 4.27427 84.4514 4.10205 85.015 4.10205C85.5661 4.10205 86.017 4.27427 86.3677 4.61872C86.7309 4.9504 86.9125 5.37139 86.9125 5.88168C86.9125 6.37922 86.7309 6.8002 86.3677 7.14464C86.017 7.47633 85.5661 7.64218 85.015 7.64218ZM86.6119 8.75205V19.4298H83.3992V8.75205H86.6119Z" fill="#9199B5"/>
<path d="M91.5895 10.2639C91.9031 9.76643 92.335 9.36456 92.8859 9.05838C93.4368 8.7522 94.0822 8.59912 94.8213 8.59912C95.6859 8.59912 96.4686 8.82237 97.1695 9.26887C97.8713 9.71537 98.4222 10.3533 98.8231 11.1824C99.2368 12.0117 99.4431 12.9749 99.4431 14.072C99.4431 15.1691 99.2368 16.1386 98.8231 16.9806C98.4222 17.8099 97.8713 18.454 97.1695 18.9133C96.4686 19.3599 95.6859 19.5831 94.8213 19.5831C94.095 19.5831 93.4495 19.4299 92.8859 19.1238C92.335 18.8176 91.9031 18.4222 91.5895 17.9374V24.5201H88.377V8.7522H91.5895V10.2639ZM96.174 14.072C96.174 13.2555 95.9486 12.6176 95.4977 12.1584C95.0595 11.6863 94.514 11.4503 93.8631 11.4503C93.224 11.4503 92.6795 11.6863 92.2286 12.1584C91.7904 12.6304 91.5713 13.2747 91.5713 14.0911C91.5713 14.9075 91.7904 15.5518 92.2286 16.0238C92.6795 16.4959 93.224 16.7318 93.8631 16.7318C94.5022 16.7318 95.0468 16.4959 95.4977 16.0238C95.9486 15.539 96.174 14.8885 96.174 14.072Z" fill="#9199B5"/>
<path d="M104.829 19.5831C103.915 19.5831 103.101 19.4236 102.387 19.1047C101.673 18.7858 101.109 18.352 100.696 17.8035C100.283 17.2422 100.051 16.617 100.001 15.9281H103.176C103.214 16.2981 103.383 16.5979 103.684 16.8275C103.984 17.0572 104.354 17.172 104.792 17.172C105.193 17.172 105.499 17.0954 105.713 16.9424C105.938 16.7765 106.051 16.566 106.051 16.3109C106.051 16.0047 105.894 15.7814 105.581 15.6411C105.267 15.488 104.76 15.3222 104.059 15.1436C103.307 14.9649 102.681 14.7799 102.18 14.5886C101.679 14.3845 101.247 14.072 100.884 13.651C100.521 13.2173 100.339 12.6368 100.339 11.9096C100.339 11.2973 100.502 10.7424 100.827 10.2448C101.166 9.73451 101.655 9.33266 102.293 9.03924C102.945 8.74582 103.715 8.59912 104.604 8.59912C105.919 8.59912 106.953 8.93081 107.704 9.59419C108.468 10.2575 108.906 11.1378 109.019 12.2349H106.051C106 11.8649 105.837 11.5715 105.562 11.3547C105.299 11.1378 104.948 11.0294 104.51 11.0294C104.135 11.0294 103.846 11.1059 103.646 11.259C103.446 11.3993 103.346 11.5971 103.346 11.8522C103.346 12.1584 103.502 12.388 103.815 12.5411C104.14 12.6942 104.642 12.8473 105.318 13.0003C106.095 13.2045 106.727 13.4086 107.216 13.6127C107.704 13.804 108.13 14.123 108.493 14.5695C108.869 15.0033 109.063 15.59 109.076 16.3299C109.076 16.9551 108.9 17.5164 108.549 18.0139C108.211 18.4987 107.716 18.8814 107.066 19.1621C106.426 19.4427 105.681 19.5831 104.829 19.5831Z" fill="#9199B5"/>
<path d="M120.829 8.7522V19.4299H117.617V17.9757C117.291 18.4477 116.847 18.8304 116.283 19.1238C115.732 19.4045 115.118 19.5448 114.442 19.5448C113.64 19.5448 112.932 19.3662 112.318 19.009C111.705 18.639 111.229 18.1096 110.891 17.4207C110.553 16.7318 110.384 15.9218 110.384 14.9905V8.7522H113.577V14.5503C113.577 15.2648 113.759 15.8197 114.122 16.2151C114.486 16.6107 114.974 16.8084 115.587 16.8084C116.214 16.8084 116.708 16.6107 117.072 16.2151C117.436 15.8197 117.617 15.2648 117.617 14.5503V8.7522H120.829Z" fill="#9199B5"/>
<path d="M135.95 8.63745C137.252 8.63745 138.286 9.0393 139.05 9.84297C139.827 10.6467 140.215 11.763 140.215 13.1918V19.43H137.021V13.6319C137.021 12.943 136.84 12.4136 136.476 12.0436C136.125 11.6609 135.637 11.4695 135.011 11.4695C134.384 11.4695 133.89 11.6609 133.526 12.0436C133.176 12.4136 133.001 12.943 133.001 13.6319V19.43H129.806V13.6319C129.806 12.943 129.625 12.4136 129.261 12.0436C128.911 11.6609 128.422 11.4695 127.796 11.4695C127.17 11.4695 126.675 11.6609 126.311 12.0436C125.961 12.4136 125.786 12.943 125.786 13.6319V19.43H122.573V8.75227H125.786V10.0918C126.111 9.64528 126.537 9.29445 127.063 9.0393C127.59 8.7714 128.184 8.63745 128.848 8.63745C129.637 8.63745 130.339 8.80967 130.952 9.15412C131.579 9.49856 132.067 9.98973 132.418 10.6276C132.781 10.0407 133.276 9.56235 133.902 9.1924C134.529 8.82243 135.211 8.63745 135.95 8.63745Z" fill="#9199B5"/>
</g>
<defs>
<clipPath id="clip0_404_1426">
<rect width="140" height="25" fill="white" transform="translate(0.5 0.5)"/>
</clipPath>
</defs>
</svg>
