<svg width="101" height="25" viewBox="0 0 101 25" fill="none" xmlns="http://www.w3.org/2000/svg">
<g clip-path="url(#clip0_441_1587)">
<path d="M31.4885 16.7997H38.5191V14.6924H33.9873V6.75485H31.4885V16.7997Z" fill="white"/>
<path d="M42.6844 15.3948C41.6821 15.3948 41.1597 14.5238 41.1597 13.2173C41.1597 11.9107 41.6821 11.0257 42.6844 11.0257C43.6868 11.0257 44.2233 11.9107 44.2233 13.2173C44.2233 14.5238 43.6868 15.3948 42.6844 15.3948ZM42.6986 17.0245C45.028 17.0245 46.5527 15.3808 46.5527 13.2173C46.5527 11.0538 45.028 9.41006 42.6986 9.41006C40.3833 9.41006 38.8303 11.0538 38.8303 13.2173C38.8303 15.3808 40.3833 17.0245 42.6986 17.0245Z" fill="white"/>
<path d="M50.5849 19.2864C51.6578 19.2864 52.6037 19.0475 53.239 18.4856C53.8178 17.9658 54.199 17.1791 54.199 16.0973V9.60676H51.9966V10.3794H51.9684C51.5448 9.77534 50.8954 9.39603 49.9354 9.39603C48.1425 9.39603 46.9001 10.8852 46.9001 12.9925C46.9001 15.1982 48.4107 16.4064 50.0343 16.4064C50.9096 16.4064 51.4601 16.0551 51.8837 15.5775H51.9401V16.294C51.9401 17.165 51.5307 17.6708 50.5566 17.6708C49.7943 17.6708 49.4131 17.3476 49.286 16.9683H47.0554C47.2813 18.4715 48.5943 19.2864 50.5849 19.2864ZM50.5707 14.7065C49.7096 14.7065 49.1449 14.004 49.1449 12.9223C49.1449 11.8265 49.7096 11.124 50.5707 11.124C51.5307 11.124 52.039 11.9389 52.039 12.9082C52.039 13.9197 51.5731 14.7065 50.5707 14.7065Z" fill="white"/>
<path d="M58.7274 15.3948C57.7251 15.3948 57.2027 14.5238 57.2027 13.2173C57.2027 11.9107 57.7251 11.0257 58.7274 11.0257C59.7298 11.0257 60.2662 11.9107 60.2662 13.2173C60.2662 14.5238 59.7298 15.3948 58.7274 15.3948ZM58.7415 17.0245C61.0709 17.0245 62.5956 15.3808 62.5956 13.2173C62.5956 11.0538 61.0709 9.41006 58.7415 9.41006C56.4262 9.41006 54.8733 11.0538 54.8733 13.2173C54.8733 15.3808 56.4262 17.0245 58.7415 17.0245Z" fill="white"/>
<path d="M63.2673 16.7997H65.5685V9.60675H63.2673V16.7997ZM63.2673 8.60929H65.5685V6.75485H63.2673V8.60929Z" fill="white"/>
<path d="M66.5674 19.174H68.8686V16.0551H68.8968C69.3486 16.6592 70.0121 17.0245 70.9439 17.0245C72.8356 17.0245 74.0921 15.5353 74.0921 13.2032C74.0921 11.0397 72.9203 9.39603 71.0003 9.39603C70.0121 9.39603 69.3062 9.83154 68.8121 10.4778H68.7697V9.60676H66.5674V19.174ZM70.3509 15.2544C69.3627 15.2544 68.798 14.4536 68.798 13.2875C68.798 12.1215 69.3062 11.2364 70.3086 11.2364C71.2968 11.2364 71.7627 12.0512 71.7627 13.2875C71.7627 14.5098 71.2262 15.2544 70.3509 15.2544Z" fill="white"/>
<path d="M77.8385 17.0245C79.7303 17.0245 81.1279 16.2097 81.1279 14.6362C81.1279 12.7958 79.6315 12.4727 78.3609 12.262C77.4432 12.0934 76.6244 12.0231 76.6244 11.5174C76.6244 11.0678 77.0621 10.8571 77.6268 10.8571C78.2621 10.8571 78.6997 11.0538 78.7844 11.7H80.9021C80.7891 10.2811 79.688 9.39603 77.6409 9.39603C75.9327 9.39603 74.5209 10.1828 74.5209 11.7C74.5209 13.3859 75.8621 13.7231 77.1185 13.9338C78.0785 14.1024 78.9538 14.1726 78.9538 14.8189C78.9538 15.2825 78.5162 15.5353 77.8244 15.5353C77.0621 15.5353 76.5821 15.1841 76.4974 14.4676H74.3232C74.3938 16.0551 75.7209 17.0245 77.8385 17.0245Z" fill="white"/>
<path d="M84.2538 17.0105C85.2562 17.0105 85.8915 16.6171 86.4138 15.9147H86.4562V16.7997H88.6585V9.60675H86.3573V13.6247C86.3573 14.4817 85.8774 15.0717 85.0868 15.0717C84.3527 15.0717 83.9997 14.6362 83.9997 13.8495V9.60675H81.7126V14.3271C81.7126 15.9287 82.5879 17.0105 84.2538 17.0105Z" fill="white"/>
<path d="M89.6592 16.7997H91.9604V12.7677C91.9604 11.9108 92.3839 11.3067 93.1039 11.3067C93.7957 11.3067 94.1204 11.7562 94.1204 12.5289V16.7997H96.4215V12.7677C96.4215 11.9108 96.8309 11.3067 97.5651 11.3067C98.2568 11.3067 98.5815 11.7562 98.5815 12.5289V16.7997H100.883V12.1215C100.883 10.5059 100.064 9.39603 98.4262 9.39603C97.4945 9.39603 96.718 9.78939 96.1533 10.6604H96.1251C95.758 9.88773 95.038 9.39603 94.0921 9.39603C93.0474 9.39603 92.3556 9.88773 91.9039 10.6323H91.8615V9.60676H89.6592V16.7997Z" fill="white"/>
<path fill-rule="evenodd" clip-rule="evenodd" d="M13.1497 23.8241C19.6472 23.8241 24.9144 18.5826 24.9144 12.1168C24.9144 5.65106 19.6472 0.409515 13.1497 0.409515C6.65224 0.409515 1.38501 5.65106 1.38501 12.1168C1.38501 18.5826 6.65224 23.8241 13.1497 23.8241ZM16.8199 5.86328C16.9985 5.23179 16.3827 4.85837 15.8203 5.25711L7.9692 10.8229C7.35926 11.2553 7.4552 12.1168 8.11331 12.1168H10.1807V12.1009H14.21L10.9269 13.2537L9.47955 18.3704C9.3009 19.0019 9.91667 19.3753 10.4791 18.9765L18.3303 13.4108C18.9402 12.9784 18.8442 12.1168 18.1861 12.1168H15.051L16.8199 5.86328Z" fill="white"/>
</g>
<defs>
<clipPath id="clip0_441_1587">
<rect width="100" height="24" fill="white" transform="translate(0.982666 0.328705)"/>
</clipPath>
</defs>
</svg>
