<svg width="44" height="54" viewBox="0 0 44 54" fill="none" xmlns="http://www.w3.org/2000/svg">
<path d="M44 18.4654V23.5235C44 29.6177 42.0295 34.6556 38.0886 38.6371C34.1884 42.6186 29.0489 44.6094 22.6704 44.6094C16.0074 44.6094 10.5633 42.4968 6.33795 38.2715C2.11265 34.0055 0 28.7036 0 22.3656C0 16.0277 2.11265 10.7258 6.33795 6.45983C10.5633 2.15328 15.8449 0 22.1828 0C26.1644 0 29.8006 0.893813 33.0914 2.68144C36.4229 4.46907 39.0434 6.88643 40.9529 9.93352L30.5928 15.8449C28.8864 13.2447 26.1644 11.9446 22.4266 11.9446C19.3795 11.9446 16.9012 12.9197 14.9917 14.8698C13.1228 16.8199 12.1884 19.3389 12.1884 22.4266C12.1884 25.3518 13.0619 27.9114 14.8089 30.1053C16.5559 32.2585 19.2576 33.3352 22.9141 33.3352C27.1394 33.3352 29.9631 31.8319 31.385 28.8255H22.3047V18.4654H44Z" fill="#FB5D70"/>
<path d="M11.934 18.3721H29.9921L11.934 53.0751V18.3721Z" fill="#FFC010"/>
</svg>
