<svg width="101" height="19" viewBox="0 0 101 19" fill="none" xmlns="http://www.w3.org/2000/svg">
<g clip-path="url(#clip0_441_1611)">
<path d="M16.0168 14.125H21.2084L8.34768 0.921295H3.15601L16.0168 14.125Z" fill="white"/>
<path d="M11.0149 0.921296L23.4124 13.6494V0.921295H20.0574V4.9398L16.1433 0.921295L11.0149 0.921296Z" fill="white"/>
<path d="M0.982666 1.36334V14.125H4.33765V10.1064L8.25176 14.125H13.4129L0.982666 1.36334Z" fill="white"/>
<path d="M31.5086 12.1396H34.5146V13.9583H29.2137V4.28632H31.5086V12.1396Z" fill="white"/>
<path d="M38.6152 14.0686C37.8815 14.0686 37.2195 13.9078 36.629 13.5863C36.0475 13.2648 35.5867 12.8056 35.2467 12.2086C34.9158 11.6115 34.7502 10.9134 34.7502 10.1143C34.7502 9.32442 34.9202 8.63089 35.2602 8.03389C35.6002 7.42762 36.0654 6.9638 36.6558 6.64232C37.2463 6.32083 37.9084 6.1601 38.642 6.1601C39.3756 6.1601 40.0376 6.32083 40.6282 6.64232C41.2186 6.9638 41.6838 7.42762 42.0238 8.03389C42.3638 8.63089 42.5337 9.32442 42.5337 10.1143C42.5337 10.9042 42.3593 11.6023 42.0104 12.2086C41.6704 12.8056 41.2007 13.2648 40.6013 13.5863C40.0108 13.9078 39.3488 14.0686 38.6152 14.0686ZM38.6152 12.0294C39.0536 12.0294 39.4249 11.8641 39.729 11.5334C40.0421 11.2028 40.1987 10.7298 40.1987 10.1143C40.1987 9.49889 40.0466 9.02589 39.7425 8.69522C39.4472 8.36456 39.0804 8.19922 38.642 8.19922C38.1947 8.19922 37.8234 8.36456 37.5282 8.69522C37.2329 9.01669 37.0853 9.48976 37.0853 10.1143C37.0853 10.7298 37.2284 11.2028 37.5147 11.5334C37.81 11.8641 38.1768 12.0294 38.6152 12.0294Z" fill="white"/>
<path d="M46.1936 6.1601C46.7215 6.1601 47.1823 6.27031 47.5759 6.49076C47.9785 6.71121 48.2871 7.00055 48.5019 7.35875V6.27032H50.7967V13.9446C50.7967 14.6518 50.658 15.2902 50.3806 15.8596C50.1123 16.4383 49.6962 16.8976 49.1326 17.2374C48.5779 17.5773 47.8845 17.7472 47.0525 17.7472C45.9431 17.7472 45.044 17.4762 44.3551 16.9343C43.6662 16.4016 43.2726 15.676 43.1742 14.7574H45.4421C45.5137 15.0514 45.6837 15.281 45.9521 15.4463C46.2205 15.6208 46.5515 15.7081 46.9452 15.7081C47.4193 15.7081 47.7951 15.5658 48.0725 15.281C48.3587 15.0054 48.5019 14.56 48.5019 13.9446V12.8561C48.2782 13.2143 47.9695 13.5082 47.5759 13.7379C47.1823 13.9583 46.7215 14.0686 46.1936 14.0686C45.5764 14.0686 45.0171 13.9078 44.5162 13.5863C44.0151 13.2556 43.617 12.7918 43.3218 12.1948C43.0355 11.5886 42.8923 10.8905 42.8923 10.1006C42.8923 9.31062 43.0355 8.61715 43.3218 8.02009C43.617 7.42309 44.0151 6.96379 44.5162 6.64231C45.0171 6.32083 45.5764 6.1601 46.1936 6.1601ZM48.5019 10.1143C48.5019 9.52649 48.3408 9.06262 48.0188 8.72275C47.7056 8.38289 47.3209 8.21295 46.8647 8.21295C46.4084 8.21295 46.0192 8.38289 45.6971 8.72275C45.384 9.05342 45.2274 9.51269 45.2274 10.1006C45.2274 10.6884 45.384 11.1568 45.6971 11.5059C46.0192 11.8458 46.4084 12.0156 46.8647 12.0156C47.3209 12.0156 47.7056 11.8458 48.0188 11.5059C48.3408 11.166 48.5019 10.7022 48.5019 10.1143Z" fill="white"/>
<path d="M55.463 14.0686C54.7293 14.0686 54.0673 13.9078 53.4768 13.5863C52.8953 13.2648 52.4345 12.8056 52.0946 12.2086C51.7635 11.6115 51.598 10.9134 51.598 10.1143C51.598 9.32442 51.768 8.63089 52.108 8.03389C52.448 7.42762 52.9132 6.9638 53.5037 6.64232C54.0941 6.32083 54.7562 6.1601 55.4898 6.1601C56.2234 6.1601 56.8855 6.32083 57.4759 6.64232C58.0664 6.9638 58.5317 7.42762 58.8716 8.03389C59.2116 8.63089 59.3816 9.32442 59.3816 10.1143C59.3816 10.9042 59.2071 11.6023 58.8582 12.2086C58.5182 12.8056 58.0485 13.2648 57.4491 13.5863C56.8586 13.9078 56.1966 14.0686 55.463 14.0686ZM55.463 12.0294C55.9013 12.0294 56.2726 11.8641 56.5768 11.5334C56.89 11.2028 57.0465 10.7298 57.0465 10.1143C57.0465 9.49889 56.8944 9.02589 56.5902 8.69522C56.295 8.36456 55.9282 8.19922 55.4898 8.19922C55.0425 8.19922 54.6712 8.36456 54.3759 8.69522C54.0807 9.01669 53.9331 9.48976 53.9331 10.1143C53.9331 10.7298 54.0763 11.2028 54.3625 11.5334C54.6578 11.8641 55.0246 12.0294 55.463 12.0294Z" fill="white"/>
<path d="M61.3505 5.4712C60.9479 5.4712 60.6169 5.35178 60.3574 5.11297C60.107 4.86497 59.9817 4.56186 59.9817 4.20364C59.9817 3.83623 60.107 3.53312 60.3574 3.2943C60.6169 3.0463 60.9479 2.9223 61.3505 2.9223C61.7442 2.9223 62.0662 3.0463 62.3168 3.2943C62.5762 3.53312 62.7059 3.83623 62.7059 4.20364C62.7059 4.56186 62.5762 4.86497 62.3168 5.11297C62.0662 5.35178 61.7442 5.4712 61.3505 5.4712ZM62.4912 6.2703V13.9583H60.1964V6.2703H62.4912Z" fill="white"/>
<path d="M66.0463 7.35875C66.2703 7.00055 66.5787 6.71121 66.9722 6.49076C67.3657 6.27031 67.8268 6.1601 68.3547 6.1601C68.9722 6.1601 69.5313 6.32083 70.032 6.64231C70.5333 6.96379 70.9268 7.42309 71.2131 8.02009C71.5086 8.61715 71.656 9.31062 71.656 10.1006C71.656 10.8905 71.5086 11.5886 71.2131 12.1948C70.9268 12.7918 70.5333 13.2556 70.032 13.5863C69.5313 13.9078 68.9722 14.0686 68.3547 14.0686C67.8359 14.0686 67.3748 13.9583 66.9722 13.7379C66.5787 13.5174 66.2703 13.2327 66.0463 12.8836V17.6232H63.7516V6.27032H66.0463V7.35875ZM69.3209 10.1006C69.3209 9.51269 69.1599 9.05342 68.8378 8.72275C68.5248 8.38289 68.1352 8.21295 67.6703 8.21295C67.2138 8.21295 66.8248 8.38289 66.5028 8.72275C66.1898 9.06262 66.0333 9.52649 66.0333 10.1143C66.0333 10.7022 66.1898 11.166 66.5028 11.5059C66.8248 11.8458 67.2138 12.0156 67.6703 12.0156C68.1268 12.0156 68.5157 11.8458 68.8378 11.5059C69.1599 11.1568 69.3209 10.6884 69.3209 10.1006Z" fill="white"/>
<path d="M75.5034 14.0686C74.8501 14.0686 74.269 13.9538 73.7592 13.7241C73.2488 13.4945 72.8463 13.1822 72.5514 12.7872C72.256 12.3831 72.0904 11.933 72.0547 11.437H74.3229C74.3495 11.7034 74.4703 11.9192 74.6852 12.0846C74.8995 12.2499 75.1638 12.3326 75.4768 12.3326C75.7631 12.3326 75.982 12.2774 76.1346 12.1672C76.2956 12.0478 76.3761 11.8962 76.3761 11.7126C76.3761 11.4921 76.2638 11.3314 76.0404 11.2303C75.8164 11.1201 75.454 11.0007 74.9534 10.8721C74.4164 10.7435 73.969 10.6103 73.6112 10.4726C73.2534 10.3256 72.9449 10.1006 72.6852 9.79742C72.4261 9.48516 72.2962 9.06722 72.2962 8.54362C72.2962 8.10276 72.4125 7.70322 72.6449 7.34496C72.8865 6.97758 73.2359 6.68824 73.6917 6.47698C74.1573 6.26572 74.7073 6.1601 75.3424 6.1601C76.282 6.1601 77.0203 6.39891 77.5566 6.87654C78.1027 7.35416 78.4157 7.98796 78.4962 8.77789H76.3761C76.3398 8.51149 76.2235 8.30022 76.0268 8.14409C75.8391 7.98796 75.5885 7.90989 75.2755 7.90989C75.0073 7.90989 74.8014 7.96496 74.6579 8.07522C74.5151 8.17622 74.4436 8.31862 74.4436 8.50229C74.4436 8.72276 74.5553 8.88809 74.7787 8.99829C75.0112 9.10856 75.3696 9.21876 75.8527 9.32896C76.4073 9.47596 76.8592 9.62289 77.2079 9.76989C77.5566 9.90762 77.8612 10.1373 78.1203 10.4588C78.3891 10.7711 78.5274 11.1936 78.5365 11.7263C78.5365 12.1764 78.4112 12.5806 78.1605 12.9388C77.919 13.2878 77.5657 13.5634 77.1008 13.7654C76.6443 13.9675 76.1118 14.0686 75.5034 14.0686Z" fill="white"/>
<path d="M86.9321 6.27032V13.9583H84.6373V12.9112C84.4048 13.2511 84.0873 13.5266 83.6847 13.7379C83.2912 13.94 82.8529 14.041 82.3698 14.041C81.797 14.041 81.2912 13.9124 80.8529 13.6552C80.4146 13.3888 80.075 13.0076 79.8334 12.5116C79.5918 12.0156 79.4711 11.4324 79.4711 10.7619V6.27032H81.7522V10.445C81.7522 10.9594 81.8821 11.3589 82.1412 11.6436C82.4009 11.9284 82.7496 12.0708 83.188 12.0708C83.6354 12.0708 83.9886 11.9284 84.2483 11.6436C84.5081 11.3589 84.6373 10.9594 84.6373 10.445V6.27032H86.9321Z" fill="white"/>
<path d="M97.7326 6.18765C98.6632 6.18765 99.4015 6.47699 99.9469 7.05563C100.502 7.63429 100.779 8.43803 100.779 9.46676V13.9583H98.4976V9.78363C98.4976 9.28763 98.3684 8.90649 98.1086 8.64009C97.858 8.36456 97.5093 8.22676 97.0619 8.22676C96.6145 8.22676 96.2612 8.36456 96.0015 8.64009C95.7515 8.90649 95.6262 9.28763 95.6262 9.78363V13.9583H93.3443V9.78363C93.3443 9.28763 93.2151 8.90649 92.9554 8.64009C92.7047 8.36456 92.356 8.22676 91.9086 8.22676C91.4612 8.22676 91.108 8.36456 90.8482 8.64009C90.5982 8.90649 90.4729 9.28763 90.4729 9.78363V13.9583H88.1781V6.27032H90.4729V7.23476C90.7054 6.91329 91.0093 6.66069 91.3852 6.47699C91.7612 6.2841 92.1859 6.18765 92.6599 6.18765C93.2236 6.18765 93.7249 6.31165 94.1632 6.55965C94.6106 6.80765 94.9593 7.16129 95.2099 7.62056C95.4697 7.19803 95.8229 6.85358 96.2703 6.58721C96.7177 6.32084 97.2054 6.18765 97.7326 6.18765Z" fill="white"/>
</g>
<defs>
<clipPath id="clip0_441_1611">
<rect width="100" height="18" fill="white" transform="translate(0.982666 0.328705)"/>
</clipPath>
</defs>
</svg>
