<svg width="101" height="20" viewBox="0 0 101 20" fill="none" xmlns="http://www.w3.org/2000/svg">
<g clip-path="url(#clip0_441_1625)">
<path d="M25.0862 1.63599H27.5829V15.4357H31.691V17.7357H25.0862V1.63599Z" fill="white"/>
<path d="M36.4084 17.9657C35.1828 17.9657 34.2447 17.613 33.594 16.9077C32.9434 16.2024 32.618 15.2057 32.618 13.9177V5.45391C32.618 4.16593 32.9434 3.16928 33.594 2.46396C34.2447 1.75864 35.1828 1.40598 36.4084 1.40598C37.634 1.40598 38.5722 1.75864 39.2229 2.46396C39.8735 3.16928 40.1988 4.16593 40.1988 5.45391V13.9177C40.1988 15.2057 39.8735 16.2024 39.2229 16.9077C38.5722 17.613 37.634 17.9657 36.4084 17.9657ZM36.4084 15.6657C37.2709 15.6657 37.7022 15.1367 37.7022 14.0787V5.29291C37.7022 4.23492 37.2709 3.70593 36.4084 3.70593C35.5459 3.70593 35.1147 4.23492 35.1147 5.29291V14.0787C35.1147 15.1367 35.5459 15.6657 36.4084 15.6657Z" fill="white"/>
<path d="M45.428 17.9657C44.2175 17.9657 43.2945 17.6207 42.6589 16.9307C42.0234 16.2254 41.7057 15.2211 41.7057 13.9177V5.45391C41.7057 4.1506 42.0234 3.15394 42.6589 2.46396C43.2945 1.75864 44.2175 1.40598 45.428 1.40598C46.6385 1.40598 47.5615 1.75864 48.197 2.46396C48.8326 3.15394 49.1503 4.1506 49.1503 5.45391V6.83388H46.7898V5.29291C46.7898 4.23492 46.3586 3.70593 45.4961 3.70593C44.6336 3.70593 44.2024 4.23492 44.2024 5.29291V14.1018C44.2024 15.1444 44.6336 15.6657 45.4961 15.6657C46.3586 15.6657 46.7898 15.1444 46.7898 14.1018V10.9508H45.5415V8.65087H49.1503V13.9177C49.1503 15.2211 48.8326 16.2254 48.197 16.9307C47.5615 17.6207 46.6385 17.9657 45.428 17.9657Z" fill="white"/>
<path d="M54.362 17.9657C53.1364 17.9657 52.1983 17.613 51.5477 16.9077C50.897 16.2024 50.5717 15.2057 50.5717 13.9177V5.45391C50.5717 4.16593 50.897 3.16928 51.5477 2.46396C52.1983 1.75864 53.1364 1.40598 54.362 1.40598C55.5877 1.40598 56.5258 1.75864 57.1765 2.46396C57.8272 3.16928 58.1525 4.16593 58.1525 5.45391V13.9177C58.1525 15.2057 57.8272 16.2024 57.1765 16.9077C56.5258 17.613 55.5877 17.9657 54.362 17.9657ZM54.362 15.6657C55.2245 15.6657 55.6558 15.1367 55.6558 14.0787V5.29291C55.6558 4.23492 55.2245 3.70593 54.362 3.70593C53.4996 3.70593 53.0683 4.23492 53.0683 5.29291V14.0787C53.0683 15.1367 53.4996 15.6657 54.362 15.6657Z" fill="white"/>
<path d="M59.8457 1.63599H62.3424V17.7357H59.8457V1.63599Z" fill="white"/>
<path d="M64.212 1.63599H67.8889C69.1295 1.63599 70.0602 1.97331 70.6808 2.64797C71.3014 3.32262 71.6114 4.3116 71.6114 5.61492V7.20188C71.6114 8.50522 71.3014 9.49417 70.6808 10.1689C70.0602 10.8435 69.1295 11.1808 67.8889 11.1808H66.7089V17.7357H64.212V1.63599ZM67.8889 8.88085C68.2977 8.88085 68.6002 8.76583 68.797 8.53587C69.0089 8.30584 69.1145 7.91489 69.1145 7.36287V5.45392C69.1145 4.90193 69.0089 4.51093 68.797 4.28094C68.6002 4.05094 68.2977 3.93595 67.8889 3.93595H66.7089V8.88085H67.8889Z" fill="white"/>
<path d="M76.3014 17.9657C75.0914 17.9657 74.1758 17.6207 73.5551 16.9307C72.9351 16.2254 72.6245 15.2211 72.6245 13.9177V12.9978H74.9851V14.1018C74.9851 15.1444 75.4164 15.6657 76.2789 15.6657C76.7026 15.6657 77.0201 15.5431 77.232 15.2978C77.4589 15.0371 77.5726 14.6231 77.5726 14.0557C77.5726 13.3811 77.4214 12.7908 77.1189 12.2848C76.8164 11.7634 76.2564 11.1425 75.4389 10.4218C74.4101 9.50182 73.6914 8.67386 73.2826 7.93786C72.8745 7.18654 72.6701 6.34322 72.6701 5.40791C72.6701 4.13526 72.9876 3.15394 73.6233 2.46396C74.2589 1.75864 75.182 1.40598 76.3926 1.40598C77.5876 1.40598 78.4883 1.75864 79.0933 2.46396C79.7139 3.15394 80.0239 4.1506 80.0239 5.45391V6.1209H77.6633V5.29291C77.6633 4.74092 77.5576 4.34226 77.3458 4.09693C77.1339 3.83627 76.8239 3.70593 76.4151 3.70593C75.5826 3.70593 75.167 4.21959 75.167 5.24691C75.167 5.82956 75.3183 6.37389 75.6208 6.87988C75.9383 7.38585 76.5058 7.99917 77.3233 8.71984C78.367 9.63982 79.0858 10.4755 79.4795 11.2268C79.8726 11.9782 80.0695 12.8597 80.0695 13.8718C80.0695 15.1904 79.7439 16.2024 79.0933 16.9077C78.4576 17.613 77.527 17.9657 76.3014 17.9657Z" fill="white"/>
<path d="M85.1327 17.9657C83.922 17.9657 82.9989 17.6207 82.3633 16.9307C81.7277 16.2254 81.4102 15.2211 81.4102 13.9177V1.63599H83.907V14.1018C83.907 14.6537 84.0127 15.0524 84.2245 15.2978C84.4514 15.5431 84.7695 15.6657 85.1777 15.6657C85.5864 15.6657 85.8964 15.5431 86.1083 15.2978C86.3352 15.0524 86.4489 14.6537 86.4489 14.1018V1.63599H88.8545V13.9177C88.8545 15.2211 88.537 16.2254 87.9014 16.9307C87.2658 17.6207 86.3427 17.9657 85.1327 17.9657Z" fill="white"/>
<path d="M90.6327 1.63599H94.1964L95.7852 13.1588H95.8302L97.4196 1.63599H100.983V17.7357H98.6221V5.54592H98.5771L96.7608 17.7357H94.6727L92.8571 5.54592H92.8121V17.7357H90.6327V1.63599Z" fill="white"/>
<path d="M0.982666 17.7357C4.05422 17.7357 6.54417 15.2125 6.54417 12.1001C6.54417 8.98756 4.05422 6.46439 0.982666 6.46439V10.4093C1.90412 10.4093 2.65111 11.1663 2.65111 12.1001C2.65111 13.0338 1.90412 13.7908 0.982666 13.7908V17.7357Z" fill="white"/>
<path d="M19.521 8.34294C18.5707 8.03786 17.5586 7.87326 16.5085 7.87326C11.0054 7.87326 6.54419 12.394 6.54419 17.9705C6.54419 18.5302 6.58914 19.0793 6.67555 19.6143H12.8667C12.6457 19.1121 12.5229 18.5559 12.5229 17.9705C12.5229 15.7399 14.3073 13.9316 16.5085 13.9316C17.7117 13.9316 18.7902 14.4718 19.521 15.3258V8.34294Z" fill="white"/>
<path d="M1.96045 0.828705C2.42154 5.05541 5.95782 8.34295 10.2518 8.34295C14.5458 8.34295 18.0821 5.05541 18.5431 0.828705H12.5772C12.2089 1.76433 11.3065 2.42547 10.2518 2.42547C9.19707 2.42547 8.29476 1.76433 7.92638 0.828705H1.96045Z" fill="white"/>
</g>
<defs>
<clipPath id="clip0_441_1625">
<rect width="100" height="19" fill="white" transform="translate(0.982666 0.828705)"/>
</clipPath>
</defs>
</svg>
