<svg width="141" height="36" viewBox="0 0 141 36" fill="none" xmlns="http://www.w3.org/2000/svg">
<path d="M16.6416 7.04126V2.54126H2.6416V33.4589H16.6416V28.9589C13.7737 28.9589 11.0232 27.8043 8.99534 25.7491C6.96743 23.6939 5.82817 20.9066 5.82817 18.0001C5.82817 15.0936 6.96743 12.3062 8.99534 10.251C11.0232 8.19585 13.7737 7.04126 16.6416 7.04126Z" fill="#9199B5"/>
<path d="M16.6416 7.04126V28.9589C19.5095 28.9589 22.26 27.8043 24.2879 25.7491C26.3158 23.6939 27.455 20.9066 27.455 18.0001C27.455 15.0936 26.3158 12.3062 24.2879 10.251C22.26 8.19585 19.5095 7.04126 16.6416 7.04126Z" fill="#9199B5"/>
<path d="M35.3115 9.79419H38.4459V25.0942H35.3115V9.79419Z" fill="#9199B5"/>
<path d="M40.2017 19.8529C40.2017 18.7521 40.5242 17.6762 41.1283 16.7613C41.7324 15.8465 42.5909 15.134 43.595 14.7142C44.5991 14.2945 45.7036 14.1863 46.7684 14.4033C47.8332 14.6204 48.8105 15.153 49.5763 15.9336C50.3422 16.7142 50.8621 17.7076 51.0703 18.788C51.2783 19.8685 51.1652 20.9871 50.7452 22.0023C50.3252 23.0174 49.6174 23.8834 48.7113 24.4903C47.8051 25.0974 46.7415 25.418 45.6554 25.4117C44.935 25.4174 44.2207 25.2774 43.5545 24.9995C42.8882 24.7218 42.2833 24.312 41.7753 23.7944C41.2673 23.2766 40.8666 22.6612 40.5963 21.9844C40.3261 21.3076 40.1919 20.583 40.2017 19.8529ZM48.0584 19.8529C48.0461 19.3783 47.8959 18.918 47.6268 18.5295C47.3576 18.1409 46.9815 17.8413 46.5452 17.6683C46.109 17.4953 45.6322 17.4565 45.1744 17.5567C44.7165 17.6569 44.2979 17.8916 43.971 18.2317C43.6441 18.5717 43.4233 19.0018 43.3364 19.4683C43.2495 19.9348 43.3002 20.4169 43.4822 20.8543C43.6642 21.2917 43.9693 21.6652 44.3597 21.9277C44.7499 22.1902 45.2078 22.3303 45.6763 22.3305C45.9953 22.3369 46.312 22.2764 46.6069 22.153C46.9017 22.0296 47.1682 21.8459 47.3898 21.6134C47.6114 21.3809 47.7833 21.1044 47.8948 20.8016C48.0062 20.4987 48.0548 20.1757 48.0375 19.8529H48.0584Z" fill="#9199B5"/>
<path d="M63.5107 14.6119V24.5754C63.5107 28.0907 60.7943 29.5836 58.0466 29.5836C57.0773 29.6642 56.1052 29.4691 55.2396 29.0201C54.3739 28.5712 53.649 27.8862 53.1466 27.0424L55.7898 25.4966C56.004 25.9343 56.3447 26.2953 56.7666 26.5318C57.1885 26.7682 57.6714 26.8688 58.151 26.8201C58.4566 26.8582 58.7667 26.8275 59.0591 26.7301C59.3517 26.6326 59.6193 26.4709 59.8428 26.2564C60.0665 26.0419 60.2406 25.78 60.3527 25.4894C60.4648 25.1988 60.5121 24.8867 60.4913 24.5754V23.6119C60.1266 24.0601 59.6638 24.4158 59.1397 24.6511C58.6155 24.8864 58.0446 24.9946 57.4719 24.9672C56.0864 24.9672 54.7578 24.4094 53.7781 23.4165C52.7984 22.4238 52.248 21.0771 52.248 19.673C52.248 18.2689 52.7984 16.9224 53.7781 15.9296C54.7578 14.9367 56.0864 14.3789 57.4719 14.3789C58.0446 14.3515 58.6155 14.4597 59.1397 14.695C59.6638 14.9303 60.1266 15.286 60.4913 15.7342V14.6754L63.5107 14.6119ZM60.4913 19.6413C60.5121 19.1347 60.383 18.6334 60.1204 18.2018C59.8579 17.7702 59.474 17.4281 59.018 17.2194C58.562 17.0107 58.055 16.9451 57.5619 17.0309C57.0689 17.1166 56.6123 17.3499 56.2511 17.7007C55.8899 18.0515 55.6405 18.5038 55.535 18.9994C55.4295 19.4951 55.4726 20.0112 55.6589 20.4818C55.8453 20.9523 56.1663 21.3556 56.5805 21.6398C56.9949 21.924 57.4836 22.0761 57.9839 22.0766C58.3104 22.1004 58.6381 22.0545 58.9459 21.9421C59.2538 21.8295 59.535 21.6528 59.7713 21.4233C60.0076 21.1938 60.1938 20.9166 60.3178 20.6097C60.4418 20.3027 60.5009 19.9728 60.4913 19.6413Z" fill="#9199B5"/>
<path d="M65.2758 19.853C65.2758 18.7531 65.5978 17.678 66.2009 16.7636C66.8041 15.8492 67.6613 15.1367 68.6642 14.7164C69.6671 14.2959 70.7704 14.1864 71.8348 14.4018C72.8991 14.6172 73.8764 15.1476 74.6431 15.9261C75.4098 16.7046 75.9313 17.6961 76.1417 18.775C76.3523 19.8541 76.2421 20.9721 75.8254 21.9876C75.4086 23.0032 74.7039 23.8706 73.8006 24.4802C72.8972 25.0898 71.8357 25.414 70.7504 25.4119C70.0286 25.419 69.3127 25.2799 68.6446 25.0029C67.9766 24.726 67.3698 24.3166 66.8599 23.7988C66.35 23.2811 65.9472 22.6654 65.6752 21.9878C65.4032 21.3103 65.2674 20.5845 65.2758 19.853ZM73.1325 19.853C73.1201 19.378 72.9697 18.9172 72.7001 18.5284C72.4306 18.1398 72.0537 17.8402 71.6169 17.6675C71.1801 17.4948 70.7027 17.4566 70.2446 17.5577C69.7865 17.6587 69.3679 17.8946 69.0414 18.2357C68.715 18.5767 68.495 19.0079 68.4094 19.475C68.3236 19.9422 68.3757 20.4246 68.5593 20.8618C68.7428 21.2991 69.0497 21.6717 69.4414 21.933C69.833 22.1942 70.2919 22.3326 70.7608 22.3307C71.0798 22.337 71.3966 22.2766 71.6914 22.1531C71.9863 22.0298 72.2528 21.8461 72.4744 21.6135C72.696 21.381 72.8678 21.1046 72.9793 20.8017C73.0908 20.4988 73.1394 20.1759 73.122 19.853H73.1325Z" fill="#9199B5"/>
<path d="M77.6777 11.8059C77.6777 11.4331 77.7868 11.0687 77.9912 10.7588C78.1955 10.4488 78.486 10.2073 78.8257 10.0646C79.1656 9.92196 79.5395 9.88464 79.9003 9.95736C80.2609 10.0301 80.5923 10.2096 80.8525 10.4732C81.1125 10.7368 81.2896 11.0726 81.3614 11.4381C81.4332 11.8037 81.3963 12.1827 81.2556 12.5271C81.1148 12.8714 80.8764 13.1658 80.5706 13.3729C80.2648 13.58 79.9053 13.6906 79.5374 13.6906C79.0459 13.6851 78.576 13.4847 78.2284 13.1325C77.8808 12.7802 77.6832 12.304 77.6777 11.8059ZM77.9807 14.6117H81.115V25.0941H77.9807V14.6117Z" fill="#9199B5"/>
<path d="M94.5296 19.8529C94.5647 20.55 94.4634 21.2473 94.2316 21.9047C93.9999 22.562 93.642 23.1664 93.1789 23.683C92.7156 24.1997 92.1563 24.6183 91.5327 24.915C90.9093 25.2117 90.2341 25.3805 89.546 25.4117C88.9621 25.4511 88.3769 25.3563 87.8342 25.1345C87.2915 24.9126 86.8052 24.5694 86.4117 24.1305V29.3082H83.2773V14.6117H86.4117V15.5964C86.8058 15.1588 87.2924 14.8172 87.8352 14.5972C88.3779 14.3771 88.9628 14.2843 89.546 14.3258C90.2314 14.357 90.9039 14.5249 91.5252 14.8195C92.1465 15.1142 92.7046 15.5301 93.1673 16.0433C93.6301 16.5565 93.9886 17.1571 94.2223 17.8108C94.456 18.4644 94.5605 19.1583 94.5296 19.8529ZM91.3953 19.8529C91.3829 19.361 91.2276 18.8839 90.9488 18.4813C90.6701 18.0786 90.2802 17.7682 89.8281 17.5891C89.376 17.41 88.8818 17.3701 88.4074 17.4744C87.9331 17.5787 87.4997 17.8227 87.1615 18.1756C86.8233 18.5285 86.5954 18.9747 86.5065 19.4584C86.4175 19.9419 86.4713 20.4414 86.6613 20.8941C86.8512 21.3468 87.1687 21.7326 87.5741 22.0032C87.9795 22.2739 88.4546 22.4171 88.94 22.4152C89.2725 22.4295 89.6042 22.3724 89.9133 22.2477C90.2226 22.123 90.5023 21.9335 90.7341 21.6915C90.966 21.4496 91.1446 21.1606 91.2586 20.8438C91.3726 20.5269 91.4191 20.1893 91.3953 19.8529Z" fill="#9199B5"/>
<path d="M104.069 21.9494C104.069 24.3636 101.979 25.3906 99.7642 25.3906C98.8608 25.473 97.9538 25.2789 97.1604 24.8335C96.367 24.388 95.7237 23.7116 95.3135 22.8918L98.009 21.3459C98.1158 21.7237 98.3473 22.0529 98.6649 22.2784C98.9825 22.5039 99.3669 22.612 99.7538 22.5847C100.496 22.5847 100.872 22.3518 100.872 21.9283C100.872 20.7741 95.7836 21.3883 95.7836 17.7565C95.7836 15.4694 97.6851 14.3259 99.8374 14.3259C100.655 14.2887 101.468 14.4769 102.189 14.8702C102.91 15.2636 103.513 15.8475 103.933 16.56L101.237 18C101.118 17.7268 100.924 17.4945 100.677 17.3311C100.43 17.1676 100.142 17.08 99.8478 17.0788C99.3045 17.0788 98.9806 17.2906 98.9806 17.6612C98.9806 18.8683 104.069 18.0741 104.069 21.9494Z" fill="#9199B5"/>
<path d="M115.425 14.6118V25.0942H112.291V24.1095C111.935 24.5454 111.482 24.8902 110.972 25.1165C110.46 25.3428 109.903 25.4439 109.345 25.4118C107.255 25.4118 105.469 23.8977 105.469 21.0706V14.6118H108.603V20.5942C108.578 20.8443 108.607 21.0968 108.689 21.3344C108.77 21.5719 108.901 21.7887 109.072 21.97C109.245 22.1512 109.454 22.2924 109.684 22.384C109.915 22.4755 110.163 22.5151 110.411 22.5001C111.539 22.5001 112.333 21.8224 112.333 20.3824V14.6118H115.425Z" fill="#9199B5"/>
<path d="M133.187 18.6565V25.0942H130.053V18.9318C130.053 17.873 129.562 17.2165 128.569 17.2165C127.577 17.2165 126.95 17.9471 126.95 19.186V25.0942H123.815V18.9318C123.815 17.873 123.324 17.2165 122.332 17.2165C121.339 17.2165 120.712 17.9471 120.712 19.186V25.0942H117.578V14.6118H120.712V15.5754C121.037 15.1497 121.461 14.8126 121.946 14.5945C122.431 14.3764 122.963 14.284 123.492 14.326C124.021 14.2979 124.55 14.4101 125.024 14.6514C125.499 14.8928 125.903 15.255 126.198 15.7024C126.542 15.2349 126.998 14.8634 127.522 14.6228C128.046 14.382 128.622 14.2799 129.196 14.326C131.641 14.326 133.187 16.0413 133.187 18.6565Z" fill="#9199B5"/>
<path d="M135.819 14.5482C137.088 14.5482 138.118 13.5053 138.118 12.2188C138.118 10.9323 137.088 9.8894 135.819 9.8894C134.55 9.8894 133.521 10.9323 133.521 12.2188C133.521 13.5053 134.55 14.5482 135.819 14.5482Z" fill="#9199B5"/>
</svg>
