<svg width="1000" height="469" viewBox="0 0 1000 469" fill="none" xmlns="http://www.w3.org/2000/svg">
<circle opacity="0.5" cx="500" cy="235" r="499" stroke="#193440" strokeWidth="2" stroke-dasharray="10 10"/>
<g filter="url(#filter0_f_243_1812)">
<circle cx="500" cy="235" r="399" stroke="#193440" strokeWidth="2" stroke-dasharray="10 10"/>
</g>
<circle opacity="0.5" cx="500" cy="235" r="299" stroke="#193440" strokeWidth="2" stroke-dasharray="10 10"/>
<g filter="url(#filter1_f_243_1812)">
<path d="M144.385 397.029C144.41 399.005 144.56 400.981 144.885 402.932C144.91 403.007 144.91 403.082 144.935 403.157C145.185 404.508 145.885 405.483 147.086 406.158C147.886 406.609 148.712 407.009 149.637 407.159C151.038 407.409 152.463 407.684 153.864 407.959C154.264 408.034 154.539 408.284 154.589 408.634C154.639 408.96 154.439 409.285 154.089 409.46C153.889 409.535 153.664 409.585 153.464 409.66C152.288 409.96 151.113 410.31 150.012 410.861C148.237 411.736 146.936 413.087 146.186 414.912C145.31 417.013 144.71 419.189 144.41 421.44C144.335 422.091 144.235 422.741 144.16 423.391C144.11 423.817 143.885 424.067 143.534 424.092C143.184 424.142 142.909 423.967 142.734 423.591C142.659 423.416 142.609 423.241 142.559 423.066C142.009 421.24 141.233 419.515 140.258 417.864C140.033 417.514 139.808 417.138 139.533 416.838C138.282 415.513 136.931 414.287 135.381 413.312C134.105 412.511 132.704 412.061 131.254 411.736C130.078 411.486 128.903 411.261 127.727 411.036C127.277 410.961 127.027 410.71 127.002 410.36C126.977 409.985 127.227 409.685 127.677 409.585C127.802 409.56 127.952 409.535 128.102 409.535C128.803 409.61 129.453 409.41 130.103 409.31C131.429 409.085 132.704 408.685 133.98 408.284C134.63 408.084 135.256 407.834 135.906 407.609C138.007 406.859 139.282 405.333 140.083 403.332C140.283 402.807 140.433 402.257 140.658 401.756C140.983 401.006 141.333 400.256 141.658 399.505C141.859 399.08 142.084 398.63 142.209 398.18C142.509 397.104 142.784 396.029 143.084 394.928C143.134 394.753 143.209 394.578 143.284 394.378C143.384 394.128 143.559 393.978 143.835 394.003C144.135 394.028 144.31 394.228 144.36 394.503C144.385 394.728 144.385 394.928 144.385 395.153C144.385 395.779 144.385 396.404 144.385 397.029Z" fill="#193440"/>
</g>
<g filter="url(#filter2_f_243_1812)">
<path d="M851.385 28.0291C851.41 30.005 851.56 31.9809 851.885 33.9318C851.91 34.0069 851.91 34.0819 851.935 34.1569C852.185 35.5076 852.885 36.483 854.086 37.1583C854.886 37.6085 855.712 38.0087 856.637 38.1588C858.038 38.4089 859.463 38.684 860.864 38.9592C861.264 39.0342 861.539 39.2843 861.589 39.6345C861.639 39.9596 861.439 40.2848 861.089 40.4599C860.889 40.5349 860.664 40.5849 860.464 40.66C859.288 40.9601 858.113 41.3103 857.012 41.8605C855.237 42.7359 853.936 44.0865 853.186 45.9124C852.31 48.0134 851.71 50.1894 851.41 52.4404C851.335 53.0907 851.235 53.741 851.16 54.3913C851.11 54.8165 850.885 55.0666 850.534 55.0916C850.184 55.1417 849.909 54.9666 849.734 54.5914C849.659 54.4163 849.609 54.2412 849.559 54.0662C849.009 52.2403 848.233 50.5145 847.258 48.8637C847.033 48.5136 846.808 48.1384 846.533 47.8383C845.282 46.5127 843.931 45.2871 842.381 44.3116C841.105 43.5113 839.704 43.0611 838.254 42.7359C837.078 42.4858 835.903 42.2607 834.727 42.0356C834.277 41.9606 834.027 41.7104 834.002 41.3603C833.977 40.9851 834.227 40.685 834.677 40.5849C834.802 40.5599 834.952 40.5349 835.102 40.5349C835.803 40.6099 836.453 40.4098 837.103 40.3098C838.429 40.0847 839.704 39.6845 840.98 39.2843C841.63 39.0842 842.256 38.8341 842.906 38.609C845.007 37.8587 846.282 36.3329 847.083 34.332C847.283 33.8068 847.433 33.2565 847.658 32.7563C847.983 32.0059 848.333 31.2556 848.658 30.5053C848.859 30.0801 849.084 29.6298 849.209 29.1796C849.509 28.1041 849.784 27.0286 850.084 25.9281C850.134 25.7531 850.209 25.578 850.284 25.3779C850.384 25.1278 850.559 24.9777 850.835 25.0027C851.135 25.0277 851.31 25.2278 851.36 25.5029C851.385 25.728 851.385 25.9281 851.385 26.1532C851.385 26.7785 851.385 27.4038 851.385 28.0291Z" fill="#193440"/>
</g>
<defs>
<filter id="filter0_f_243_1812" x="95" y="-170" width="810" height="810" filterUnits="userSpaceOnUse" color-interpolation-filters="sRGB">
<feFlood flood-opacity="0" result="BackgroundImageFix"/>
<feBlend mode="normal" in="SourceGraphic" in2="BackgroundImageFix" result="shape"/>
<feGaussianBlur stdDeviation="2.5" result="effect1_foregroundBlur_243_1812"/>
</filter>
<filter id="filter1_f_243_1812" x="122" y="389" width="37.5971" height="40.1001" filterUnits="userSpaceOnUse" color-interpolation-filters="sRGB">
<feFlood flood-opacity="0" result="BackgroundImageFix"/>
<feBlend mode="normal" in="SourceGraphic" in2="BackgroundImageFix" result="shape"/>
<feGaussianBlur stdDeviation="2.5" result="effect1_foregroundBlur_243_1812"/>
</filter>
<filter id="filter2_f_243_1812" x="829" y="20" width="37.5971" height="40.1001" filterUnits="userSpaceOnUse" color-interpolation-filters="sRGB">
<feFlood flood-opacity="0" result="BackgroundImageFix"/>
<feBlend mode="normal" in="SourceGraphic" in2="BackgroundImageFix" result="shape"/>
<feGaussianBlur stdDeviation="2.5" result="effect1_foregroundBlur_243_1812"/>
</filter>
</defs>
</svg>
