<svg width="130" height="137" viewBox="0 0 130 137" fill="none" xmlns="http://www.w3.org/2000/svg">
<path fill-rule="evenodd" clip-rule="evenodd" d="M91.4468 95.8794L94.7966 99.5997C95.8444 100.763 94.4867 101.986 93.4389 100.822L90.0891 97.1018C87.2155 93.9104 81.5997 98.9669 84.4733 102.158L89.7838 108.056C90.8316 109.22 89.4739 110.442 88.4261 109.279L83.1156 103.381C78.8212 98.6113 87.1435 91.1178 91.4379 95.8873L91.4468 95.8794Z" fill="#FFC010"/>
<circle cx="96.8172" cy="109.894" r="12" transform="rotate(-2 96.8172 109.894)" fill="white"/>
<path fill-rule="evenodd" clip-rule="evenodd" d="M13.8703 25.1872C14.6954 23.9406 15.7026 22.719 16.8997 21.531L16.9085 21.523C18.2318 20.4574 19.552 19.5834 20.8614 18.8924C25.5552 16.4287 30.2787 16.2673 34.6859 17.7757C38.7239 19.1508 42.5161 21.9311 45.8123 25.6321L48.4787 25.6322C48.4729 25.6251 48.4671 25.618 48.4613 25.6109C44.6896 20.9965 40.1996 17.5168 35.351 15.855C30.429 14.1648 25.1533 14.3512 19.9169 17.0988C18.4607 17.875 17.0102 18.8348 15.5635 20.0115L15.8823 20.4011L15.5282 20.0433C14.1989 21.3504 13.0927 22.6926 12.1764 24.0684C8.90434 28.9975 8.15971 34.2162 9.32609 39.2879C10.472 44.2836 13.4545 49.1208 17.6581 53.3462C19.8779 55.5809 22.4413 57.6479 25.2438 59.4838C29.9769 62.597 35.3505 65.3064 40.9589 68.1341L40.9726 68.141C42.1952 68.7581 43.436 69.3748 44.6887 69.9975C55.4285 75.3356 67.0489 81.1114 75.6695 91.3047L89.5836 106.758C89.9514 107.166 90.5916 107.204 91.0148 106.823C91.4291 106.45 91.4756 105.81 91.0999 105.392L77.225 89.9828C68.3303 79.4665 56.4749 73.576 45.547 68.1463C44.3228 67.538 43.1101 66.9354 41.9146 66.3329L41.8987 66.3248C36.3234 63.5156 30.983 60.8248 26.3786 57.8011C23.6886 56.0369 21.2367 54.0584 19.1197 51.92C15.1684 47.9394 12.3747 43.436 11.3147 38.8193C10.284 34.2707 10.9294 29.5978 13.8703 25.1872ZM58.9485 45.6322L56.7636 45.6321C57.4606 47.4157 58.1511 49.238 58.8502 51.084C59.3245 52.336 59.797 53.6049 60.274 54.8861C64.5316 66.3216 69.1507 78.7278 78.6796 88.673L92.5546 104.083C92.9224 104.491 93.5626 104.529 93.9858 104.148C94.4001 103.774 94.4466 103.135 94.0709 102.717L80.1568 87.2642C70.9099 77.6144 66.3744 65.4303 62.1885 54.1854C61.7055 52.888 61.2273 51.6032 60.7469 50.3361L60.6578 50.1015C60.0847 48.5923 59.5182 47.1007 58.9485 45.6322Z" fill="#FFC010"/>
<rect x="42.7422" y="22.7281" width="14" height="14" rx="7" transform="rotate(-2 42.7422 22.7281)" fill="white"/>
<path fill-rule="evenodd" clip-rule="evenodd" d="M50.0054 31.2519C49.0407 29.7109 48.0023 28.2561 46.8989 26.9074C44.9886 24.5656 42.8894 22.5362 40.6556 20.9238C41.1242 20.4062 41.6696 19.9586 42.2745 19.5992C44.4878 21.2585 46.5653 23.2913 48.4612 25.6109C49.5249 26.9154 50.5333 28.3103 51.4755 29.7811C51.0616 30.3407 50.5659 30.837 50.0054 31.2519Z" fill="#FFC010"/>
</svg>
