<svg width="128" height="139" viewBox="0 0 128 139" fill="none" xmlns="http://www.w3.org/2000/svg">
<path fill-rule="evenodd" clip-rule="evenodd" d="M89.4802 97.8065L92.6981 101.641C93.7047 102.841 92.3052 104.015 91.2986 102.816L88.0807 98.9808C85.3203 95.691 79.5314 100.548 82.2918 103.838L87.3933 109.918C88.3998 111.117 87.0003 112.292 85.9938 111.092L80.8923 105.013C76.7669 100.096 85.3457 92.8976 89.4711 97.8141L89.4802 97.8065Z" fill="#FFC010"/>
<circle cx="94.3583" cy="111.999" r="12" fill="white"/>
<path fill-rule="evenodd" clip-rule="evenodd" d="M14.4182 24.4495C15.2863 23.2325 16.3355 22.0468 17.5733 20.9012L17.5824 20.8936C18.9421 19.8749 20.292 19.0475 21.6247 18.4025C26.4016 16.1041 31.1279 16.1077 35.4798 17.769C39.4675 19.2842 43.1605 22.1954 46.3256 26.0094L48.9903 26.1025C48.9846 26.095 48.979 26.0876 48.9734 26.0801C45.365 21.3369 40.9991 17.7026 36.2115 15.8726C31.3515 14.0118 26.0725 14.0139 20.7434 16.5771C19.261 17.3019 17.7779 18.2105 16.291 19.3361L16.596 19.7366L16.2546 19.3666C14.8805 20.6265 13.7281 21.9293 12.7644 23.2723C9.32229 28.0842 8.39598 33.2737 9.38465 38.383C10.3555 43.4157 13.1673 48.354 17.221 52.7235C19.3614 55.0344 21.8511 57.1895 24.5878 59.1222C29.2094 62.3987 34.4852 65.2939 39.9915 68.3157L40.0049 68.3231C41.2052 68.9824 42.4237 69.642 43.654 70.308C54.201 76.0177 65.6127 82.1955 73.8723 92.6835L87.2386 108.613C87.5919 109.034 88.2304 109.094 88.6666 108.728C89.0937 108.369 89.1625 107.731 88.8017 107.301L75.4729 91.4167C66.9507 80.5964 55.3081 74.2957 44.5764 68.4879C43.3741 67.8373 42.1832 67.1928 41.0095 66.5488L40.9938 66.5403C35.52 63.5382 30.2767 60.6626 25.7806 57.4801C23.1539 55.6231 20.7725 53.5602 18.7315 51.3492C14.9215 47.2332 12.2866 42.635 11.3884 37.9842C10.5171 33.4023 11.3252 28.7548 14.4182 24.4495ZM63.8638 61.5225L61.679 61.4462C65.1013 71.3407 69.2846 81.5527 76.9724 90.1585L90.3011 106.043C90.6545 106.464 91.293 106.524 91.7292 106.158C92.1563 105.799 92.225 105.161 91.8642 104.731L78.4979 88.8021C71.2437 80.6826 67.1731 70.9911 63.8638 61.5225Z" fill="#FFC010"/>
<rect x="43.3584" y="23" width="14" height="14" rx="7" fill="#9199B5" fill-opacity="0.12"/>
<path fill-rule="evenodd" clip-rule="evenodd" d="M50.3198 31.7719C49.4094 30.1981 48.4225 28.708 47.3668 27.3216C45.5394 24.9146 43.5123 22.8131 41.3361 21.1237C41.8225 20.6228 42.3831 20.1945 43.0003 19.8564C45.1543 21.5919 47.1596 23.696 48.9734 26.0803C49.9909 27.4212 50.9499 28.8505 51.8403 30.3532C51.4071 30.898 50.8944 31.3767 50.3198 31.7719Z" fill="#FFC010"/>
</svg>
